<svg width="16" height="16" viewBox="0 0 16 16" fill="none" xmlns="http://www.w3.org/2000/svg">
<g clip-path="url(#clip0_9332_10059)">
<path d="M13.0398 -2.95639e-05H2.48717C1.11291 -2.95639e-05 0 1.1227 0 2.50856V13.1505C0 14.5355 1.11291 15.6587 2.48717 15.6587H13.0398C14.4138 15.6587 15.5261 14.5355 15.5261 13.1505V2.50856C15.5261 1.1227 14.4138 -2.95639e-05 13.0398 -2.95639e-05Z" fill="#1677FF"/>
<path d="M4.19486 12.0418C1.7794 12.0418 1.06528 10.1229 2.259 9.07309C2.65735 8.7183 3.38526 8.54508 3.77334 8.50622C5.20818 8.36322 6.53639 8.91527 8.10382 9.68689C7.00206 11.1364 5.59875 12.0418 4.19486 12.0418ZM12.7828 9.83238C12.1615 9.6225 11.3278 9.30159 10.3993 8.96279C10.9569 7.98511 11.4023 6.87176 11.6951 5.66176H8.6346V4.55003H12.3837V3.92948H8.6346V2.0762H7.10458C6.83618 2.0762 6.83618 2.34343 6.83618 2.34343V3.92948H3.0444V4.55003H6.83618V5.66176H3.70558V6.28216H9.77728C9.55508 7.05422 9.25676 7.77905 8.90271 8.43758C6.93254 7.78198 4.83022 7.2506 3.50948 7.57767C2.66483 7.78755 2.12084 8.16214 1.80126 8.55462C0.334442 10.3545 1.38648 13.0884 4.48423 13.0884C6.3158 13.0884 8.0802 12.0585 9.44772 10.3613C11.4874 11.3501 15.5257 13.0479 15.5257 13.0479V10.6282C15.5257 10.6282 15.0186 10.5874 12.7828 9.83238Z" fill="white"/>
</g>
<defs>
<clipPath id="clip0_9332_10059">
<rect width="15.5261" height="16" fill="white"/>
</clipPath>
</defs>
</svg>
