<svg width="23" height="16" viewBox="0 0 23 16" fill="none" xmlns="http://www.w3.org/2000/svg">
<g clip-path="url(#clip0_9319_29904)">
<g clip-path="url(#clip1_9319_29904)">
<path d="M20.934 0.639893H2.05914C1.98053 0.639893 1.90178 0.639893 1.82331 0.640351C1.75698 0.640823 1.6908 0.64156 1.62462 0.643365C1.48029 0.647269 1.33472 0.655784 1.1922 0.6814C1.04739 0.70746 0.912645 0.749968 0.781191 0.816896C0.65196 0.882616 0.533647 0.968576 0.431117 1.07115C0.328541 1.17372 0.242582 1.29184 0.176875 1.42121C0.109933 1.55267 0.0673976 1.68745 0.041518 1.83237C0.0157648 1.97494 0.00719239 2.12048 0.00330281 2.26465C0.00152472 2.33083 0.00076208 2.39701 0.000330059 2.46318C-0.000128356 2.54182 2.44488e-05 2.6204 2.44488e-05 2.69918V13.3008C2.44488e-05 13.3795 -0.000128356 13.458 0.000330059 13.5368C0.00076208 13.6029 0.00152472 13.6691 0.00330281 13.7353C0.00719239 13.8794 0.0157648 14.0249 0.041518 14.1674C0.0673976 14.3124 0.109933 14.4471 0.176875 14.5786C0.242582 14.708 0.328541 14.8262 0.431117 14.9286C0.533647 15.0314 0.65196 15.1173 0.781191 15.1829C0.912645 15.25 1.04739 15.2925 1.1922 15.3186C1.33472 15.344 1.48029 15.3527 1.62462 15.3566C1.6908 15.3581 1.75698 15.359 1.82331 15.3593C1.90178 15.3599 1.98053 15.3599 2.05914 15.3599H20.934C21.0125 15.3599 21.0912 15.3599 21.1697 15.3593C21.2359 15.359 21.3021 15.3581 21.3685 15.3566C21.5126 15.3527 21.6581 15.344 21.801 15.3186C21.9456 15.2925 22.0804 15.25 22.2118 15.1829C22.3412 15.1173 22.4592 15.0314 22.5619 14.9286C22.6643 14.8262 22.7503 14.708 22.8161 14.5786C22.8832 14.4471 22.9257 14.3124 22.9515 14.1674C22.9773 14.0249 22.9856 13.8794 22.9895 13.7353C22.9913 13.6691 22.9922 13.6029 22.9925 13.5368C22.9931 13.458 22.9931 13.3795 22.9931 13.3008V2.69918C22.9931 2.6204 22.9931 2.54182 22.9925 2.46318C22.9922 2.39701 22.9913 2.33083 22.9895 2.26465C22.9856 2.12048 22.9773 1.97494 22.9515 1.83237C22.9257 1.68745 22.8832 1.55267 22.8161 1.42121C22.7503 1.29184 22.6643 1.17372 22.5619 1.07115C22.4592 0.968576 22.3412 0.882616 22.2118 0.816896C22.0804 0.749968 21.9456 0.70746 21.801 0.6814C21.6581 0.655784 21.5126 0.647269 21.3685 0.643365C21.3021 0.64156 21.2359 0.640823 21.1697 0.640351C21.0912 0.639893 21.0125 0.639893 20.934 0.639893Z" fill="black"/>
<path d="M20.9336 1.1311L21.1658 1.13155C21.2287 1.13199 21.2916 1.13267 21.3548 1.1344C21.4649 1.13737 21.5936 1.14333 21.7135 1.16483C21.8178 1.18361 21.9053 1.21217 21.9892 1.2549C22.0721 1.29701 22.148 1.35218 22.2143 1.41838C22.2808 1.48501 22.3361 1.56106 22.3787 1.64483C22.4212 1.72811 22.4496 1.81516 22.4683 1.9202C22.4897 2.03886 22.4956 2.16791 22.4987 2.27861C22.5004 2.3411 22.5012 2.40358 22.5015 2.46755C22.5021 2.54491 22.5021 2.62223 22.5021 2.69974V13.3013C22.5021 13.3788 22.5021 13.456 22.5015 13.535C22.5012 13.5975 22.5004 13.66 22.4986 13.7226C22.4956 13.8331 22.4897 13.9621 22.468 14.0822C22.4496 14.1858 22.4212 14.2728 22.3785 14.3565C22.336 14.4401 22.2808 14.516 22.2146 14.5823C22.1479 14.6489 22.0722 14.704 21.9884 14.7464C21.9051 14.789 21.8178 14.8175 21.7145 14.8361C21.5921 14.8579 21.458 14.8639 21.357 14.8666C21.2935 14.8681 21.2302 14.8689 21.1655 14.8692C21.0883 14.8698 21.0108 14.8698 20.9336 14.8698H2.05872C2.05769 14.8698 2.05669 14.8698 2.05565 14.8698C1.97933 14.8698 1.90286 14.8698 1.82515 14.8692C1.76179 14.8689 1.69857 14.8681 1.63745 14.8667C1.53416 14.8639 1.39998 14.8579 1.27858 14.8362C1.17444 14.8175 1.08713 14.789 1.00273 14.7459C0.919673 14.7038 0.844061 14.6488 0.777369 14.582C0.71119 14.5159 0.656195 14.4402 0.613673 14.3565C0.57111 14.2729 0.542633 14.1856 0.523908 14.0808C0.502264 13.9609 0.496319 13.8325 0.493347 13.7227C0.491651 13.6598 0.490943 13.597 0.49054 13.5345L0.490234 13.35L0.490248 13.3013V2.69974L0.490234 2.65104L0.490526 2.46697C0.490943 2.40411 0.491651 2.34126 0.493347 2.27846C0.496319 2.16857 0.502264 2.04004 0.524088 1.91922C0.542646 1.81532 0.57111 1.728 0.613895 1.64397C0.656083 1.56092 0.711177 1.4851 0.777704 1.41859C0.843965 1.3523 0.919825 1.29719 1.00341 1.25468C1.08691 1.21216 1.17438 1.18361 1.27853 1.16487C1.39852 1.14331 1.52731 1.13737 1.63761 1.13438C1.70048 1.13267 1.76335 1.13199 1.82575 1.13156L2.05872 1.1311H20.9336Z" fill="white"/>
<path d="M6.27739 5.59102C6.47426 5.34478 6.60786 5.01414 6.57262 4.67627C6.28443 4.6906 5.93274 4.8664 5.72913 5.11284C5.54631 5.32388 5.3845 5.66836 5.42668 5.99207C5.7502 6.02013 6.07341 5.83036 6.27739 5.59102Z" fill="black"/>
<path d="M6.56914 6.05485C6.09932 6.02687 5.69986 6.3215 5.47549 6.3215C5.25101 6.3215 4.90743 6.06896 4.53583 6.07576C4.05216 6.08287 3.60338 6.35633 3.35794 6.79128C2.85311 7.66138 3.22472 8.95204 3.71563 9.66069C3.95403 10.0113 4.24135 10.3973 4.61993 10.3834C4.97762 10.3694 5.11782 10.1518 5.55262 10.1518C5.98709 10.1518 6.11338 10.3834 6.49202 10.3764C6.88468 10.3694 7.13017 10.0257 7.36856 9.67472C7.64205 9.27507 7.75401 8.88917 7.76105 8.86798C7.75401 8.86097 7.00389 8.5732 6.99694 7.71034C6.98986 6.98784 7.58586 6.64419 7.61391 6.62287C7.27734 6.12508 6.75146 6.06896 6.56914 6.05485Z" fill="black"/>
<path d="M10.6606 5.07739C11.6817 5.07739 12.3928 5.78128 12.3928 6.80609C12.3928 7.83455 11.6671 8.5421 10.635 8.5421H9.50436V10.3401H8.6875V5.07739L10.6606 5.07739ZM9.50436 7.85643H10.4417C11.1529 7.85643 11.5576 7.47353 11.5576 6.80974C11.5576 6.14603 11.1529 5.76672 10.4453 5.76672H9.50436V7.85643Z" fill="black"/>
<path d="M12.6074 9.24938C12.6074 8.57828 13.1217 8.16619 14.0335 8.11512L15.0838 8.05314V7.75776C15.0838 7.33104 14.7956 7.07575 14.3143 7.07575C13.8583 7.07575 13.5738 7.29453 13.5046 7.6374H12.7606C12.8044 6.94441 13.3952 6.43384 14.3434 6.43384C15.2734 6.43384 15.8678 6.92619 15.8678 7.69571V10.3398H15.1129V9.70889H15.0947C14.8723 10.1356 14.3872 10.4055 13.8839 10.4055C13.1326 10.4055 12.6074 9.93864 12.6074 9.24938ZM15.0838 8.90293V8.60023L14.1391 8.65855C13.6687 8.6914 13.4025 8.89927 13.4025 9.22751C13.4025 9.56299 13.6796 9.78184 14.1027 9.78184C14.6534 9.78184 15.0838 9.40253 15.0838 8.90293Z" fill="black"/>
<path d="M16.5805 11.7515V11.1133C16.6387 11.1279 16.77 11.1279 16.8357 11.1279C17.2004 11.1279 17.3973 10.9747 17.5176 10.5808C17.5176 10.5735 17.587 10.3474 17.587 10.3438L16.2012 6.50342H17.0545L18.0247 9.62532H18.0392L19.0094 6.50342H19.8409L18.4039 10.5407C18.0758 11.4707 17.6965 11.7698 16.9014 11.7698C16.8357 11.7698 16.6387 11.7624 16.5805 11.7515Z" fill="black"/>
</g>
</g>
<defs>
<clipPath id="clip0_9319_29904">
<rect width="22.9931" height="16" fill="white"/>
</clipPath>
<clipPath id="clip1_9319_29904">
<rect width="22.9931" height="14.72" fill="white" transform="translate(0 0.639893)"/>
</clipPath>
</defs>
</svg>
