<svg width="22" height="16" viewBox="0 0 22 16" fill="none" xmlns="http://www.w3.org/2000/svg">
<g clip-path="url(#clip0_9332_10105)">
<path d="M0 14.7025V11.5593H0.969892C1.67486 11.5593 2.12838 11.8242 2.12838 12.3721C2.12838 12.6819 1.98469 12.8974 1.78263 13.0231C2.07449 13.1578 2.24511 13.4183 2.24511 13.773C2.24511 14.4061 1.78263 14.7025 1.06419 14.7025L0 14.7025ZM0.624142 12.866H1.08664C1.36952 12.866 1.49077 12.7268 1.49077 12.4708C1.49077 12.1969 1.27074 12.1071 0.974378 12.1071H0.624142V12.866ZM0.624142 14.1547H1.0103C1.38749 14.1547 1.6075 14.0604 1.6075 13.764C1.6075 13.4722 1.41892 13.3509 1.06419 13.3509H0.624142V14.1547ZM3.45549 14.7564C2.84033 14.7564 2.53049 14.4555 2.53049 14.0514C2.53049 13.6069 2.89421 13.3464 3.43304 13.3419C3.56693 13.3444 3.70048 13.3564 3.83267 13.3779V13.2701C3.83267 12.9962 3.67551 12.866 3.37467 12.866C3.172 12.8634 2.97075 12.9 2.78195 12.9738L2.6697 12.4888C2.86278 12.408 3.1726 12.3541 3.44651 12.3541C4.10657 12.3541 4.43436 12.7043 4.43436 13.3105V14.5588C4.25026 14.6531 3.90451 14.7564 3.45549 14.7564ZM3.83267 14.249V13.7685C3.72798 13.7452 3.62111 13.7332 3.51387 13.7326C3.30731 13.7326 3.14566 13.8134 3.14566 14.0245C3.14566 14.2131 3.28037 14.3118 3.51835 14.3118C3.62657 14.3154 3.73414 14.2939 3.83267 14.249ZM4.87062 14.7025V12.5517C5.1933 12.422 5.53768 12.355 5.88542 12.3541C6.54098 12.3541 6.91817 12.6774 6.91817 13.2746V14.7025H6.29851V13.3195C6.29851 13.0097 6.15482 12.866 5.88092 12.866C5.74491 12.8641 5.61011 12.8916 5.48577 12.9468V14.7025L4.87062 14.7025ZM9.08364 12.4888L8.96689 12.9782C8.80648 12.9087 8.63424 12.8706 8.45949 12.866C8.09579 12.866 7.89821 13.1219 7.89821 13.544C7.89821 14.0065 8.10476 14.2445 8.49093 14.2445C8.66326 14.2398 8.83284 14.2 8.98934 14.1277L9.08812 14.6262C8.88481 14.7166 8.66402 14.7611 8.44153 14.7564C7.69615 14.7564 7.26509 14.2939 7.26509 13.562C7.26509 12.8345 7.69166 12.3541 8.40562 12.3541C8.63838 12.3529 8.86899 12.3988 9.08364 12.4888ZM10.4223 14.7564C9.73079 14.7564 9.29973 14.2759 9.29973 13.553C9.29973 12.8345 9.73079 12.3541 10.4223 12.3541C11.1183 12.3541 11.5404 12.8345 11.5404 13.553C11.5404 14.2759 11.1183 14.7564 10.4223 14.7564ZM10.4223 14.2445C10.7411 14.2445 10.9072 13.9796 10.9072 13.553C10.9072 13.1309 10.7411 12.866 10.4223 12.866C10.108 12.866 9.93285 13.1309 9.93285 13.553C9.93285 13.9796 10.108 14.2445 10.4223 14.2445ZM11.8989 14.7025V12.5517C12.2216 12.422 12.566 12.355 12.9137 12.3541C13.5693 12.3541 13.9465 12.6774 13.9465 13.2746V14.7025H13.3268V13.3195C13.3268 13.0097 13.1831 12.866 12.9092 12.866C12.7732 12.8641 12.6384 12.8916 12.5141 12.9468V14.7025L11.8989 14.7025ZM15.3439 14.7564C14.8096 14.7564 14.5357 14.4645 14.5357 13.8718V12.9019H14.2304V12.408H14.5357V11.9096L15.1554 11.8781V12.408H15.6538V12.9019H15.1554V13.8628C15.1554 14.1233 15.2631 14.2445 15.4652 14.2445C15.5453 14.2443 15.6251 14.2353 15.7032 14.2176L15.7346 14.716C15.6064 14.7444 15.4753 14.7579 15.3439 14.7564ZM16.908 14.7564C16.2928 14.7564 15.983 14.4555 15.983 14.0514C15.983 13.6069 16.3467 13.3464 16.8855 13.3419C17.0194 13.3444 17.153 13.3564 17.2852 13.3779V13.2701C17.2852 12.9962 17.128 12.866 16.8272 12.866C16.6245 12.8634 16.4233 12.9 16.2345 12.9738L16.1222 12.4888C16.3153 12.408 16.6251 12.3541 16.899 12.3541C17.5591 12.3541 17.8869 12.7043 17.8869 13.3105V14.5588C17.7028 14.6531 17.357 14.7564 16.908 14.7564ZM17.2852 14.249V13.7685C17.1805 13.7452 17.0736 13.7332 16.9664 13.7326C16.7598 13.7326 16.5982 13.8134 16.5982 14.0245C16.5982 14.2131 16.7329 14.3118 16.9709 14.3118C17.0791 14.3154 17.1866 14.2939 17.2852 14.249ZM20.0069 12.4888L19.8902 12.9782C19.7298 12.9087 19.5575 12.8706 19.3828 12.866C19.0191 12.866 18.8215 13.1219 18.8215 13.544C18.8215 14.0065 19.028 14.2445 19.4142 14.2445C19.5865 14.2398 19.7561 14.2 19.9126 14.1277L20.0114 14.6262C19.8081 14.7166 19.5873 14.7611 19.3648 14.7564C18.6194 14.7564 18.1884 14.2939 18.1884 13.562C18.1884 12.8345 18.6149 12.3541 19.3289 12.3541C19.5617 12.3529 19.7923 12.3988 20.0069 12.4888ZM21.3693 14.7564C20.835 14.7564 20.561 14.4645 20.561 13.8718V12.9019H20.2557V12.408H20.561V11.9096L21.1807 11.8781V12.408H21.6791V12.9019H21.1807V13.8628C21.1807 14.1233 21.2885 14.2445 21.4905 14.2445C21.5706 14.2443 21.6504 14.2353 21.7285 14.2176L21.7599 14.716C21.6317 14.7444 21.5006 14.7579 21.3693 14.7564Z" fill="#1E3764"/>
<path d="M4.32221 9.98733C7.60109 9.98733 9.24053 7.80141 10.88 5.61548H0V9.98733H4.32221Z" fill="url(#paint0_linear_9332_10105)"/>
<path d="M17.4367 1.24316C14.1578 1.24316 12.5183 3.42909 10.8789 5.61502H21.7589V1.24316H17.4367Z" fill="url(#paint1_linear_9332_10105)"/>
</g>
<defs>
<linearGradient id="paint0_linear_9332_10105" x1="2.20067" y1="8.00323" x2="10.1598" y2="5.04697" gradientUnits="userSpaceOnUse">
<stop stop-color="#005AB9"/>
<stop offset="1" stop-color="#1E3764"/>
</linearGradient>
<linearGradient id="paint1_linear_9332_10105" x1="11.5377" y1="5.9942" x2="19.9886" y2="3.11093" gradientUnits="userSpaceOnUse">
<stop stop-color="#FBA900"/>
<stop offset="1" stop-color="#FFD800"/>
</linearGradient>
<clipPath id="clip0_9332_10105">
<rect width="21.7599" height="16" fill="white"/>
</clipPath>
</defs>
</svg>
