<svg width="28" height="16" viewBox="0 0 28 16" fill="none" xmlns="http://www.w3.org/2000/svg">
<g clip-path="url(#clip0_9332_10116)">
<g clip-path="url(#clip1_9332_10116)">
<path d="M25.3072 0.800049H2.29278C1.02651 0.800049 0 1.81797 0 3.07364V12.9265C0 14.1821 1.02651 15.2 2.29278 15.2H25.3072C26.5735 15.2 27.6 14.1821 27.6 12.9265V3.07364C27.6 1.81797 26.5735 0.800049 25.3072 0.800049Z" fill="url(#paint0_linear_9332_10116)"/>
<path d="M13.2368 2.95337H11.3652V13.3509H13.2368V2.95337Z" fill="white"/>
<path d="M16.7095 6.46387H14.8379V13.3508H16.7095V6.46387Z" fill="white"/>
<path d="M25.0978 13.3509L22.2855 9.70616L24.8723 6.46393H22.6625L20.1821 9.60957V2.95337H18.3105V13.3509H20.1821V9.81528L22.6625 13.3509H25.0978Z" fill="white"/>
<path d="M6.59399 6.38611C5.98607 6.38611 5.41422 6.53816 4.91454 6.8047V2.95337H3.04297V9.90741C3.04297 11.8527 4.63313 13.4296 6.59489 13.4296C8.55665 13.4296 10.1468 11.8527 10.1468 9.90741C10.1468 7.96206 8.55665 6.38522 6.59489 6.38522L6.59399 6.38611ZM6.59399 11.5737C5.66587 11.5737 4.91454 10.8278 4.91454 9.9083C4.91454 8.98885 5.66677 8.24291 6.59399 8.24291C7.5212 8.24291 8.27344 8.98885 8.27344 9.9083C8.27344 10.8278 7.5212 11.5737 6.59399 11.5737Z" fill="white"/>
<path d="M8.42253 5.74828C9.34409 5.74828 10.0912 5.00747 10.0912 4.09362C10.0912 3.17978 9.34409 2.43896 8.42253 2.43896C7.50098 2.43896 6.75391 3.17978 6.75391 4.09362C6.75391 5.00747 7.50098 5.74828 8.42253 5.74828Z" fill="url(#paint1_radial_9332_10116)"/>
</g>
</g>
<defs>
<linearGradient id="paint0_linear_9332_10116" x1="13.8" y1="15.2" x2="13.8" y2="0.800049" gradientUnits="userSpaceOnUse">
<stop stop-color="#262626"/>
<stop offset="1"/>
</linearGradient>
<radialGradient id="paint1_radial_9332_10116" cx="0" cy="0" r="1" gradientUnits="userSpaceOnUse" gradientTransform="translate(7.06508 2.34952) scale(5.47039 5.4246)">
<stop stop-color="#FF0000"/>
<stop offset="0.49" stop-color="#E83E49"/>
<stop offset="1" stop-color="#FF00FF"/>
</radialGradient>
<clipPath id="clip0_9332_10116">
<rect width="27.6" height="16" fill="white"/>
</clipPath>
<clipPath id="clip1_9332_10116">
<rect width="27.6" height="14.4" fill="white" transform="translate(0 0.800049)"/>
</clipPath>
</defs>
</svg>
