<svg width="33" height="16" viewBox="0 0 33 16" fill="none" xmlns="http://www.w3.org/2000/svg">
<g clip-path="url(#clip0_9332_10137)">
<g clip-path="url(#clip1_9332_10137)">
<rect width="32.2174" height="14.4" transform="translate(0 0.800049)" fill="white"/>
<path fill-rule="evenodd" clip-rule="evenodd" d="M2.21484 0.800049H3.74874V15.169H2.21484V0.800049Z" fill="#231F20"/>
<path fill-rule="evenodd" clip-rule="evenodd" d="M4.23438 0.800049H4.70808V15.169H4.23438V0.800049Z" fill="#231F20"/>
<path fill-rule="evenodd" clip-rule="evenodd" d="M5.12305 0.800049H5.97458V15.169H5.12305V0.800049Z" fill="#231F20"/>
<path fill-rule="evenodd" clip-rule="evenodd" d="M6.79297 0.800049H7.26949V15.169H6.79297V0.800049Z" fill="#231F20"/>
<path fill-rule="evenodd" clip-rule="evenodd" d="M7.47656 0.800049H7.84312V15.169H7.47656V0.800049Z" fill="#231F20"/>
<path fill-rule="evenodd" clip-rule="evenodd" d="M1.04688 0.800049H1.5234V15.169H1.04688V0.800049Z" fill="#231F20"/>
<path fill-rule="evenodd" clip-rule="evenodd" d="M0 0.800049H0.851537V15.169H0V0.800049Z" fill="#231F20"/>
<path fill-rule="evenodd" clip-rule="evenodd" d="M10.3828 0.800049H11.9195V15.169H10.3828V0.800049Z" fill="#231F20"/>
<path fill-rule="evenodd" clip-rule="evenodd" d="M12.4023 0.800049H12.8789V15.169H12.4023V0.800049Z" fill="#231F20"/>
<path fill-rule="evenodd" clip-rule="evenodd" d="M13.293 0.800049H14.1445V15.169H13.293V0.800049Z" fill="#231F20"/>
<path fill-rule="evenodd" clip-rule="evenodd" d="M14.9648 0.800049H15.4385V15.169H14.9648V0.800049Z" fill="#231F20"/>
<path fill-rule="evenodd" clip-rule="evenodd" d="M15.6484 0.800049H16.015V15.169H15.6484V0.800049Z" fill="#231F20"/>
<path fill-rule="evenodd" clip-rule="evenodd" d="M9.21875 0.800049H9.69245V15.169H9.21875V0.800049Z" fill="#231F20"/>
<path fill-rule="evenodd" clip-rule="evenodd" d="M8.16992 0.800049H9.02146V15.169H8.16992V0.800049Z" fill="#231F20"/>
<path fill-rule="evenodd" clip-rule="evenodd" d="M16.6172 0.800049H17.4659V15.169H16.6172V0.800049Z" fill="#231F20"/>
<path fill-rule="evenodd" clip-rule="evenodd" d="M18.2891 0.800049H18.7656V15.169H18.2891V0.800049Z" fill="#231F20"/>
<path fill-rule="evenodd" clip-rule="evenodd" d="M18.9727 0.800049H19.3364V15.169H18.9727V0.800049Z" fill="#231F20"/>
<path fill-rule="evenodd" clip-rule="evenodd" d="M20.7129 0.800049H21.1894V15.169H20.7129V0.800049Z" fill="#231F20"/>
<path fill-rule="evenodd" clip-rule="evenodd" d="M19.6621 0.800049H20.5136V15.169H19.6621V0.800049Z" fill="#231F20"/>
<path fill-rule="evenodd" clip-rule="evenodd" d="M21.8203 0.800049H22.2968V15.169H21.8203V0.800049Z" fill="#231F20"/>
<path fill-rule="evenodd" clip-rule="evenodd" d="M22.502 0.800049H22.8685V15.169H22.502V0.800049Z" fill="#231F20"/>
<path fill-rule="evenodd" clip-rule="evenodd" d="M24.2422 0.800049H24.7187V15.169H24.2422V0.800049Z" fill="#231F20"/>
<path fill-rule="evenodd" clip-rule="evenodd" d="M23.1934 0.800049H24.0449V15.169H23.1934V0.800049Z" fill="#231F20"/>
<path fill-rule="evenodd" clip-rule="evenodd" d="M25.1328 0.800049H26.6667V15.169H25.1328V0.800049Z" fill="#231F20"/>
<path fill-rule="evenodd" clip-rule="evenodd" d="M27.1523 0.800049H27.626V15.169H27.1523V0.800049Z" fill="#231F20"/>
<path fill-rule="evenodd" clip-rule="evenodd" d="M28.041 0.800049H28.8926V15.169H28.041V0.800049Z" fill="#231F20"/>
<path fill-rule="evenodd" clip-rule="evenodd" d="M29.7109 0.800049H30.1875V15.169H29.7109V0.800049Z" fill="#231F20"/>
<path fill-rule="evenodd" clip-rule="evenodd" d="M30.3926 0.800049H30.7591V15.169H30.3926V0.800049Z" fill="#231F20"/>
<path fill-rule="evenodd" clip-rule="evenodd" d="M31.3652 0.800049H32.2168V15.169H31.3652V0.800049Z" fill="#231F20"/>
<path fill-rule="evenodd" clip-rule="evenodd" d="M1.73438 15.1999H31.1462V7.14697H1.73438V15.1999Z" fill="white"/>
<path d="M2.28906 14.8924V7.60645H5.02413C5.5796 7.60645 6.02511 7.67976 6.36347 7.82638C6.69901 7.973 6.96124 8.20139 7.15297 8.50874C7.34471 8.81326 7.44058 9.1347 7.44058 9.47024C7.44058 9.7804 7.35599 10.0736 7.18681 10.35C7.01763 10.6235 6.76386 10.8462 6.42268 11.0154C6.86255 11.1451 7.20373 11.3651 7.43776 11.678C7.67461 11.9882 7.79304 12.3576 7.79304 12.7805C7.79304 13.1217 7.71973 13.4403 7.57592 13.7336C7.43212 14.0268 7.25448 14.2524 7.04301 14.4131C6.83153 14.571 6.56367 14.6922 6.24504 14.774C5.9236 14.8558 5.53167 14.8953 5.06925 14.8953H2.28906V14.8924ZM3.25621 10.6686H4.83239C5.26098 10.6686 5.56551 10.6404 5.7516 10.584C5.99691 10.5107 6.18301 10.3894 6.30708 10.2203C6.43114 10.0511 6.49317 9.83962 6.49317 9.58303C6.49317 9.34054 6.43678 9.12624 6.31836 8.94296C6.20275 8.75687 6.03639 8.62998 5.8221 8.56231C5.6078 8.49464 5.23561 8.4608 4.71397 8.4608H3.25621V10.6686ZM3.25621 14.0381H5.07207C5.38505 14.0381 5.60216 14.0268 5.72905 14.0014C5.94898 13.962 6.13508 13.8971 6.28452 13.8041C6.43396 13.711 6.55521 13.5757 6.65389 13.398C6.74976 13.2204 6.7977 13.0146 6.7977 12.7833C6.7977 12.5098 6.72721 12.2758 6.58622 12.0728C6.44806 11.8698 6.2535 11.7316 6.00537 11.6498C5.76006 11.5681 5.40197 11.5286 4.93954 11.5286H3.25339V14.0409L3.25621 14.0381Z" fill="#231F20"/>
<path d="M8.66797 12.2503C8.66797 11.2747 8.93866 10.5528 9.48285 10.082C9.93682 9.69285 10.4895 9.49829 11.1436 9.49829C11.8683 9.49829 12.4604 9.73514 12.9228 10.2117C13.3824 10.6854 13.6137 11.3423 13.6137 12.177C13.6137 12.8565 13.5121 13.3866 13.3091 13.7757C13.1061 14.1648 12.81 14.4665 12.4181 14.6808C12.029 14.8951 11.6032 15.0023 11.1436 15.0023C10.4049 15.0023 9.80711 14.7654 9.35033 14.2945C8.89354 13.8208 8.66797 13.1385 8.66797 12.2503ZM9.58436 12.2531C9.58436 12.927 9.73098 13.4345 10.027 13.7673C10.3231 14.1028 10.6953 14.272 11.1436 14.272C11.592 14.272 11.9585 14.1028 12.2546 13.7673C12.5506 13.4289 12.6973 12.9157 12.6973 12.2249C12.6973 11.5736 12.5478 11.0801 12.2518 10.7474C11.9557 10.4119 11.5863 10.2427 11.1436 10.2427C10.7009 10.2427 10.3231 10.409 10.027 10.7418C9.73098 11.0745 9.58436 11.5792 9.58436 12.2531Z" fill="#231F20"/>
<path d="M14.6445 14.8929V7.60693H15.5412V14.8929H14.6445Z" fill="#231F20"/>
<path d="M20.5285 13.1803L21.4533 13.3015C21.3095 13.8401 21.0389 14.2574 20.6469 14.5563C20.2522 14.8523 19.7503 15.0018 19.1384 15.0018C18.3686 15.0018 17.7568 14.7649 17.3056 14.2884C16.8545 13.8147 16.6289 13.1493 16.6289 12.2921C16.6289 11.4349 16.8573 10.7187 17.3113 10.2309C17.768 9.74029 18.3602 9.4978 19.0876 9.4978C19.8151 9.4978 20.3678 9.73747 20.8133 10.2168C21.2588 10.6962 21.4844 11.3729 21.4844 12.2413C21.4844 12.2949 21.4844 12.3739 21.4787 12.4782H17.5453C17.5791 13.0562 17.7427 13.5017 18.0359 13.8091C18.3292 14.1164 18.6985 14.2715 19.1356 14.2715C19.4627 14.2715 19.7418 14.1841 19.973 14.0121C20.2042 13.8401 20.3875 13.5638 20.5257 13.1831L20.5285 13.1803ZM17.596 11.7479H20.537C20.4975 11.3024 20.3847 10.9725 20.1986 10.7497C19.9166 10.4057 19.5444 10.2337 19.0933 10.2337C18.6816 10.2337 18.3376 10.3719 18.0585 10.6454C17.7793 10.9189 17.6271 11.2883 17.596 11.7507V11.7479Z" fill="#231F20"/>
<path d="M24.5301 14.0917L24.6514 14.8812C24.4004 14.9348 24.1749 14.9602 23.9775 14.9602C23.6532 14.9602 23.4023 14.9094 23.2218 14.8051C23.0442 14.7008 22.9173 14.5682 22.844 14.3991C22.7707 14.2299 22.7368 13.8774 22.7368 13.3417V10.2993H22.0742V9.60846H22.7368V8.30296L23.6335 7.7644V9.60846H24.5301V10.2993H23.6335V13.3924C23.6335 13.649 23.6476 13.8126 23.6814 13.8859C23.7124 13.9592 23.7632 14.0156 23.8337 14.0607C23.9042 14.103 24.0057 14.1256 24.1382 14.1256C24.2369 14.1256 24.3666 14.1143 24.5273 14.0889L24.5301 14.0917Z" fill="#231F20"/>
<path d="M25.0762 12.2503C25.0762 11.2747 25.3469 10.5528 25.8911 10.082C26.345 9.69285 26.8977 9.49829 27.5518 9.49829C28.2765 9.49829 28.8686 9.73514 29.331 10.2117C29.7906 10.6854 30.0219 11.3423 30.0219 12.177C30.0219 12.8565 29.9203 13.3866 29.7173 13.7757C29.5143 14.1648 29.2182 14.4665 28.8263 14.6808C28.4372 14.8951 28.0114 15.0023 27.5518 15.0023C26.8131 15.0023 26.2153 14.7654 25.7585 14.2945C25.3017 13.8208 25.0762 13.1385 25.0762 12.2503ZM25.9926 12.2531C25.9926 12.927 26.1392 13.4345 26.4352 13.7673C26.7313 14.1028 27.1035 14.272 27.5518 14.272C28.0002 14.272 28.3667 14.1028 28.6628 13.7673C28.9588 13.4289 29.1055 12.9157 29.1055 12.2249C29.1055 11.5736 28.956 11.0801 28.66 10.7474C28.3639 10.4119 27.9945 10.2427 27.5518 10.2427C27.1091 10.2427 26.7313 10.409 26.4352 10.7418C26.1392 11.0745 25.9926 11.5792 25.9926 12.2531Z" fill="#231F20"/>
</g>
</g>
<defs>
<clipPath id="clip0_9332_10137">
<rect width="32.2174" height="16" fill="white"/>
</clipPath>
<clipPath id="clip1_9332_10137">
<rect width="32.2174" height="14.4" fill="white" transform="translate(0 0.800049)"/>
</clipPath>
</defs>
</svg>
