<svg width="23" height="16" viewBox="0 0 23 16" fill="none" xmlns="http://www.w3.org/2000/svg">
<g clip-path="url(#clip0_9319_29930)">
<g clip-path="url(#clip1_9319_29930)">
<path d="M20 0H2.66667C1.19391 0 0 1.19391 0 2.66667V13.3333C0 14.8061 1.19391 16 2.66667 16H20C21.4728 16 22.6667 14.8061 22.6667 13.3333V2.66667C22.6667 1.19391 21.4728 0 20 0Z" fill="#00D64F"/>
<path d="M11.8701 7.04955C13.5558 7.41081 14.3264 8.10915 14.3264 9.28915C14.3264 10.7684 13.1218 11.8603 11.2415 11.9759L11.058 12.8509C11.0401 12.9364 10.9646 12.9977 10.8773 12.9977H9.43063C9.31143 12.9977 9.22343 12.8863 9.25096 12.7703L9.48316 11.7919C8.55109 11.5267 7.80109 11.0108 7.36383 10.374C7.30883 10.2939 7.32709 10.1843 7.40383 10.1246L8.41496 9.33821C8.49829 9.27341 8.61776 9.29241 8.67936 9.37815C9.21509 10.1238 10.037 10.5655 11.0272 10.5655C11.9182 10.5655 12.5925 10.132 12.5925 9.50588C12.5925 9.02421 12.2554 8.80748 11.1236 8.56668C9.17296 8.15728 8.40236 7.43488 8.40236 6.25487C8.40236 4.88578 9.55296 3.85155 11.2886 3.71723L11.4781 2.81351C11.496 2.72799 11.5714 2.66675 11.6588 2.66675H13.086C13.2038 2.66675 13.2914 2.77545 13.2665 2.89051L13.0471 3.90309C13.794 4.13298 14.4021 4.54404 14.7806 5.05128C14.8393 5.12991 14.8242 5.24124 14.7484 5.30345L13.8259 6.05989C13.7457 6.12563 13.6287 6.11127 13.5635 6.03066C13.0946 5.45077 12.3566 5.12305 11.557 5.12305C10.666 5.12305 10.1122 5.50835 10.1122 6.06223C10.1122 6.51977 10.5456 6.76061 11.8701 7.04955Z" fill="white"/>
</g>
</g>
<defs>
<clipPath id="clip0_9319_29930">
<rect width="22.6667" height="16" fill="white"/>
</clipPath>
<clipPath id="clip1_9319_29930">
<rect width="22.6667" height="16" fill="white"/>
</clipPath>
</defs>
</svg>
