<svg width="37" height="16" viewBox="0 0 37 16" fill="none" xmlns="http://www.w3.org/2000/svg">
<g clip-path="url(#clip0_9332_10183)">
<g clip-path="url(#clip1_9332_10183)">
<path fill-rule="evenodd" clip-rule="evenodd" d="M14.4293 10.6973C15.1231 10.747 15.9316 10.208 16.2164 9.90024C17.2065 8.82892 17.2304 7.27977 16.2336 6.1578C15.8628 5.74017 14.9912 5.27857 14.4398 5.34356H12.4434V10.6906L14.434 10.6973H14.4293ZM13.5691 9.53899V6.49515C13.8816 6.47465 14.1951 6.47465 14.5076 6.49515C14.7535 6.52366 14.988 6.61445 15.189 6.75892C16.3358 7.54258 15.858 9.41093 14.4885 9.53613C14.1825 9.55764 13.8753 9.5586 13.5691 9.53899Z" fill="#008CEB"/>
<path fill-rule="evenodd" clip-rule="evenodd" d="M31.9546 10.7075H33.0928V9.55493H35.3511L35.3578 10.7017H36.496V8.80185C36.496 8.22844 36.5438 7.51359 36.4004 6.99466C36.2702 6.51959 35.9882 6.10015 35.5974 5.80032C35.2066 5.50048 34.7284 5.33673 34.2358 5.33402C33.7432 5.33131 33.2633 5.48981 32.8692 5.78532C32.4751 6.08084 32.1885 6.49716 32.053 6.97077C31.9001 7.48301 31.9517 8.21793 31.9517 8.78656C31.9517 9.42878 31.945 10.0748 31.9517 10.717L31.9546 10.7075ZM33.0938 8.39569C33.0871 7.91785 33.0364 7.40656 33.261 7.03862C33.3596 6.86923 33.5013 6.72896 33.6717 6.6321C33.8421 6.53525 34.0351 6.48525 34.231 6.48719C34.426 6.48863 34.6173 6.54064 34.7861 6.63813C34.955 6.73562 35.0956 6.87526 35.1944 7.0434C35.4161 7.42567 35.3635 7.90351 35.3578 8.39664L33.0938 8.39569Z" fill="#008CEB"/>
<path fill-rule="evenodd" clip-rule="evenodd" d="M18.939 10.7072H20.0734C20.0734 10.4663 20.0428 9.72951 20.0839 9.55462H22.3336L22.3412 10.7062H23.4775C23.4718 10.0678 23.4775 9.43038 23.4775 8.79486C23.4775 8.25012 23.5282 7.47029 23.382 6.98671C23.2509 6.51226 22.9685 6.09361 22.5776 5.79447C22.1867 5.49534 21.7088 5.33211 21.2166 5.32962C20.7244 5.32713 20.2448 5.48552 19.8509 5.78069C19.4571 6.07585 19.1704 6.49163 19.0346 6.96473C18.8826 7.46168 18.9342 8.22145 18.9342 8.77479C18.9342 9.41318 18.9199 10.0678 18.9342 10.7043L18.939 10.7072ZM20.0744 8.39634C20.0667 7.9185 20.018 7.40052 20.2426 7.04023C20.3411 6.87127 20.4822 6.7311 20.6518 6.63368C20.8214 6.53625 21.0136 6.48499 21.2092 6.48499C21.4048 6.48499 21.597 6.53625 21.7666 6.63368C21.9362 6.7311 22.0773 6.87127 22.1759 7.04023C22.3986 7.4225 22.345 7.90799 22.3412 8.39443L20.0744 8.39634Z" fill="#008CEB"/>
<path fill-rule="evenodd" clip-rule="evenodd" d="M25.476 7.43201L25.4598 8.22809C25.4598 8.89707 25.4273 10.1461 25.4598 10.6899H26.5722C26.598 10.3076 26.532 7.59256 26.6018 7.5056C26.6018 6.97806 27.1532 6.48684 27.7094 6.48493C27.9985 6.48319 28.2769 6.59427 28.4854 6.79457C28.6269 6.92359 28.8438 7.21794 28.84 7.51515C28.8916 7.54478 28.8505 10.3822 28.8668 10.6966H29.9801L29.9715 7.45208C29.9992 7.19787 29.8463 6.80508 29.7479 6.6063C29.5653 6.22755 29.2804 5.90747 28.9253 5.68232C28.5702 5.45717 28.1592 5.33594 27.7388 5.33236C27.3183 5.32878 26.9053 5.44299 26.5464 5.66206C26.1876 5.88113 25.8972 6.19631 25.7082 6.5719C25.6127 6.76781 25.4521 7.17111 25.476 7.43201Z" fill="#008CEB"/>
<path d="M5.21897 13.2192C8.10132 13.2192 10.4379 10.8826 10.4379 8.00022C10.4379 5.11786 8.10132 2.78125 5.21897 2.78125C2.33661 2.78125 0 5.11786 0 8.00022C0 10.8826 2.33661 13.2192 5.21897 13.2192Z" fill="#008CEB"/>
<path d="M8.25931 8.02139V9.49026C8.25931 9.58583 8.21822 9.6059 8.13794 9.55907C8.03055 9.49463 7.91878 9.43779 7.80345 9.38896C7.45514 9.2502 7.07786 9.19996 6.70538 9.24274C6.29883 9.29548 5.89983 9.39555 5.51651 9.54092C5.13424 9.66993 4.75961 9.80946 4.3697 9.91745C4.04674 10.0134 3.71065 10.0575 3.37388 10.0484C3.00066 10.0339 2.63794 9.9208 2.32263 9.72058C2.28301 9.69672 2.25051 9.66269 2.22849 9.62202C2.20648 9.58135 2.19576 9.53553 2.19744 9.48931C2.19744 8.52726 2.19744 7.56521 2.19744 6.60316C2.19744 6.55633 2.19744 6.5009 2.23949 6.47701C2.28154 6.45312 2.32454 6.4923 2.36086 6.51619C2.70325 6.7477 3.10877 6.86785 3.52201 6.86023C3.81749 6.84811 4.10971 6.79372 4.38977 6.69872C4.78733 6.57544 5.17151 6.41202 5.56238 6.27345C5.86665 6.15652 6.17863 6.06072 6.49608 5.98674C6.76854 5.92294 7.05125 5.91624 7.32642 5.96706C7.60158 6.01789 7.86325 6.12513 8.09494 6.28205C8.14805 6.31459 8.19155 6.3607 8.22094 6.41562C8.25033 6.47055 8.26457 6.53231 8.26218 6.59456C8.26218 7.0724 8.26218 7.55024 8.26218 8.02807L8.25931 8.02139Z" fill="#FEFEFE"/>
</g>
</g>
<defs>
<clipPath id="clip0_9332_10183">
<rect width="36.507" height="16" fill="white"/>
</clipPath>
<clipPath id="clip1_9332_10183">
<rect width="36.507" height="10.4379" fill="white" transform="translate(0 2.78101)"/>
</clipPath>
</defs>
</svg>
