<svg width="24" height="16" viewBox="0 0 24 16" fill="none" xmlns="http://www.w3.org/2000/svg">
<g clip-path="url(#clip0_9332_10229)">
<g clip-path="url(#clip1_9332_10229)">
<path d="M21.0298 8.27071H18.8938C18.6563 8.27071 18.4631 8.08135 18.4631 7.84456C18.4631 7.60776 18.6563 7.39887 18.8938 7.39887H22.1458V5.79468H18.8938C17.7586 5.79468 16.8352 6.71988 16.8352 7.85223C16.8352 8.98458 17.7586 9.90978 18.8938 9.90978H21.0009C21.2383 9.90978 21.4319 10.0984 21.4319 10.3352C21.4319 10.572 21.2387 10.7467 21.0009 10.7467H16.4826C16.099 11.4791 15.7259 12.1068 14.9688 12.4207H21.0298C22.1458 12.4046 23.0588 11.4603 23.0588 10.338C23.0588 9.21579 22.1458 8.28676 21.0298 8.27071Z" fill="#71706F"/>
<path d="M12.8417 5.79492C11.0315 5.79492 9.55664 7.27845 9.55664 9.10095V15.9781H11.1957V12.4209H12.8383C14.6489 12.4209 16.1181 10.9179 16.1181 9.09502C16.1181 7.27217 14.652 5.79492 12.8417 5.79492ZM12.8417 10.747H11.1957V9.09502C11.1957 8.17192 11.9305 7.42108 12.8417 7.42108C13.753 7.42108 14.4941 8.17192 14.4941 9.09502C14.4941 10.0181 13.753 10.747 12.8417 10.747Z" fill="#71706F"/>
<path d="M4.36619 12.4205C2.8164 12.4205 1.51352 11.3161 1.16095 9.87334C1.16095 9.87334 1.05912 9.39626 1.05912 9.0824C1.05912 8.76854 1.15537 8.28623 1.15537 8.28623C1.51038 6.84699 2.81187 5.77532 4.35922 5.77532C6.17893 5.77532 7.67222 7.25467 7.67222 9.07438V9.87473H2.83768C3.12329 10.4327 3.70045 10.7466 4.36654 10.7466H8.71286L8.71878 6.02746C8.71878 5.32371 8.14302 4.74829 7.43962 4.74829H1.27917C0.575765 4.74829 0 5.30662 0 6.01002V12.1701C0 12.8735 0.575765 13.4667 1.27917 13.4667H7.43927C8.07083 13.4667 8.59742 13.0134 8.69925 12.4205H4.36654H4.36619Z" fill="#C8036F"/>
<path d="M4.36076 7.34204C3.69746 7.34204 3.12065 7.74797 2.83398 8.27108H5.88753C5.60087 7.74797 5.02406 7.34204 4.36076 7.34204Z" fill="#C8036F"/>
<path d="M7.14847 2.74495C7.14847 1.24154 5.89894 0.0227051 4.35787 0.0227051C2.8168 0.0227051 1.60912 1.20179 1.56867 2.67067C1.56797 2.67695 1.56867 2.68287 1.56867 2.68915V3.50729C1.56867 3.60528 1.64853 3.70188 1.74862 3.70188H2.7753C2.87574 3.70188 2.96362 3.60528 2.96362 3.50729V2.74495C2.96362 1.99412 3.58891 1.38348 4.35857 1.38348C5.12823 1.38348 5.75352 1.99412 5.75352 2.74495V3.50729C5.75352 3.60528 5.83477 3.70188 5.93521 3.70188H6.96189C7.06233 3.70188 7.14847 3.60528 7.14847 3.50729V2.74495Z" fill="#C8036F"/>
</g>
</g>
<defs>
<clipPath id="clip0_9332_10229">
<rect width="23.0578" height="16" fill="white"/>
</clipPath>
<clipPath id="clip1_9332_10229">
<rect width="23.0578" height="15.9547" fill="white" transform="translate(0 0.0227051)"/>
</clipPath>
</defs>
</svg>
