<svg width="28" height="16" viewBox="0 0 28 16" fill="none" xmlns="http://www.w3.org/2000/svg">
<g clip-path="url(#clip0_9319_29917)">
<path d="M20.4511 0.639893H7.40983C3.33442 0.639893 0 3.95189 0 7.99989C0 12.0479 3.33442 15.3599 7.40983 15.3599H20.4511C24.5265 15.3599 27.861 12.0479 27.861 7.99989C27.861 3.95189 24.5265 0.639893 20.4511 0.639893Z" fill="white"/>
<path d="M20.4511 1.23605C21.3662 1.23605 22.2554 1.41637 23.0927 1.76965C23.9041 2.11189 24.6303 2.60133 25.2601 3.22325C25.8862 3.84517 26.379 4.57013 26.7235 5.37605C27.0792 6.20773 27.2608 7.09093 27.2608 7.99989C27.2608 8.90885 27.0792 9.79205 26.7235 10.6237C26.379 11.4297 25.8862 12.1509 25.2601 12.7765C24.634 13.3985 23.9041 13.8879 23.0927 14.2301C22.2554 14.5834 21.3662 14.7637 20.4511 14.7637H7.40983C6.49471 14.7637 5.60553 14.5834 4.76822 14.2301C3.95685 13.8879 3.23068 13.3985 2.60085 12.7765C1.97472 12.1546 1.48197 11.4297 1.13741 10.6237C0.781737 9.79205 0.600196 8.90885 0.600196 7.99989C0.600196 7.09093 0.781737 6.20773 1.13741 5.37605C1.48197 4.57013 1.97472 3.84885 2.60085 3.22325C3.22698 2.60133 3.95685 2.11189 4.76822 1.76965C5.60553 1.41637 6.49471 1.23605 7.40983 1.23605H20.4511ZM20.4511 0.639893H7.40983C3.33442 0.639893 0 3.95189 0 7.99989C0 12.0479 3.33442 15.3599 7.40983 15.3599H20.4511C24.5265 15.3599 27.861 12.0479 27.861 7.99989C27.861 3.95189 24.5265 0.639893 20.4511 0.639893Z" fill="#3C4043"/>
<path d="M13.3149 8.52274V10.7491H12.6035V5.25122H14.4893C14.9672 5.25122 15.3748 5.40946 15.7082 5.72594C16.0491 6.04242 16.2195 6.42882 16.2195 6.88514C16.2195 7.3525 16.0491 7.7389 15.7082 8.0517C15.3785 8.3645 14.971 8.51906 14.4893 8.51906H13.3149V8.52274ZM13.3149 5.92834V7.84562H14.5041C14.7857 7.84562 15.0228 7.74994 15.2081 7.56226C15.397 7.37458 15.4933 7.14642 15.4933 6.88882C15.4933 6.6349 15.397 6.41042 15.2081 6.22274C15.0228 6.0277 14.7894 5.93202 14.5041 5.93202H13.3149V5.92834Z" fill="#3C4043"/>
<path d="M18.0801 6.86279C18.6062 6.86279 19.0212 7.00263 19.325 7.28231C19.6288 7.56199 19.7807 7.94471 19.7807 8.43047V10.7489H19.1027V10.2263H19.073C18.7804 10.6569 18.3876 10.8703 17.8986 10.8703C17.4799 10.8703 17.1317 10.7489 16.8501 10.5023C16.5685 10.2558 16.4277 9.95031 16.4277 9.58231C16.4277 9.19223 16.5759 8.88311 16.8723 8.65495C17.1687 8.42311 17.5651 8.30903 18.0579 8.30903C18.4803 8.30903 18.8285 8.38631 19.099 8.54087V8.37895C19.099 8.13239 19.0027 7.92631 18.8063 7.75335C18.6099 7.58039 18.3802 7.49575 18.1172 7.49575C17.7208 7.49575 17.4058 7.66135 17.1761 7.99623L16.55 7.60615C16.8946 7.10935 17.4058 6.86279 18.0801 6.86279ZM17.1613 9.59335C17.1613 9.77735 17.2391 9.93191 17.3984 10.0534C17.554 10.1748 17.7393 10.2374 17.9505 10.2374C18.2506 10.2374 18.5173 10.127 18.7507 9.90615C18.9841 9.68535 19.1027 9.42775 19.1027 9.12967C18.8804 8.95671 18.5729 8.86839 18.1765 8.86839C17.8875 8.86839 17.6467 8.93831 17.454 9.07447C17.2576 9.21799 17.1613 9.39095 17.1613 9.59335Z" fill="#3C4043"/>
<path d="M23.6477 6.98462L21.2766 12.4016H20.543L21.4248 10.5064L19.8613 6.98462H20.6357L21.7619 9.68574H21.7768L22.8734 6.98462H23.6477Z" fill="#3C4043"/>
<path d="M10.4863 8.07341C10.4863 7.84305 10.4656 7.62261 10.427 7.41064H7.44531V8.62504L9.16254 8.62541C9.09289 9.02948 8.86874 9.37393 8.52529 9.60356V10.3914H9.54748C10.1443 9.84276 10.4863 9.03169 10.4863 8.07341Z" fill="#4285F4"/>
<path d="M8.52547 9.60361C8.24093 9.79424 7.87452 9.90574 7.44586 9.90574C6.61781 9.90574 5.91536 9.35153 5.66379 8.60449H4.60938V9.41704C5.13177 10.4467 6.20545 11.1533 7.44586 11.1533C8.30317 11.1533 9.02341 10.8732 9.54765 10.3911L8.52547 9.60361Z" fill="#34A853"/>
<path d="M5.56413 8.00188C5.56413 7.79212 5.59932 7.58935 5.66342 7.39873V6.58618H4.609C4.393 7.01196 4.27148 7.49257 4.27148 8.00188C4.27148 8.51119 4.39338 8.9918 4.609 9.41757L5.66342 8.60503C5.59932 8.41441 5.56413 8.21164 5.56413 8.00188Z" fill="#FABB05"/>
<path d="M7.44586 6.09737C7.91379 6.09737 8.33281 6.25745 8.66366 6.57025L9.56951 5.67123C9.01933 5.16229 8.30206 4.84985 7.44586 4.84985C6.20582 4.84985 5.13177 5.55641 4.60938 6.58608L5.66379 7.39862C5.91536 6.65158 6.61781 6.09737 7.44586 6.09737Z" fill="#E94235"/>
</g>
<defs>
<clipPath id="clip0_9319_29917">
<rect width="27.861" height="16" fill="white"/>
</clipPath>
</defs>
</svg>
