<svg width="19" height="16" viewBox="0 0 19 16" fill="none" xmlns="http://www.w3.org/2000/svg">
<g clip-path="url(#clip0_9334_10258)">
<g clip-path="url(#clip1_9334_10258)">
<path fill-rule="evenodd" clip-rule="evenodd" d="M19.0005 4.7686C18.9915 4.83764 18.9825 4.90669 18.9735 4.97573C18.9087 5.46866 18.6938 5.89254 18.3403 6.24913C17.9814 6.6127 17.5452 6.83994 17.0325 6.92297C16.2104 7.05669 15.2597 6.72894 14.7776 5.99655C14.7029 5.88293 14.6543 5.75358 14.5941 5.63122C14.5788 5.59976 14.5842 5.57354 14.6094 5.5447C14.6984 5.44419 14.7829 5.34106 14.8693 5.2388C14.8783 5.22831 14.8828 5.2152 14.8963 5.19161C14.9287 5.27813 14.9484 5.34543 14.9772 5.40835C15.2507 6.00616 15.7193 6.36799 16.3813 6.47724C17.3401 6.6363 18.2566 6.00878 18.4752 5.11907C18.5094 4.9801 18.5247 4.83502 18.531 4.69256C18.5382 4.50728 18.5337 4.32025 18.522 4.13409C18.5004 3.78013 18.3673 3.46462 18.146 3.18582C17.8222 2.77854 17.3977 2.53033 16.8706 2.4709C16.3471 2.41234 15.8821 2.56616 15.4773 2.88954C15.0555 3.22689 14.6903 3.61844 14.3395 4.02397C14.1767 4.21275 14.0202 4.40677 13.861 4.59817C13.8511 4.60953 13.8403 4.62002 13.8232 4.63838C13.8214 4.61478 13.8205 4.60167 13.8205 4.58856C13.8205 4.40065 13.8196 4.21187 13.8214 4.02397C13.8214 3.99775 13.8295 3.96716 13.8457 3.94706C14.1255 3.59484 14.416 3.25137 14.7416 2.93848C14.9826 2.70687 15.2444 2.49887 15.5304 2.32232C15.793 2.15976 16.0836 2.06799 16.3912 2.02866C17.6126 1.87309 18.6767 2.71212 18.9276 3.74167C18.9573 3.86141 18.9672 3.98551 18.9861 4.10787C18.9906 4.13496 18.996 4.16206 19.0014 4.18915V4.76598L19.0005 4.7686Z" fill="#00B041"/>
<path fill-rule="evenodd" clip-rule="evenodd" d="M12.8178 14.4104C12.8529 14.4375 12.8781 14.4559 12.9033 14.476C13.2711 14.7661 13.6894 14.9506 14.1598 15.0091C14.4728 15.0484 14.7849 15.0423 15.0835 14.9217C15.4154 14.7871 15.5818 14.5319 15.6124 14.1928C15.6286 14.0136 15.6223 13.8327 15.625 13.6527C15.625 13.6378 15.6214 13.623 15.6196 13.602C15.607 13.6081 15.5989 13.6099 15.5944 13.6151C15.3848 13.8467 15.1114 13.9673 14.8092 14.025C14.3172 14.1203 13.8405 14.0687 13.3944 13.8388C12.9177 13.5933 12.6424 13.193 12.5102 12.6931C12.458 12.4964 12.4355 12.2963 12.4355 12.0935C12.4355 11.2038 12.4355 10.3149 12.4355 9.42524C12.4355 9.37338 12.4628 9.34745 12.5174 9.34745C12.8331 9.34745 13.1479 9.3492 13.4636 9.3457C13.5275 9.3457 13.5419 9.36406 13.5419 9.42349C13.5401 10.3272 13.5356 11.2309 13.5437 12.1337C13.5473 12.5488 13.8009 12.9692 14.3397 13.0601C14.6509 13.1126 14.9477 13.0645 15.2041 12.8696C15.3974 12.7219 15.4946 12.52 15.5261 12.2875C15.5387 12.1966 15.5396 12.104 15.5396 12.0122C15.5396 11.1505 15.5396 10.2896 15.5396 9.42786C15.5396 9.37367 15.5677 9.34658 15.6241 9.34658C15.9317 9.34658 16.2384 9.34658 16.546 9.34658C16.5928 9.34658 16.6099 9.35881 16.6099 9.40776C16.6081 11.0028 16.6135 12.5969 16.6054 14.1919C16.6036 14.6281 16.4705 15.0318 16.1638 15.3666C15.9074 15.6462 15.58 15.8114 15.2122 15.9058C14.9945 15.9618 14.7723 15.9862 14.5475 15.9967C13.9232 16.0247 13.3656 15.856 12.8763 15.4758C12.8322 15.4417 12.8124 15.405 12.8133 15.3491C12.816 15.0546 12.8142 14.76 12.8151 14.4655C12.8151 14.4515 12.8169 14.4375 12.8187 14.4096L12.8178 14.4104Z" fill="#00B041"/>
<path fill-rule="evenodd" clip-rule="evenodd" d="M3.4969 14.0913H3.42314C3.12003 14.0913 2.81691 14.0895 2.5138 14.093C2.44904 14.093 2.43555 14.0738 2.43555 14.0152C2.43735 12.7593 2.43645 11.5034 2.43645 10.2466C2.43645 9.64182 2.43645 9.03702 2.43645 8.43135C2.43645 8.35269 2.43645 8.35182 2.5174 8.35182C3.27024 8.35182 4.02308 8.33958 4.77502 8.35706C5.31829 8.3693 5.81658 8.53011 6.21054 8.91903C6.45789 9.16288 6.6036 9.4609 6.66926 9.79389C6.75291 10.2169 6.74392 10.639 6.59731 11.0489C6.37604 11.6651 5.91732 12.0287 5.27781 12.1912C5.06194 12.2463 4.84158 12.2681 4.61761 12.2681C4.27133 12.2681 3.92504 12.2681 3.57875 12.2681C3.4978 12.2681 3.4978 12.2681 3.4978 12.3477C3.4978 12.9026 3.4978 13.4576 3.4978 14.0126V14.0904L3.4969 14.0913ZM4.10133 11.3103C4.24794 11.3103 4.39365 11.3146 4.54026 11.3085C4.66529 11.3033 4.79211 11.2971 4.91353 11.2727C5.24723 11.2045 5.49008 11.0236 5.60161 10.7028C5.69156 10.4459 5.69246 10.1837 5.61421 9.92411C5.53865 9.67241 5.37046 9.49936 5.11861 9.40147C4.96121 9.34029 4.79661 9.3167 4.63021 9.31407C4.27223 9.3097 3.91334 9.3132 3.55446 9.31233C3.50859 9.31233 3.4951 9.32893 3.4951 9.37263C3.496 9.99753 3.4969 10.6216 3.4951 11.2464C3.4951 11.2971 3.51219 11.3111 3.56256 11.3111C3.74155 11.3085 3.92144 11.3111 4.10043 11.3111L4.10133 11.3103Z" fill="#00B041"/>
<path fill-rule="evenodd" clip-rule="evenodd" d="M10.7056 13.6036C10.4628 13.8501 10.1704 13.9864 9.83854 14.0502C9.59209 14.0983 9.34385 14.0948 9.0956 14.0694C8.79338 14.0389 8.50646 13.9611 8.23932 13.8186C7.74462 13.5538 7.44241 13.143 7.2904 12.6204C7.22384 12.3905 7.19326 12.1545 7.19236 11.916C7.19236 11.6861 7.18606 11.4545 7.20585 11.2255C7.2832 10.3367 7.80039 9.59728 8.80867 9.3648C9.33575 9.24331 9.86463 9.2538 10.3782 9.42685C11.0708 9.66108 11.4935 10.14 11.6725 10.827C11.7247 11.0289 11.749 11.2351 11.749 11.444C11.749 12.2795 11.749 13.1142 11.749 13.9497C11.749 14.0062 11.7199 14.0345 11.6617 14.0345C11.3667 14.0345 11.0726 14.0336 10.7776 14.0354C10.7236 14.0354 10.7011 14.024 10.7038 13.9654C10.7083 13.844 10.7056 13.7225 10.7056 13.601V13.6036ZM10.7164 11.7062C10.7038 11.5366 10.7074 11.3653 10.6768 11.1993C10.6013 10.7955 10.3674 10.5071 9.96716 10.3611C9.71622 10.2694 9.45718 10.2624 9.19544 10.3078C8.70883 10.3917 8.33376 10.7614 8.26091 11.2351C8.22043 11.4999 8.22133 11.7665 8.25011 12.0313C8.29778 12.4727 8.52894 12.7987 8.94539 12.9883C9.20443 13.1072 9.47876 13.1177 9.76029 13.081C10.2037 13.0224 10.5356 12.7462 10.6561 12.3276C10.7146 12.124 10.7083 11.916 10.7182 11.7071L10.7164 11.7062Z" fill="#00B041"/>
<path fill-rule="evenodd" clip-rule="evenodd" d="M4.84231 4.17632H2.9022C2.9004 4.1501 2.8986 4.12913 2.8986 4.10815C2.8986 4.00764 2.8986 3.90801 2.8986 3.8075C2.8986 3.75273 2.92798 3.72535 2.98675 3.72535H4.55809C4.78475 3.72535 5.01141 3.7271 5.23807 3.72447C5.29204 3.72447 5.30913 3.73933 5.30823 3.79177C5.30643 4.57486 5.30823 5.35795 5.30553 6.14191C5.30553 6.17425 5.29024 6.21358 5.26865 6.23805C5.0339 6.50549 4.73618 6.6899 4.40968 6.83148C4.10117 6.9652 3.77736 7.04124 3.44097 7.07707C2.86982 7.13738 2.31306 7.08668 1.78688 6.85071C0.865841 6.43557 0.288394 5.7425 0.0788218 4.77762C-0.044403 4.20953 -0.0327101 3.63882 0.182259 3.08821C0.464686 2.36368 0.976474 1.83405 1.67445 1.4696C2.04412 1.27645 2.43988 1.16108 2.85812 1.11564C3.16484 1.08242 3.47065 1.09466 3.77646 1.11738C4.07688 1.14011 4.371 1.19429 4.65433 1.29655C4.71189 1.31753 4.73798 1.34287 4.73438 1.40755C4.72808 1.54476 4.73258 1.68285 4.73258 1.82881C4.67502 1.80084 4.62734 1.77549 4.57788 1.75277C4.32063 1.63216 4.0481 1.56661 3.76567 1.54476C3.5606 1.52903 3.35552 1.51854 3.14955 1.52116C2.53612 1.52903 1.98746 1.72393 1.50175 2.08488C1.04123 2.42661 0.72013 2.86535 0.559129 3.40984C0.477278 3.68514 0.462887 3.96744 0.47458 4.25323C0.489871 4.61681 0.569022 4.96291 0.73722 5.28716C1.10599 5.99596 1.69154 6.43557 2.49205 6.60162C2.81585 6.66892 3.14235 6.66193 3.46885 6.62522C3.85382 6.5824 4.21989 6.48276 4.54909 6.27913C4.63904 6.22319 4.72269 6.15677 4.80274 6.0886C4.82702 6.0685 4.84501 6.02742 4.84501 5.99595C4.84771 5.41126 4.84681 4.82569 4.84681 4.241C4.84681 4.22177 4.84321 4.20167 4.84051 4.17807L4.84231 4.17632Z" fill="#00B041"/>
<path fill-rule="evenodd" clip-rule="evenodd" d="M11.8723 6.36477C11.8723 6.50985 11.8741 6.64794 11.8705 6.78603C11.8705 6.80176 11.8426 6.82624 11.8237 6.83148C11.6798 6.86994 11.5359 6.92237 11.3893 6.93723C10.7849 7.00016 10.238 6.84459 9.7568 6.48538C9.2504 6.10695 8.93829 5.60965 8.85644 4.99349C8.82137 4.7313 8.83306 4.46211 8.83756 4.19642C8.84835 3.66329 9.04893 3.19833 9.40691 2.79805C9.76399 2.39951 10.2092 2.13994 10.7462 2.04992C11.4729 1.92756 12.1233 2.10323 12.6818 2.57256C13.1135 2.93527 13.3726 3.3976 13.4652 3.94472C13.4823 4.04872 13.4913 4.15534 13.4913 4.2611C13.4931 5.13071 13.4922 6.00032 13.4922 6.86906V6.94947H13.029V6.86382C13.029 5.9942 13.0353 5.12459 13.0272 4.25585C13.0191 3.34167 12.34 2.64336 11.5062 2.49128C10.4979 2.30862 9.52833 2.97809 9.32776 3.93598C9.30797 4.03124 9.29538 4.13 9.29448 4.22701C9.29088 4.48309 9.27019 4.74004 9.32326 4.99349C9.46178 5.66122 9.86293 6.12355 10.5069 6.38138C10.9351 6.55268 11.3695 6.53957 11.803 6.3875C11.8237 6.38051 11.8444 6.37351 11.8723 6.36477Z" fill="#00B041"/>
<path fill-rule="evenodd" clip-rule="evenodd" d="M4.48601 4.52581V4.58961C4.48601 5.0065 4.48601 5.42252 4.48691 5.83941C4.48691 5.88485 4.47252 5.9137 4.43654 5.94079C4.23597 6.09374 4.00301 6.17589 3.75836 6.2292C3.48223 6.28951 3.1998 6.31922 2.91827 6.30087C2.08988 6.24756 1.47645 5.85776 1.08069 5.15158C0.907099 4.84219 0.836942 4.50658 0.830645 4.15437C0.824349 3.81352 0.869322 3.48402 1.02313 3.17463C1.30556 2.60742 1.76248 2.22811 2.36511 2.00874C2.72759 1.87677 3.10446 1.84705 3.48852 1.87065C3.81502 1.89075 4.13433 1.93882 4.43924 2.05506C4.52559 2.0874 4.60924 2.12673 4.69199 2.16606C4.70998 2.1748 4.72976 2.20014 4.72976 2.21762C4.73246 2.37756 4.73156 2.5375 4.73156 2.71055C4.70638 2.69394 4.68839 2.68346 4.6713 2.67122C4.41676 2.48419 4.12623 2.38368 3.81233 2.35047C3.60185 2.32862 3.38868 2.30764 3.17821 2.31638C2.43617 2.34697 1.85602 2.65898 1.48185 3.29437C1.35233 3.51461 1.29746 3.75758 1.29206 4.01278C1.28577 4.30819 1.31635 4.5966 1.44767 4.86666C1.70851 5.40329 2.13755 5.73715 2.74468 5.82979C3.17282 5.89534 3.59286 5.83678 4.00031 5.69345C4.04169 5.67859 4.05698 5.65587 4.05698 5.61392C4.05518 5.42601 4.05428 5.23723 4.05698 5.04933C4.05787 4.99077 4.04079 4.96979 3.97692 4.96979C3.64053 4.97242 3.30503 4.96979 2.96864 4.97242C2.91287 4.97242 2.89399 4.95931 2.89578 4.9025C2.90028 4.77839 2.89758 4.65516 2.89758 4.52581H4.48511H4.48601Z" fill="#00B041"/>
<path fill-rule="evenodd" clip-rule="evenodd" d="M15.5495 4.42865C15.5765 4.54664 15.5936 4.64627 15.6215 4.74328C15.6997 5.00985 15.8355 5.2432 16.0406 5.43985C16.4723 5.85324 17.0768 5.73788 17.4132 5.40401C17.5994 5.2196 17.7019 4.99674 17.7064 4.73717C17.71 4.54139 17.7199 4.34387 17.7019 4.14985C17.6623 3.73121 17.3367 3.38162 16.914 3.2881C16.5416 3.20595 16.2178 3.30646 15.9381 3.5503C15.5666 3.87542 15.2437 4.24599 14.9226 4.61656C14.5574 5.03782 14.2039 5.46781 13.8459 5.89432C13.8423 5.89869 13.8396 5.90481 13.8244 5.90743C13.8235 5.8917 13.8208 5.87596 13.8208 5.85936C13.8208 5.66533 13.819 5.47044 13.8226 5.27641C13.8226 5.2432 13.8361 5.20475 13.8558 5.17853C14.1868 4.75028 14.5457 4.34562 14.919 3.95233C15.1223 3.73733 15.3264 3.52233 15.5423 3.31782C15.7861 3.08709 16.0685 2.90967 16.4058 2.83888C16.8078 2.75497 17.1793 2.84412 17.513 3.07223C17.8566 3.30646 18.0734 3.62546 18.1516 4.02837C18.1651 4.09828 18.1705 4.1717 18.1705 4.24337C18.1687 4.45924 18.1786 4.67686 18.1552 4.89099C18.0914 5.45645 17.6533 5.93977 17.0795 6.09883C16.4517 6.27275 15.8121 6.02716 15.4425 5.47218C15.33 5.30263 15.2482 5.11997 15.2005 4.9242C15.1942 4.89623 15.2032 4.85603 15.2212 4.8333C15.3183 4.71182 15.4209 4.59383 15.5207 4.4741C15.5297 4.46361 15.5351 4.4505 15.5486 4.42952L15.5495 4.42865Z" fill="#00B041"/>
<path fill-rule="evenodd" clip-rule="evenodd" d="M11.8724 5.48403C11.8724 5.63873 11.8742 5.78293 11.8706 5.92627C11.8706 5.94812 11.8445 5.97434 11.8238 5.98832C11.7006 6.0696 11.5603 6.11068 11.4155 6.13253C10.7841 6.22692 10.1859 5.95249 9.86124 5.41936C9.72453 5.19474 9.65257 4.9509 9.65437 4.68871C9.65437 4.56023 9.65527 4.43263 9.65437 4.30416C9.64987 3.81822 9.85405 3.42755 10.239 3.1269C11.0989 2.45568 12.4283 2.89093 12.6414 3.98952C12.6603 4.08916 12.6684 4.19229 12.6693 4.29367C12.6711 5.15279 12.6702 6.01192 12.6702 6.87104C12.6702 6.92465 12.642 6.95174 12.5857 6.95232C12.4822 6.95232 12.3797 6.9497 12.2763 6.9532C12.2232 6.95495 12.2106 6.93572 12.2106 6.88765C12.2124 6.65692 12.2106 6.42706 12.2106 6.19633C12.2106 5.56968 12.2106 4.94216 12.2106 4.31552C12.2106 4.09265 12.1611 3.88202 12.0271 3.69761C11.8157 3.40832 11.527 3.26586 11.1601 3.25887C10.7301 3.25101 10.275 3.52981 10.15 4.01574C10.1302 4.0944 10.1212 4.17743 10.1185 4.25871C10.1131 4.40029 10.1167 4.54275 10.1167 4.68521C10.1167 5.19824 10.4846 5.62037 11.008 5.69291C11.2941 5.73312 11.5648 5.67369 11.8113 5.52336C11.8283 5.51287 11.8454 5.50151 11.8733 5.48403H11.8724Z" fill="#00B041"/>
<path fill-rule="evenodd" clip-rule="evenodd" d="M9.35256 2.31531C9.23563 2.43854 9.13309 2.54779 9.03235 2.65354C8.91272 2.60984 8.7976 2.55216 8.67527 2.52507C7.94222 2.36338 7.28922 2.49885 6.76124 3.04683C6.52558 3.29155 6.39516 3.59132 6.34479 3.92082C6.32051 4.07638 6.31151 4.23545 6.31151 4.39277C6.30792 5.21781 6.30971 6.04285 6.30971 6.86789C6.30971 6.9244 6.28063 6.95266 6.22247 6.95266C6.11723 6.95266 6.012 6.95091 5.90676 6.95266C5.86269 6.95354 5.8465 6.9378 5.85009 6.8976C5.85099 6.88799 5.85009 6.8775 5.85009 6.86789C5.85009 6.00876 5.85009 5.14964 5.85009 4.29051C5.85009 3.79496 5.97512 3.33612 6.27104 2.92885C6.62092 2.44728 7.10393 2.16411 7.69577 2.05574C8.15629 1.97096 8.60961 1.99893 9.04764 2.16673C9.15018 2.20606 9.24552 2.26287 9.35166 2.31531H9.35256Z" fill="#00B041"/>
<path fill-rule="evenodd" clip-rule="evenodd" d="M8.83062 2.9421C8.76046 3.07757 8.6948 3.20517 8.63004 3.33015C8.5383 3.30917 8.44745 3.27946 8.35481 3.26897C7.91408 3.21828 7.48774 3.35287 7.25838 3.76539C7.17473 3.91572 7.13515 4.07915 7.13515 4.24958C7.13515 5.12094 7.13515 5.9923 7.13515 6.86366V6.94669H6.67643C6.67553 6.92571 6.67284 6.90474 6.67284 6.88376C6.67284 5.99842 6.66474 5.11307 6.67553 4.22773C6.68363 3.51369 7.19002 2.95696 7.8799 2.83635C8.15603 2.78828 8.42856 2.80401 8.6966 2.88617C8.74247 2.90015 8.78565 2.92375 8.83062 2.94298V2.9421Z" fill="#00B041"/>
<path fill-rule="evenodd" clip-rule="evenodd" d="M14.3086 0.00341797H14.7637C14.7646 0.0278895 14.7673 0.0488651 14.7673 0.0698406C14.7673 0.835449 14.7673 1.60018 14.7673 2.36579C14.7673 2.40512 14.7547 2.43047 14.7259 2.45931C14.6018 2.58167 14.4813 2.70839 14.3599 2.83337C14.3446 2.84911 14.3302 2.86484 14.3086 2.88931V0.00341797Z" fill="#00B041"/>
<path fill-rule="evenodd" clip-rule="evenodd" d="M15.1298 2.21729V2.14126C15.1298 1.45431 15.1298 0.767357 15.1298 0.0795324C15.1298 0.0265108 15.1583 0 15.2153 0C15.3097 0 15.405 0 15.4995 0C15.5582 0 15.5879 0.0297154 15.5885 0.0891462C15.5885 0.221118 15.5885 0.353963 15.5885 0.485934C15.5885 0.940405 15.5885 1.39575 15.5885 1.85022C15.5885 1.89742 15.5741 1.92451 15.531 1.95073C15.4122 2.02327 15.2989 2.10368 15.1838 2.18059C15.1694 2.1902 15.155 2.19981 15.1289 2.21729H15.1298Z" fill="#00B041"/>
</g>
</g>
<defs>
<clipPath id="clip0_9334_10258">
<rect width="19" height="16" fill="white"/>
</clipPath>
<clipPath id="clip1_9334_10258">
<rect width="19" height="16" fill="white"/>
</clipPath>
</defs>
</svg>
