<svg width="19" height="16" viewBox="0 0 19 16" fill="none" xmlns="http://www.w3.org/2000/svg">
<g clip-path="url(#clip0_9334_10615)">
<path d="M5.02539 2.61264V14.2657H10.0986C14.707 14.2657 16.7051 11.6617 16.7051 7.98783C16.7051 4.31399 14.7072 1.73389 10.0986 1.73389H5.90415C5.41882 1.73389 5.0256 2.12731 5.0256 2.61244L5.02539 2.61264Z" fill="#CC0066"/>
<path d="M1.31803 0.439276C0.832909 0.439689 0.439689 0.83291 0.439276 1.31803V14.682C0.439689 15.1671 0.832909 15.5603 1.31803 15.5607H9.5164C14.9957 15.5607 18.0138 12.8691 18.0138 7.98193C18.0138 1.41902 12.6898 0.439276 9.5164 0.439276H1.31803ZM9.5164 16H1.31803C0.590451 15.9992 0.000826094 15.4096 0 14.682V1.31803C0.000826094 0.590451 0.590451 0.000826094 1.31803 0H9.5164C17.292 0 18.4529 5.00076 18.4529 7.98193C18.4529 13.1525 15.2792 15.9998 9.5164 15.9998V16Z" fill="black"/>
<path d="M6.76931 8.68432C6.85749 8.68432 6.94341 8.66986 7.02663 8.64157C7.10986 8.61307 7.1838 8.56557 7.24865 8.49907C7.31391 8.43298 7.36575 8.34645 7.40457 8.23988C7.4436 8.13352 7.46323 8.00321 7.46323 7.84996C7.46323 7.70953 7.44939 7.58293 7.42233 7.46996C7.39879 7.36463 7.35274 7.2655 7.28768 7.17938C7.22283 7.09719 7.13754 7.03316 7.04026 6.99413C6.93721 6.95117 6.81061 6.9297 6.66005 6.9297H6.22326V8.68453H6.76931V8.68432ZM6.81226 6.41525C6.99152 6.41525 7.1586 6.44395 7.31308 6.50116C7.46426 6.55609 7.60139 6.64387 7.71477 6.75808C7.82795 6.87249 7.91613 7.0154 7.98015 7.18702C8.04356 7.35865 8.07557 7.56001 8.07557 7.79152C8.07557 7.99432 8.04955 8.18143 7.9975 8.35306C7.94546 8.52426 7.86698 8.67275 7.76165 8.79729C7.65405 8.92389 7.5194 9.02467 7.3676 9.09179C7.21044 9.16345 7.02519 9.19898 6.81226 9.19898H5.61133V6.41504H6.81226V6.41525ZM10.5634 6.41545V6.9299H9.09352V7.52655H10.4423V8.00238H9.09352V8.68473H10.5945V9.19939H8.48139V6.41545H10.5634ZM12.6947 8.12299L12.3436 7.10132H12.3357L11.9733 8.12299H12.6945H12.6947ZM12.6596 6.41525L13.7004 9.19918H13.065L12.8543 8.5792H11.813L11.5947 9.19918H10.9787L12.0315 6.41525H12.6594H12.6596ZM14.6975 6.41545V8.68453H16.0544V9.19918H14.0854V6.41525H14.6973V6.41566L14.6975 6.41545Z" fill="white"/>
<path d="M4.01755 7.80711C4.01755 8.51631 3.44258 9.09128 2.73338 9.09128C2.02418 9.09128 1.44922 8.51631 1.44922 7.80711C1.44922 7.09791 2.02418 6.52295 2.73338 6.52295C3.44258 6.52295 4.01755 7.09791 4.01755 7.80711ZM3.70611 14.2663C2.63157 14.2663 1.76004 13.3952 1.76004 12.3203V10.8027C1.76004 10.2654 2.19559 9.8298 2.73297 9.8298C3.27034 9.8298 3.7059 10.2654 3.7059 10.8027V14.2663H3.70611Z" fill="black"/>
</g>
<defs>
<clipPath id="clip0_9334_10615">
<rect width="18.4529" height="16" fill="white"/>
</clipPath>
</defs>
</svg>
