<svg width="38" height="16" viewBox="0 0 38 16" fill="none" xmlns="http://www.w3.org/2000/svg">
<g clip-path="url(#clip0_9334_10282)">
<mask id="mask0_9334_10282" style="mask-type:luminance" maskUnits="userSpaceOnUse" x="0" y="0" width="38" height="16">
<path d="M0 0.28125H38V15.7188H0V0.28125Z" fill="white"/>
</mask>
<g mask="url(#mask0_9334_10282)">
<path fill-rule="evenodd" clip-rule="evenodd" d="M30.4 15.7188H7.60006C3.40257 15.7188 0 12.263 0 8C0 3.73724 3.40257 0.28125 7.60006 0.28125H30.4C34.5975 0.28125 38 3.73724 38 8C38 12.263 34.5975 15.7188 30.4 15.7188Z" fill="#FFEB00"/>
</g>
<path fill-rule="evenodd" clip-rule="evenodd" d="M10.1372 4.12842C7.92454 4.12842 6.13086 5.56748 6.13086 7.34288C6.13086 8.40829 6.77828 9.35111 7.77318 9.936L7.30169 11.7254C7.2564 11.8971 7.44504 12.0334 7.58978 11.9341L9.63618 10.5313C9.80052 10.5478 9.96735 10.5573 10.1372 10.5573C12.3499 10.5573 14.1436 9.11828 14.1436 7.34288C14.1436 5.56748 12.3499 4.12842 10.1372 4.12842Z" fill="#1E1E1E"/>
<path fill-rule="evenodd" clip-rule="evenodd" d="M17.9175 5.95677V9.11485C17.9935 9.12438 18.1838 9.14374 18.3644 9.14374C19.3532 9.14374 19.7338 8.4388 19.7338 7.32822C19.7338 6.35258 19.477 5.76377 18.6878 5.76377C18.431 5.76377 18.1456 5.84091 17.9175 5.95677ZM17.9175 10.0997V12.0794H16.5293V4.77859H17.5087L17.6797 5.24201C17.9747 4.94269 18.4216 4.62402 19.1441 4.62402C20.5039 4.62402 21.1505 5.65745 21.1411 7.32822C21.1411 9.07613 20.1426 10.1962 18.7163 10.1962C18.4406 10.1962 18.2313 10.1769 17.9175 10.0997Z" fill="#1E1E1E"/>
<path fill-rule="evenodd" clip-rule="evenodd" d="M24.8733 8.6994V7.73357H24.2361C23.523 7.73357 23.1617 7.99445 23.1617 8.51594C23.1617 8.91175 23.3614 9.10503 23.7705 9.10503C24.1508 9.10503 24.6355 8.91175 24.8733 8.6994ZM24.0842 6.83563H24.8733V6.66171C24.8733 6.08244 24.5499 5.81174 23.9889 5.81174C23.5611 5.81174 23.0095 5.93741 22.5626 6.15958L22.1823 5.21311C22.677 4.86555 23.4376 4.62402 24.1127 4.62402C25.444 4.62402 26.1665 5.33879 26.1665 6.70042V10.0515H25.1871L25.0446 9.60716C24.4836 10.0226 23.9699 10.1962 23.5042 10.1962C22.4867 10.1962 21.916 9.57826 21.916 8.53529C21.916 7.42472 22.677 6.83563 24.0842 6.83563Z" fill="#1E1E1E"/>
<path fill-rule="evenodd" clip-rule="evenodd" d="M30.2443 9.5091C29.7593 10.8225 29.1793 11.7785 28.333 12.3098L27.4773 11.5081C27.9717 11.0736 28.3236 10.6486 28.6277 10.0788L26.7832 4.97031L28.162 4.59357L29.3409 8.73655L30.5106 4.57422L31.8703 4.96049L30.2443 9.5091Z" fill="#1E1E1E"/>
</g>
<defs>
<clipPath id="clip0_9334_10282">
<rect width="38" height="16" fill="white"/>
</clipPath>
</defs>
</svg>
