<svg width="28" height="16" viewBox="0 0 28 16" fill="none" xmlns="http://www.w3.org/2000/svg">
<g clip-path="url(#clip0_9319_29934)">
<path d="M0 8C0 5.65607 0 4.4841 0.5747 3.64943C0.799578 3.32283 1.08217 3.04007 1.40857 2.81505C2.24272 2.23999 3.41396 2.23999 5.75643 2.23999H21.6036C23.9461 2.23999 25.1173 2.23999 25.9514 2.81505C26.2779 3.04007 26.5605 3.32283 26.7853 3.64943C27.36 4.4841 27.36 5.65607 27.36 8C27.36 10.344 27.36 11.5159 26.7853 12.3506C26.5605 12.6772 26.2779 12.96 25.9514 13.185C25.1173 13.76 23.9461 13.76 21.6036 13.76H5.75645C3.41396 13.76 2.24272 13.76 1.40857 13.185C1.08217 12.96 0.799578 12.6772 0.5747 12.3506C0 11.5159 0 10.344 0 8Z" fill="#FFA8CD"/>
<path d="M22.0884 9.51877C21.6084 9.51877 21.2343 9.14171 21.2343 8.68392C21.2343 8.22614 21.6084 7.84914 22.0884 7.84914C22.5685 7.84914 22.9426 8.22614 22.9426 8.68392C22.9426 9.14171 22.5685 9.51877 22.0884 9.51877ZM21.8484 10.4006C22.2579 10.4006 22.7802 10.2525 23.0696 9.67357L23.0979 9.68705C22.9707 10.0034 22.9707 10.1919 22.9707 10.239V10.3131H24.0013V7.05473H22.9707V7.12879C22.9707 7.17591 22.9707 7.36441 23.0979 7.68082L23.0696 7.69429C22.7802 7.11532 22.2579 6.96721 21.8484 6.96721C20.8672 6.96721 20.1755 7.70775 20.1755 8.68392C20.1755 9.6601 20.8672 10.4006 21.8484 10.4006ZM18.3826 6.96721C17.9166 6.96721 17.5495 7.12206 17.2532 7.69429L17.2249 7.68082C17.352 7.36441 17.352 7.17591 17.352 7.12879V7.05473H16.3214V10.3131H17.3802V8.5964C17.3802 8.14535 17.6554 7.8626 18.1001 7.8626C18.5449 7.8626 18.7637 8.10495 18.7637 8.58967V10.3131H19.8225V8.2396C19.8225 7.49906 19.2155 6.96721 18.3826 6.96721ZM14.7896 7.69429L14.7613 7.68082C14.8884 7.36441 14.8884 7.17591 14.8884 7.12879V7.05473H13.8579V10.3131H14.9166L14.9237 8.74451C14.9237 8.28673 15.1778 8.01071 15.5943 8.01071C15.7072 8.01071 15.799 8.02417 15.9049 8.0511V7.05473C15.4389 6.96049 15.0225 7.12879 14.7896 7.69429ZM11.4225 9.51877C10.9425 9.51877 10.5684 9.14171 10.5684 8.68392C10.5684 8.22614 10.9425 7.84914 11.4225 7.84914C11.9025 7.84914 12.2767 8.22614 12.2767 8.68392C12.2767 9.14171 11.9025 9.51877 11.4225 9.51877ZM11.1825 10.4006C11.5919 10.4006 12.1143 10.2525 12.4037 9.67357L12.432 9.68705C12.3049 10.0034 12.3049 10.1919 12.3049 10.239V10.3131H13.3354V7.05473H12.3049V7.12879C12.3049 7.17591 12.3049 7.36441 12.432 7.68082L12.4037 7.69429C12.1143 7.11532 11.5919 6.96721 11.1825 6.96721C10.2013 6.96721 9.50957 7.70775 9.50957 8.68392C9.50957 9.6601 10.2013 10.4006 11.1825 10.4006ZM8.03427 10.3131H9.0931V5.60059H8.03427V10.3131ZM7.2578 5.60059H6.1778C6.1778 6.44211 5.63428 7.19611 4.80838 7.73469L4.48369 7.95012V5.60059H3.36133V10.3131H4.48369V7.97704L6.34015 10.3131H7.70956L5.92369 8.07803C6.73545 7.51925 7.26486 6.6508 7.2578 5.60059Z" fill="black"/>
</g>
<defs>
<clipPath id="clip0_9319_29934">
<rect width="27.36" height="16" fill="white"/>
</clipPath>
</defs>
</svg>
