<svg width="38" height="16" viewBox="0 0 38 16" fill="none" xmlns="http://www.w3.org/2000/svg">
<g clip-path="url(#clip0_9334_10327)">
<path d="M6.16572 4.86743H5.2414C5.09945 4.86743 4.98438 4.98251 4.98438 5.12446V10.8779C4.98438 11.0199 5.09945 11.135 5.2414 11.135H6.16572C6.30767 11.135 6.42275 11.0199 6.42275 10.8779V5.12446C6.42275 4.98251 6.30767 4.86743 6.16572 4.86743Z" fill="black"/>
<path d="M3.93006 9.6966H1.43837V5.12446C1.43837 4.98285 1.32295 4.86743 1.18135 4.86743H0.257025C0.115419 4.86743 0 4.98285 0 5.12446V10.8779C0 11.0196 0.115419 11.135 0.257025 11.135H3.93006C4.07167 11.135 4.18709 11.0196 4.18709 10.8779V9.95363C4.18709 9.81202 4.07167 9.6966 3.93006 9.6966Z" fill="black"/>
<path d="M17.6723 6.3058C17.8139 6.3058 17.9293 6.19039 17.9293 6.04878V5.12446C17.9293 4.98285 17.8139 4.86743 17.6723 4.86743H13.9992C13.8576 4.86743 13.7422 4.98285 13.7422 5.12446V10.8779C13.7422 11.0196 13.8576 11.135 13.9992 11.135H17.6723C17.8139 11.135 17.9293 11.0196 17.9293 10.8779V9.95363C17.9293 9.81202 17.8139 9.6966 17.6723 9.6966H15.1806V8.72087H17.6723C17.8139 8.72087 17.9293 8.60545 17.9293 8.46385V7.53953C17.9293 7.39792 17.8139 7.2825 17.6723 7.2825H15.1806V6.30677H17.6723V6.3058Z" fill="black"/>
<path d="M12.5108 4.86727H11.5865C11.4449 4.86727 11.3295 4.98269 11.3295 5.12429V8.45398L8.90957 4.99432C8.8407 4.89636 8.73886 4.86824 8.62538 4.86824C8.61083 4.86533 8.59629 4.86824 8.58174 4.86824H7.65742C7.51581 4.86824 7.40039 4.98366 7.40039 5.12526V10.8788C7.40039 11.0204 7.51581 11.1358 7.65742 11.1358H8.58174C8.72334 11.1358 8.83876 11.0204 8.83876 10.8788V7.40163L11.3615 11.0097C11.3702 11.0223 11.3809 11.0339 11.3906 11.0456C11.4342 11.097 11.4973 11.1319 11.5681 11.1367H12.5108C12.6524 11.1367 12.7679 11.0213 12.7679 10.8797V5.12429C12.7679 4.98269 12.6524 4.86727 12.5108 4.86727Z" fill="black"/>
<path d="M37.3588 2.46289H20.9878C20.6332 2.46289 20.3457 2.75036 20.3457 3.10497V12.8952C20.3457 13.2498 20.6332 13.5373 20.9878 13.5373H37.3588C37.7135 13.5373 38.0009 13.2498 38.0009 12.8952V3.10497C38.0009 2.75036 37.7135 2.46289 37.3588 2.46289Z" fill="#08BF5B"/>
<path d="M26.7117 6.78189C26.7117 7.75471 25.929 8.53743 24.9193 8.53743H24.1511V9.97483C24.1511 10.0699 24.0736 10.1475 23.9785 10.1475H23.1531C23.0581 10.1475 22.9805 10.0699 22.9805 9.97483V5.19803C22.9805 5.10298 23.0581 5.02539 23.1531 5.02539H24.9193C25.929 5.02539 26.7117 5.80811 26.7117 6.78092V6.78189ZM25.541 6.78189C25.541 6.40848 25.2772 6.12333 24.9193 6.12333H24.1511V7.44046H24.9193C25.2782 7.44046 25.541 7.15531 25.541 6.78189Z" fill="white"/>
<path d="M31.056 6.58022V10.0564C31.056 10.1068 31.0153 10.1475 30.9648 10.1475H30.0492C29.9988 10.1475 29.9581 10.1068 29.9581 10.0564V9.80322C29.7166 10.0816 29.3587 10.2494 28.8679 10.2494C27.9096 10.2494 27.1191 9.40847 27.1191 8.31829C27.1191 7.22812 27.9096 6.38721 28.8679 6.38721C29.3577 6.38721 29.7166 6.555 29.9581 6.83336V6.58022C29.9581 6.52978 29.9988 6.48905 30.0492 6.48905H30.9648C31.0153 6.48905 31.056 6.52978 31.056 6.58022ZM29.959 8.31829C29.959 7.76933 29.5934 7.42598 29.0881 7.42598C28.5827 7.42598 28.2171 7.76933 28.2171 8.31829C28.2171 8.86726 28.5827 9.21061 29.0881 9.21061C29.5934 9.21061 29.959 8.86726 29.959 8.31829Z" fill="white"/>
<path d="M34.7078 6.58406L33.8659 8.70525L32.9949 6.58212C32.9717 6.52489 32.9164 6.48804 32.8553 6.48804H31.9212C31.8563 6.48804 31.8126 6.55302 31.8369 6.61316L33.2898 10.1543L32.7602 11.4879C32.7369 11.5471 32.7806 11.6121 32.8446 11.6121H33.7786C33.8407 11.6121 33.896 11.5742 33.9193 11.517L35.8659 6.61219C35.8891 6.55302 35.8455 6.48804 35.7815 6.48804H34.8475C34.7854 6.48804 34.7301 6.52586 34.7068 6.58309L34.7078 6.58406Z" fill="white"/>
</g>
<defs>
<clipPath id="clip0_9334_10327">
<rect width="38" height="11.0744" fill="white" transform="translate(0 2.46289)"/>
</clipPath>
</defs>
</svg>
