<svg width="30" height="16" viewBox="0 0 30 16" fill="none" xmlns="http://www.w3.org/2000/svg">
<g clip-path="url(#clip0_9334_10434)">
<path d="M10.8095 9.89108C11.0661 10.0158 11.3398 10.0839 11.6332 10.0938C13.2041 10.1477 14.3015 8.53286 13.6082 7.0995C13.3417 6.54657 12.9021 6.17653 12.2939 5.98797C12.0926 5.927 11.8658 5.91141 11.646 5.89723C10.8124 5.8391 10.8677 4.57587 11.6815 4.55176C11.9537 4.54468 12.2344 4.57587 12.525 4.64676C14.5312 5.13872 15.6711 7.24411 14.9636 9.18645C14.1498 11.418 11.3724 12.1581 9.53778 10.6808C8.68854 9.996 8.21075 8.927 8.26604 7.83532C8.30858 7.01018 8.62049 6.27577 9.20035 5.63069C9.3634 5.44921 9.56047 5.36131 9.78873 5.36415C10.1134 5.36982 10.3799 5.63636 10.4196 5.95394C10.4494 6.19496 10.3785 6.35233 10.2041 6.54231C9.22729 7.60139 9.50943 9.25451 10.8095 9.89108Z" fill="#008B55"/>
<path d="M28.3148 9.13633C29.1754 7.76252 28.2694 6.0456 26.6929 5.91091C26.4589 5.89106 26.3157 5.86979 26.2618 5.84853C25.733 5.63303 25.7458 4.8093 26.276 4.60373C26.3781 4.56403 26.5213 4.54843 26.7042 4.55694C28.4622 4.63917 29.8701 6.01866 29.9934 7.75826C30.155 10.0409 28.1163 11.8131 25.8847 11.3835C24.5549 11.1283 23.4986 10.116 23.1853 8.79891C22.9173 7.67745 23.2307 6.44683 24.0572 5.60609C24.7448 4.90855 25.7075 5.83577 25.0071 6.58718C24.2032 7.44919 24.2727 8.84286 25.19 9.60136C26.1413 10.3896 27.6385 10.2167 28.3148 9.13633Z" fill="#008B55"/>
<path d="M5.81786 7.4565C5.81786 7.44799 5.81219 7.44232 5.80369 7.44232C5.79943 7.44232 5.79518 7.44515 5.79235 7.44799C5.2465 8.20933 4.70208 8.96925 4.15624 9.72918C4.00454 9.94043 3.80038 10.0383 3.54376 10.0241C3.32259 10.0113 3.14537 9.91065 3.0121 9.72351C2.08488 8.41774 1.1534 7.11339 0.219094 5.81188C0.10142 5.64884 0.0333667 5.5184 0.0135179 5.422C-0.101321 4.86623 0.53951 4.40262 1.02722 4.7046C1.10804 4.75423 1.20303 4.85489 1.31361 5.00943C2.06787 6.05999 2.82212 7.10914 3.57354 8.15687C3.58204 8.16822 3.59622 8.16963 3.60756 8.16254C3.6104 8.16113 3.61182 8.15971 3.61323 8.15687C4.34764 7.13466 5.08346 6.10961 5.8207 5.08173C5.96957 4.87474 6.09433 4.74288 6.19783 4.68476C6.62458 4.44799 7.17325 4.77833 7.17467 5.29156C7.18176 7.06803 7.18459 8.84307 7.18459 10.6181C7.18459 10.7712 7.16758 10.8875 7.13355 10.9669C6.89679 11.5198 6.06172 11.5113 5.86465 10.9485C5.83346 10.8591 5.81928 10.6975 5.81928 10.4622C5.82495 9.45839 5.82354 8.45602 5.81786 7.4565Z" fill="#008B55"/>
<path d="M17.4986 10.0137C18.3847 10.0349 18.9433 10.0335 19.173 10.0108C19.8975 9.93852 20.5511 9.5784 20.8247 8.87661C21.036 8.33786 21.0232 7.60912 20.802 7.08171C20.4547 6.25799 19.6508 5.96593 18.7803 5.96735C18.1636 5.96735 17.5483 5.96734 16.9315 5.96593C16.7316 5.96593 16.5856 5.94324 16.4934 5.89787C15.9717 5.64551 16.0114 4.90827 16.526 4.67859C16.6196 4.63606 16.7444 4.61621 16.8989 4.61621C17.5695 4.61763 18.2387 4.61905 18.9079 4.62046C20.9807 4.6233 22.414 6.08502 22.3361 8.13937C22.2581 10.1639 20.7935 11.3889 18.8455 11.3846C18.2089 11.3832 17.5738 11.3832 16.9386 11.3846C16.7685 11.3846 16.6338 11.3648 16.5374 11.3208C16.0596 11.1096 16.1234 10.7254 16.122 10.1824C16.1191 9.30903 16.1191 8.43426 16.1191 7.5595C16.1191 7.32415 16.1362 7.16252 16.1688 7.07462C16.3176 6.66914 16.8195 6.54296 17.1839 6.76413C17.381 6.88464 17.4802 7.08029 17.4816 7.35251C17.4845 8.23152 17.4845 9.11054 17.4816 9.99097C17.4759 10.0052 17.483 10.0137 17.4986 10.0137Z" fill="#008B55"/>
<path d="M0.65378 7.99951H0.707655C1.06493 7.99951 1.35558 8.28874 1.35558 8.64743V10.7301C1.35558 11.0874 1.06635 11.3781 0.707655 11.3781H0.65378C0.296502 11.3781 0.00585938 11.0888 0.00585938 10.7301V8.64601C0.00585938 8.28874 0.296502 7.99951 0.65378 7.99951Z" fill="#008B55"/>
</g>
<defs>
<clipPath id="clip0_9334_10434">
<rect width="30" height="6.89887" fill="white" transform="translate(0 4.55054)"/>
</clipPath>
</defs>
</svg>
