<svg width="16" height="16" viewBox="0 0 16 16" fill="none" xmlns="http://www.w3.org/2000/svg">
<g clip-path="url(#clip0_9334_10367)">
<path d="M13.6975 0H2.3025C1.03086 0 0 1.03086 0 2.3025V13.6975C0 14.9691 1.03086 16 2.3025 16H13.6975C14.9691 16 16 14.9691 16 13.6975V2.3025C16 1.03086 14.9691 0 13.6975 0Z" fill="#00DE5A"/>
<path d="M5.5799 5.1875L4.70508 7.41599H5.44934L5.55379 7.12004H6.38948L6.49392 7.41599H7.23826L6.36337 5.1875H5.57554H5.5799ZM5.72354 6.58467L5.97163 5.88826L6.21972 6.58467H5.72354Z" fill="black"/>
<path d="M10.3247 6.56728H11.3432V6.0319H10.3247V5.73159H11.3519V5.1875H9.61523V7.41599H11.3737V6.86759H10.3247V6.56728Z" fill="black"/>
<path d="M8.12209 6.64998L7.59981 5.1875H6.85547L7.73036 7.41599H8.51383L9.38865 5.1875H8.64438L8.12209 6.64998Z" fill="black"/>
<path d="M3.75536 6.38007L2.92403 5.1875H2.23633V7.41599H2.95887V6.22341L3.78583 7.41599H4.47351V5.1875H3.75536V6.38007Z" fill="black"/>
<path d="M13.28 6.65001L13.3496 6.6239C13.6064 6.51509 13.7414 6.28002 13.7414 5.98407C13.7414 5.70115 13.6369 5.49658 13.4367 5.366C13.2495 5.24412 13.0057 5.19189 12.6706 5.19189H11.7305V7.42039H12.4269V6.79802H12.6793L13.1059 7.42039H13.8502L13.2887 6.65874L13.28 6.65001ZM12.7925 6.22344H12.4095V5.75337H12.7925C12.9231 5.75337 13.0276 5.85781 13.0276 5.98844C13.0276 6.11899 12.9231 6.22344 12.7925 6.22344Z" fill="black"/>
<path d="M11.2657 8.77906L10.6477 10.1893L9.94693 8.77906H9.40719L10.3995 10.7377L9.99042 11.6518H10.5127L11.7881 8.78342H11.2657V8.77906ZM9.11124 10.9597H8.59761V10.7551C8.41483 10.9161 8.19285 11.0032 7.92295 11.0032C7.30924 11.0032 6.83051 10.5027 6.83051 9.8672C6.83051 9.23174 7.30924 8.7312 7.92295 8.7312C8.18849 8.7312 8.41047 8.81819 8.59761 8.97929V8.7747H9.11124V10.9553V10.9597ZM8.65856 9.87156C8.65856 9.46238 8.37127 9.14905 7.99262 9.14905C7.61391 9.14905 7.32669 9.46238 7.32669 9.87156C7.32669 10.2807 7.61391 10.5941 7.99262 10.5941C8.37127 10.5941 8.65856 10.2807 8.65856 9.87156ZM4.29297 11.6518H4.82828V10.7769C5.00676 10.9249 5.22438 11.0076 5.48119 11.0076C6.0949 11.0076 6.5737 10.507 6.5737 9.87156C6.5737 9.23604 6.0949 8.7355 5.48119 8.7355C5.21572 8.7355 4.99374 8.82256 4.80653 8.98365V8.77906H4.29297V11.6474V11.6518ZM5.41158 9.14905C5.79023 9.14905 6.07752 9.46238 6.07752 9.87156C6.07752 10.2807 5.79023 10.5941 5.41158 10.5941C5.03287 10.5941 4.74558 10.2807 4.74558 9.87156C4.74558 9.46238 5.03287 9.14905 5.41158 9.14905Z" fill="black"/>
</g>
<defs>
<clipPath id="clip0_9334_10367">
<rect width="16" height="16" fill="white"/>
</clipPath>
</defs>
</svg>
