<svg width="25" height="16" viewBox="0 0 25 16" fill="none" xmlns="http://www.w3.org/2000/svg">
<g clip-path="url(#clip0_9334_10474)">
<g clip-path="url(#clip1_9334_10474)">
<path fill-rule="evenodd" clip-rule="evenodd" d="M6.72913 10.6163C5.97628 11.3319 4.97358 11.725 3.93496 11.7117C2.89117 11.7275 1.88263 11.3343 1.12491 10.6163C0.768384 10.2706 0.484931 9.85676 0.291361 9.39942C0.0977905 8.94207 -0.00195313 8.45051 -0.00195312 7.95389C-0.00195313 7.45727 0.0977905 6.96571 0.291361 6.50836C0.484931 6.05102 0.768384 5.63721 1.12491 5.29148C1.88167 4.56918 2.89212 4.17344 3.93813 4.18969C4.97676 4.1764 5.97946 4.56951 6.73231 5.28513C7.08923 5.63063 7.37303 6.04437 7.56685 6.50174C7.76068 6.95911 7.86056 7.45079 7.86056 7.94754C7.86056 8.44429 7.76068 8.93596 7.56685 9.39334C7.37303 9.85071 7.08923 10.2644 6.73231 10.6099M3.93813 5.41532C3.6066 5.41211 3.27786 5.47611 2.97175 5.60344C2.66563 5.73078 2.38848 5.91881 2.15703 6.15619C1.92558 6.39358 1.74462 6.6754 1.62508 6.98464C1.50553 7.29388 1.44988 7.62414 1.46148 7.95548C1.46148 8.27988 1.52537 8.60111 1.64952 8.90082C1.77366 9.20053 1.95562 9.47286 2.18501 9.70225C2.4144 9.93164 2.68673 10.1136 2.98644 10.2377C3.28615 10.3619 3.60738 10.4258 3.93178 10.4258C4.25619 10.4258 4.57742 10.3619 4.87713 10.2377C5.17684 10.1136 5.44916 9.93164 5.67855 9.70225C5.90794 9.47286 6.0899 9.20053 6.21405 8.90082C6.33819 8.60111 6.40209 8.27988 6.40209 7.95548C6.41363 7.62521 6.35837 7.29602 6.2396 6.98763C6.12084 6.67924 5.94102 6.39801 5.71093 6.16081C5.48084 5.9236 5.20521 5.7353 4.90059 5.6072C4.59596 5.4791 4.2686 5.41383 3.93813 5.41532ZM16.0039 5.07557L12.9843 11.8102L12.8128 11.7784C11.9492 11.6228 11.7745 11.4069 11.3713 10.5306L9.10736 5.59948H8.25641V4.40243H11.4729V5.59948H10.7045L12.5239 9.67961L14.2893 5.59948H13.3367V4.40243H16.0039V5.07557ZM23.3069 10.6163C22.5443 11.3206 21.5444 11.7117 20.5063 11.7117C19.4683 11.7117 18.4684 11.3206 17.7058 10.6163C17.3493 10.2706 17.0658 9.85676 16.8723 9.39942C16.6787 8.94207 16.5789 8.45051 16.5789 7.95389C16.5789 7.45727 16.6787 6.96571 16.8723 6.50836C17.0658 6.05102 17.3493 5.63721 17.7058 5.29148C18.4684 4.58722 19.4683 4.19613 20.5063 4.19613C21.5444 4.19613 22.5443 4.58722 23.3069 5.29148C23.6646 5.63652 23.9491 6.05011 24.1434 6.50755C24.3377 6.96498 24.4379 7.45689 24.4379 7.95389C24.4379 8.45089 24.3377 8.9428 24.1434 9.40023C23.9491 9.85767 23.6646 10.2713 23.3069 10.6163ZM20.5286 5.41532C20.1969 5.41213 19.868 5.47611 19.5617 5.60341C19.2554 5.73071 18.9781 5.91869 18.7464 6.15603C18.5147 6.39337 18.3334 6.67515 18.2135 6.9844C18.0936 7.29366 18.0376 7.62398 18.0487 7.95548C18.0487 8.27988 18.1126 8.60111 18.2368 8.90082C18.3609 9.20053 18.5429 9.47286 18.7723 9.70225C19.0016 9.93164 19.274 10.1136 19.5737 10.2377C19.8734 10.3619 20.1946 10.4258 20.519 10.4258C20.8434 10.4258 21.1647 10.3619 21.4644 10.2377C21.7641 10.1136 22.0364 9.93164 22.2658 9.70225C22.4952 9.47286 22.6771 9.20053 22.8013 8.90082C22.9254 8.60111 22.9893 8.27988 22.9893 7.95548C23.0013 7.62537 22.9465 7.29624 22.828 6.98787C22.7096 6.67949 22.5301 6.39823 22.3003 6.16098C22.0704 5.92372 21.795 5.73537 21.4906 5.60723C21.1861 5.47909 20.8589 5.41382 20.5286 5.41532Z" fill="#4B2489"/>
</g>
</g>
<defs>
<clipPath id="clip0_9334_10474">
<rect width="24.449" height="16" fill="white"/>
</clipPath>
<clipPath id="clip1_9334_10474">
<rect width="24.449" height="7.62048" fill="white" transform="translate(0 4.1897)"/>
</clipPath>
</defs>
</svg>
