<svg width="23" height="16" viewBox="0 0 23 16" fill="none" xmlns="http://www.w3.org/2000/svg">
<g clip-path="url(#clip0_9334_10576)">
<path d="M0 3.64454C0 2.88492 0.610083 2.26855 1.36342 2.26855H21.3661C22.1188 2.26855 22.7295 2.88492 22.7295 3.64454V12.3484C22.7295 13.108 22.1188 13.7238 21.3661 13.7238H1.36342C0.610083 13.7238 0 13.108 0 12.3484V3.64454Z" fill="white"/>
<path d="M0.0175781 3.50563C0.0175781 2.80696 0.57928 2.24023 1.27167 2.24023H21.481C22.1734 2.24023 22.7345 2.80696 22.7345 3.50563V3.54585H0.0175781V3.50563Z" fill="#FBB110"/>
<path d="M22.7345 12.4634V12.4948C22.7345 13.1935 22.1734 13.7602 21.481 13.7602H1.27167C0.57928 13.7602 0.0175781 13.1935 0.0175781 12.4948V12.4634H22.7345Z" fill="#FBB110"/>
<path d="M15.7396 7.98687C15.7396 9.75554 17.1602 11.1893 18.9131 11.1893C20.6655 11.1893 22.0867 9.75554 22.0867 7.98687C22.0867 6.21757 20.6655 4.78379 18.9131 4.78379C17.1602 4.78379 15.7396 6.21757 15.7396 7.98687ZM0.608811 7.98687C0.608811 9.75554 2.03003 11.1893 3.783 11.1893C5.53533 11.1893 6.95655 9.75554 6.95655 7.98687C6.95655 6.21757 5.53533 4.78379 3.783 4.78379C2.03003 4.78379 0.608811 6.21757 0.608811 7.98687ZM22.7345 11.8572H7.08661C7.36872 11.6574 7.63135 11.3841 7.91785 11.0153L9.51186 8.96263L10.208 9.85042L10.9827 8.81058L10.3054 7.94038L11.9277 5.85065C12.4429 5.18779 11.4577 4.40869 10.9425 5.07155L9.50872 6.91876L8.05105 5.04705C7.53522 4.38607 6.55192 5.16705 7.06776 5.82865L8.71517 7.94101L6.93267 10.2362C6.29935 11.0517 5.66727 11.7994 4.41255 11.8572H0.0175781V4.15234H15.5831C15.3155 4.34963 15.0629 4.61415 14.789 4.96725L13.1956 7.01929L12.4988 6.13212L11.7247 7.17196L12.402 8.04154L10.7791 10.1313C10.2646 10.7941 11.2497 11.5732 11.7643 10.9104L13.1987 9.06378L14.6564 10.9349C15.1722 11.5965 16.1555 10.8155 15.6397 10.1539L13.9923 8.04091L15.7748 5.74635C16.3566 4.99615 16.9378 4.30376 18.0021 4.15234H22.7345V11.8572ZM17.0132 7.98687C17.0132 6.92756 17.8639 6.06929 18.9131 6.06929C19.9624 6.06929 20.8125 6.92756 20.8125 7.98687C20.8125 9.04556 19.9624 9.90382 18.9131 9.90382C17.8639 9.90382 17.0132 9.04556 17.0132 7.98687ZM1.88301 7.98687C1.88301 6.92756 2.73373 6.06929 3.783 6.06929C4.83163 6.06929 5.68235 6.92756 5.68235 7.98687C5.68235 9.04556 4.83163 9.90382 3.783 9.90382C2.73373 9.90382 1.88301 9.04556 1.88301 7.98687Z" fill="#E70020"/>
</g>
<defs>
<clipPath id="clip0_9334_10576">
<rect width="22.7336" height="16" fill="white"/>
</clipPath>
</defs>
</svg>
