<svg width="14" height="16" viewBox="0 0 14 16" fill="none" xmlns="http://www.w3.org/2000/svg">
<g clip-path="url(#clip0_9319_29937)">
<g clip-path="url(#clip1_9319_29937)">
<path d="M11.3526 3.67356C11.3526 5.65196 9.51952 7.986 6.74606 7.986H4.0745L3.94337 8.81015L3.32011 12.7776H0L1.99734 0H7.37644C9.18776 0 10.6128 1.00553 11.1377 2.4029C11.2891 2.80918 11.362 3.2403 11.3526 3.67356Z" fill="#002991"/>
<path d="M13.2675 7.3469C12.9015 9.56197 10.9765 11.1856 8.72263 11.1802H6.86747L6.09526 15.9718H2.79297L3.32144 12.7774L3.94505 8.80994L4.07583 7.98578H6.74738C9.51729 7.98578 11.3539 5.65174 11.3539 3.67334C12.7169 4.37398 13.5116 5.78981 13.2675 7.3469Z" fill="#60CDFF"/>
<path d="M11.3523 3.67398C10.7807 3.3762 10.0876 3.19482 9.33323 3.19482H4.82897L4.07422 7.98642H6.74577C9.51568 7.98642 11.3523 5.65238 11.3523 3.67398Z" fill="#008CFF"/>
</g>
</g>
<defs>
<clipPath id="clip0_9319_29937">
<rect width="13.31" height="16" fill="white"/>
</clipPath>
<clipPath id="clip1_9319_29937">
<rect width="13.31" height="15.972" fill="white"/>
</clipPath>
</defs>
</svg>
