<svg width="42" height="16" viewBox="0 0 42 16" fill="none" xmlns="http://www.w3.org/2000/svg">
<g clip-path="url(#clip0_9334_10485)">
<g clip-path="url(#clip1_9334_10485)">
<path d="M7.52978 7.6318C7.52522 7.49094 7.45881 7.41823 7.32989 7.41345H6.64121C6.47821 7.42343 6.394 7.51286 6.39009 7.68106V8.91973C6.394 9.09336 6.48711 9.18192 6.66812 9.18691H7.29928C7.36483 9.18691 7.41931 9.1626 7.46272 9.1129C7.50808 9.07556 7.52978 9.0276 7.52978 8.96813V7.6318ZM5.50586 7.45599C5.51042 7.14605 5.57944 6.91056 5.71335 6.74952C5.78346 6.68202 5.87114 6.62559 5.97793 6.57892C6.08884 6.52922 6.19627 6.50513 6.30045 6.50513H7.56451C8.12209 6.5099 8.40555 6.81485 8.41445 7.42061V9.28501C8.41033 9.5001 8.32611 9.68676 8.16333 9.84281C8.00207 10.0069 7.80955 10.0905 7.58535 10.0954H6.39009V11.4396H5.50586V7.45599Z" fill="#008AC9"/>
<path d="M10.0114 9.00698C10.0114 9.05885 10.0353 9.09987 10.0819 9.13069C10.1236 9.16759 10.1761 9.18691 10.2426 9.18691H10.9217C11.0751 9.18691 11.1548 9.12744 11.1593 9.00698V8.75347C11.1593 8.615 11.0784 8.54511 10.9152 8.54511H10.2426C10.154 8.54511 10.0928 8.55987 10.0587 8.58765C10.0272 8.62043 10.0114 8.68532 10.0114 8.78147V9.00698ZM11.1593 7.60987C11.1639 7.47401 11.0847 7.40911 10.9215 7.41345H9.14063V6.50513H11.1457C11.7297 6.51468 12.0262 6.79683 12.0362 7.35398V9.25419C12.0312 9.49446 11.9576 9.69262 11.8148 9.85019C11.6655 10.0134 11.473 10.0954 11.237 10.0954H10.0251C9.43515 10.0905 9.13607 9.82111 9.12695 9.28566V8.55249C9.13151 7.99295 9.41736 7.70863 9.98319 7.69886H11.1593V7.60987Z" fill="#008AC9"/>
<path d="M14.5187 10.5311C14.5888 10.5267 14.6496 10.5015 14.6988 10.4564C14.7461 10.4143 14.77 10.3659 14.77 10.311V10.0954H13.6379C13.4903 10.0954 13.3723 10.0766 13.2841 10.039C13.191 10.0049 13.0984 9.94135 13.005 9.85106C12.9167 9.75534 12.8531 9.65529 12.8145 9.55067C12.7743 9.45495 12.7539 9.33319 12.7539 9.18691V6.50513H13.6379V8.89911C13.6379 9.09097 13.7163 9.18691 13.8749 9.18691H14.4991C14.5734 9.18691 14.6378 9.1626 14.6919 9.1129C14.744 9.07079 14.77 9.02087 14.77 8.96227V6.50513H15.6469V10.4614C15.6419 10.7542 15.5668 10.9886 15.422 11.1663C15.2751 11.3441 15.0741 11.435 14.8178 11.4396H12.7539V10.5311H14.5187Z" fill="#008AC9"/>
<path d="M16.3438 9.18691H17.9193C18.0634 9.18192 18.1383 9.12418 18.1428 9.01349V8.93188C18.1428 8.90822 18.1357 8.88196 18.1218 8.85375C18.0866 8.78516 18.0434 8.75109 17.992 8.75109H17.2108C16.979 8.74653 16.7813 8.66666 16.6151 8.51256C16.4468 8.37018 16.3607 8.19502 16.3557 7.98948V7.31209C16.3648 6.78359 16.652 6.51468 17.2176 6.50513H19.0448V7.41345H17.4967C17.315 7.41345 17.2234 7.46923 17.2234 7.58036V7.66826C17.2234 7.78351 17.317 7.84124 17.5034 7.84124H18.2822C18.4897 7.84602 18.6665 7.92545 18.8139 8.08042C18.9628 8.23648 19.0401 8.42205 19.0448 8.63757V9.3002C19.0401 9.48643 18.9539 9.67221 18.7883 9.85757C18.7076 9.94851 18.6249 10.011 18.5422 10.0464C18.4567 10.079 18.3405 10.0954 18.1923 10.0954H16.3438V9.18691Z" fill="#008AC9"/>
<path d="M20.5535 9.00698C20.5535 9.05885 20.5774 9.09987 20.6251 9.13069C20.6664 9.16759 20.7191 9.18691 20.7847 9.18691H21.4651C21.6185 9.18691 21.6978 9.12744 21.7023 9.00698V8.75347C21.7023 8.615 21.6203 8.54511 21.4577 8.54511H20.7847C20.6963 8.54511 20.6353 8.55987 20.6015 8.58765C20.57 8.62043 20.5535 8.68532 20.5535 8.78147V9.00698ZM21.7023 7.60987C21.7062 7.47401 21.627 7.40911 21.4636 7.41345H19.6832V6.50513H21.6889C22.2723 6.51468 22.569 6.79683 22.5781 7.35398V9.25419C22.5733 9.49446 22.4991 9.69262 22.3571 9.85019C22.2089 10.0134 22.0162 10.0954 21.78 10.0954H20.567C19.9775 10.0905 19.6782 9.82111 19.6699 9.28566V8.55249C19.6738 7.99295 19.9595 7.70863 20.5257 7.69886H21.7023V7.60987Z" fill="#008AC9"/>
<path d="M23.3008 5.99002C23.3062 5.74476 23.3965 5.5479 23.5736 5.40031C23.7455 5.25034 23.9712 5.17329 24.2503 5.16895H24.8118V6.04645H24.4717C24.2849 6.05079 24.1896 6.14021 24.1854 6.31298V6.50528H24.8118V7.41447H24.1854V10.0958H23.3008V5.99002Z" fill="#008AC9"/>
<path d="M27.3271 7.59295V7.57189C27.3271 7.52523 27.3082 7.48551 27.2702 7.45599C27.229 7.42734 27.1786 7.41345 27.1181 7.41345H26.5025C26.4235 7.41345 26.3599 7.43559 26.3107 7.48095C26.2495 7.52284 26.2184 7.57797 26.2184 7.6459V8.01054L27.3271 7.59295ZM26.2325 8.87697V8.93362C26.2325 9.00633 26.2514 9.06406 26.2898 9.10595C26.3176 9.15956 26.355 9.18691 26.4047 9.18691H28.2211V10.0954H26.2898C26.1136 10.0954 25.9762 10.079 25.8792 10.046C25.7731 10.011 25.6778 9.95394 25.5947 9.8745C25.4974 9.77835 25.4312 9.68046 25.398 9.57975C25.3615 9.47471 25.3435 9.33536 25.3435 9.16173L25.3359 7.34356C25.3457 6.79423 25.6326 6.51468 26.1965 6.50513H27.3885C27.9391 6.51468 28.218 6.80399 28.2269 7.3746V8.09279L26.2325 8.87697Z" fill="#008AC9"/>
<path d="M30.0981 10.0942C29.9642 10.0942 29.842 10.0819 29.7311 10.0593C29.615 10.0404 29.4993 9.98658 29.381 9.89564C29.2597 9.78994 29.1757 9.67143 29.1297 9.54055C29.0811 9.41185 29.0576 9.26599 29.0576 9.10191V7.40659C29.0526 7.26833 29.0665 7.14701 29.0989 7.04174C29.1286 6.93669 29.1911 6.83381 29.2855 6.73311C29.3932 6.62741 29.503 6.55708 29.6189 6.52257C29.7305 6.49458 29.8561 6.48047 29.997 6.48047H31.3522V6.69295H30.0285C29.7947 6.69295 29.6111 6.74092 29.4767 6.83707C29.3394 6.9419 29.2692 7.1227 29.2692 7.37751V9.07391C29.2692 9.19329 29.2875 9.3094 29.3237 9.4214C29.3608 9.53144 29.4227 9.62802 29.5115 9.71245C29.6078 9.7856 29.7038 9.83117 29.7973 9.84984C29.8948 9.87133 29.9994 9.88153 30.1103 9.88153H31.3735V10.0942H30.0981Z" fill="#008AC9"/>
<path d="M34.8328 7.89472H33.0561C32.8434 7.89949 32.6767 7.96526 32.5567 8.09201C32.4325 8.22072 32.3711 8.39717 32.3711 8.62138V9.16247C32.3711 9.2673 32.382 9.36323 32.4045 9.44961C32.4269 9.54055 32.4827 9.62173 32.5708 9.6914C32.7243 9.81859 32.8942 9.88153 33.08 9.88153H34.1565C34.6064 9.87675 34.8328 9.63974 34.8328 9.16919V7.89472ZM35.044 9.11624C35.044 9.25276 35.0336 9.37256 35.016 9.47805C34.9874 9.59264 34.9285 9.70312 34.8393 9.80817C34.6538 10.0037 34.4237 10.099 34.1491 10.0942H33.0928C32.8182 10.0942 32.5958 10.0122 32.4234 9.84897C32.2474 9.68771 32.1582 9.4635 32.1582 9.17592V8.62941C32.1671 8.01279 32.4742 7.69699 33.0793 7.68267H34.8393V7.44349C34.8393 7.24641 34.7823 7.07386 34.6687 6.92541C34.5967 6.82904 34.5114 6.76458 34.4146 6.73137C34.3167 6.70576 34.2069 6.69295 34.0845 6.69295H32.1645V6.48047H33.9846C34.1511 6.48047 34.3015 6.49219 34.4378 6.5152C34.5079 6.52909 34.5715 6.55643 34.6303 6.59594C34.6926 6.63348 34.7508 6.6884 34.8046 6.76045C34.9678 6.97099 35.0475 7.21386 35.044 7.48733V9.11624Z" fill="#008AC9"/>
<path d="M37.032 6.69295C36.5393 6.70207 36.2965 6.97098 36.3056 7.50014V10.0942H36.094V7.501C36.084 6.82036 36.408 6.48047 37.0661 6.48047H37.3014V6.69295H37.032Z" fill="#008AC9"/>
<path d="M40.6144 6.69582H38.9397C38.819 6.69582 38.7109 6.70928 38.6135 6.73489C38.5115 6.7579 38.4129 6.81975 38.3207 6.92046C38.2324 7.01227 38.1768 7.10321 38.1536 7.19415C38.1225 7.28596 38.1084 7.396 38.1134 7.52427V9.17814C38.1134 9.45313 38.1931 9.64022 38.3546 9.74071C38.4342 9.78738 38.5217 9.82232 38.6198 9.84576C38.7175 9.87181 38.8264 9.88461 38.9464 9.88461H39.6787C39.9522 9.88461 40.176 9.82167 40.3479 9.6947C40.5206 9.57554 40.6085 9.37001 40.6144 9.077V6.69582ZM40.8258 9.09154C40.8071 9.77609 40.4449 10.1116 39.7393 10.0975H38.9542C38.7884 10.0975 38.6402 10.083 38.5091 10.0554C38.3741 10.0205 38.2449 9.93822 38.1206 9.80995C38.027 9.6947 37.9669 9.57815 37.9428 9.45878C37.9105 9.33962 37.8964 9.20701 37.9014 9.06224V7.51885C37.9105 6.82366 38.2606 6.47813 38.9525 6.48334H40.6144V5.31152H40.8258V9.09154Z" fill="#008AC9"/>
<path d="M0.593531 6.36968C0.662985 6.33908 0.732438 6.3152 0.801892 6.30023C0.929513 5.69077 1.4693 5.23368 2.1163 5.23368C2.76374 5.23368 3.30374 5.69142 3.43115 6.30066C3.62974 6.33843 3.79404 6.41873 3.9221 6.53832C3.92731 6.42134 3.92253 6.30869 3.90864 6.20256C3.82682 5.28186 3.0548 4.55933 2.11348 4.55933C1.14439 4.55933 0.355435 5.32744 0.314414 6.28764C0.308771 6.37055 0.307035 6.45693 0.310073 6.54722C0.391464 6.47863 0.484359 6.41699 0.593531 6.36968Z" fill="#E3001B"/>
<path d="M3.16923 6.50513H1.00965C0.905691 6.50513 0.798038 6.52922 0.687129 6.57892C0.580126 6.62559 0.492442 6.68202 0.42212 6.74952C0.288204 6.91056 0.219619 7.14605 0.214844 7.45599V9.14415C0.219619 9.45474 0.288204 9.69001 0.42212 9.85019C0.492442 9.91878 0.580126 9.97521 0.687129 10.0223C0.798038 10.0709 0.905691 10.0954 1.00965 10.0954H3.16923C3.72703 10.0905 4.0107 9.78443 4.0196 9.17953V7.42061C4.0107 6.81485 3.72703 6.5099 3.16923 6.50513Z" fill="#E3001B"/>
</g>
</g>
<defs>
<clipPath id="clip0_9334_10485">
<rect width="41.04" height="16" fill="white"/>
</clipPath>
<clipPath id="clip1_9334_10485">
<rect width="41.04" height="7.29422" fill="white" transform="translate(0 4.35278)"/>
</clipPath>
</defs>
</svg>
