<svg width="34" height="16" viewBox="0 0 34 16" fill="none" xmlns="http://www.w3.org/2000/svg">
<g clip-path="url(#clip0_9334_10394)">
<g clip-path="url(#clip1_9334_10394)">
<path d="M13.8242 13.1654V6.33643C13.8242 5.07988 14.8428 4.06128 16.0993 4.06128L18.1156 4.06432C19.3685 4.0668 20.3828 5.08317 20.3828 6.33607V7.78964C20.3828 9.04619 19.3642 10.0648 18.1077 10.0648H15.2585" stroke="#939598" stroke-width="0.420611" stroke-miterlimit="10" stroke-linecap="round" stroke-linejoin="round"/>
<path d="M20.9453 4.05957H21.8199C22.3356 4.05957 22.7536 4.47759 22.7536 4.99327V10.0945" stroke="#939598" stroke-width="0.420611" stroke-miterlimit="10" stroke-linecap="round" stroke-linejoin="round"/>
<path d="M22.5681 3.26958L22.1715 2.87289C22.073 2.77448 22.073 2.6149 22.1715 2.51649L22.5679 2.12006C22.6665 2.0215 22.8263 2.0215 22.9248 2.12006L23.3212 2.51649C23.4196 2.6149 23.4196 2.77448 23.3212 2.87289L22.9245 3.26958C22.8261 3.36799 22.6666 3.36799 22.5681 3.26958Z" fill="#32BCAD"/>
<path d="M24.4316 4.05566H25.299C25.7453 4.05566 26.1732 4.23294 26.4887 4.54841L28.5175 6.57724C28.7803 6.84006 29.2064 6.84006 29.4692 6.57724L31.4906 4.55584C31.8061 4.24037 32.234 4.06309 32.6802 4.06309H33.3855" stroke="#939598" stroke-width="0.420611" stroke-miterlimit="10" stroke-linecap="round" stroke-linejoin="round"/>
<path d="M24.4316 10.0497H25.299C25.7453 10.0497 26.1732 9.87247 26.4887 9.557L28.5175 7.52817C28.7803 7.26535 29.2064 7.26535 29.4692 7.52817L31.4906 9.54957C31.8061 9.86504 32.234 10.0423 32.6802 10.0423H33.3855" stroke="#939598" stroke-width="0.420611" stroke-miterlimit="10" stroke-linecap="round" stroke-linejoin="round"/>
<path d="M8.65313 11.3459C8.21781 11.3459 7.80836 11.1764 7.50052 10.8687L5.83627 9.20443C5.71941 9.08728 5.51576 9.08763 5.39896 9.20443L3.72863 10.8748C3.42079 11.1825 3.01134 11.352 2.57602 11.352H2.24805L4.35588 13.4598C5.01414 14.1181 6.08145 14.1181 6.73976 13.4598L8.85358 11.3459H8.65313Z" fill="#32BCAD"/>
<path d="M2.57593 5.46011C3.01124 5.46011 3.42069 5.62961 3.72853 5.9373L5.39886 7.60793C5.51916 7.72828 5.71558 7.72872 5.83617 7.60779L7.50042 5.94339C7.80826 5.6357 8.2177 5.4662 8.65302 5.4662H8.85348L6.73971 3.35238C6.08135 2.69406 5.01405 2.69406 4.35579 3.35238L2.24805 5.46011L2.57593 5.46011Z" fill="#32BCAD"/>
<path d="M10.6022 7.21314L9.32476 5.93575C9.29665 5.94701 9.26618 5.95404 9.23403 5.95404H8.65324C8.35297 5.95404 8.05904 6.07584 7.84686 6.28816L6.18267 7.95241C6.02693 8.10815 5.82228 8.18607 5.61783 8.18607C5.41319 8.18607 5.20869 8.10815 5.053 7.95256L3.38252 6.28208C3.17034 6.0697 2.87641 5.94796 2.57614 5.94796H1.862C1.83154 5.94796 1.80307 5.94079 1.7762 5.93066L0.493733 7.21314C-0.164578 7.87145 -0.164578 8.9387 0.493733 9.59701L1.77615 10.8794C1.80307 10.8693 1.83154 10.8621 1.862 10.8621H2.57614C2.87641 10.8621 3.17034 10.7404 3.38252 10.5281L5.05285 8.85774C5.35476 8.55608 5.88105 8.55598 6.18267 8.85788L7.84686 10.522C8.05904 10.7343 8.35297 10.8561 8.65324 10.8561H9.23403C9.26618 10.8561 9.29665 10.8631 9.32476 10.8744L10.6022 9.59701C11.2604 8.93869 11.2604 7.87145 10.6022 7.21314Z" fill="#32BCAD"/>
<path d="M15.5587 12.5841C15.4644 12.5841 15.3547 12.6068 15.2462 12.6318V13.048C15.3214 13.0754 15.4072 13.0886 15.4895 13.0886C15.6982 13.0886 15.7972 13.0183 15.7972 12.8344C15.7972 12.6617 15.7161 12.5841 15.5587 12.5841ZM15.1758 13.357V12.534H15.2331L15.239 12.5698C15.3356 12.5471 15.4692 12.5173 15.5646 12.5173C15.6422 12.5173 15.7161 12.5291 15.7781 12.5793C15.8497 12.6378 15.8723 12.732 15.8723 12.8344C15.8723 12.942 15.8365 13.0433 15.7387 13.0993C15.6708 13.1375 15.5789 13.153 15.4966 13.153C15.4119 13.153 15.3309 13.1398 15.2462 13.1148V13.357H15.1758Z" fill="#939598"/>
<path d="M16.3945 12.5817C16.1858 12.5817 16.0928 12.6474 16.0928 12.831C16.0928 13.0087 16.1846 13.0887 16.3945 13.0887C16.602 13.0887 16.695 13.0242 16.695 12.8405C16.695 12.6629 16.6033 12.5817 16.3945 12.5817ZM16.6628 13.0887C16.5936 13.1387 16.5007 13.153 16.3945 13.153C16.286 13.153 16.1929 13.1375 16.125 13.0887C16.0486 13.035 16.0176 12.9467 16.0176 12.8358C16.0176 12.726 16.0486 12.6367 16.125 12.5817C16.1929 12.5329 16.286 12.5173 16.3945 12.5173C16.5018 12.5173 16.5936 12.5329 16.6628 12.5817C16.7404 12.6367 16.7702 12.726 16.7702 12.8345C16.7702 12.9455 16.7392 13.035 16.6628 13.0887Z" fill="#939598"/>
<path d="M17.6526 13.1372L17.42 12.6376H17.4152L17.1863 13.1372H17.1231L16.875 12.5349H16.9525L17.1589 13.0406H17.1637L17.3878 12.5349H17.4522L17.6824 13.0406H17.6872L17.8888 12.5349H17.9639L17.7158 13.1372H17.6526Z" fill="#939598"/>
<path d="M18.4154 12.5805C18.2223 12.5805 18.1566 12.6663 18.1447 12.7905H18.6862C18.6803 12.6533 18.6098 12.5805 18.4154 12.5805ZM18.4131 13.153C18.2973 13.153 18.2223 13.1363 18.1626 13.0862C18.0922 13.0253 18.0684 12.9371 18.0684 12.8358C18.0684 12.7392 18.1006 12.6366 18.1805 12.5782C18.2473 12.5317 18.3296 12.5173 18.4154 12.5173C18.493 12.5173 18.5824 12.5257 18.6563 12.5758C18.7434 12.6342 18.7602 12.7368 18.7602 12.8536H18.1423C18.1447 12.9776 18.1853 13.0875 18.419 13.0875C18.5299 13.0875 18.6337 13.0695 18.7303 13.0528V13.116C18.6301 13.134 18.5192 13.153 18.4131 13.153Z" fill="#939598"/>
<path d="M18.9609 13.1363V12.534H19.0182L19.0242 12.5698C19.1518 12.5377 19.2114 12.5173 19.3235 12.5173H19.3319V12.5841H19.3152C19.221 12.5841 19.1637 12.5972 19.0314 12.6318V13.1363H18.9609Z" fill="#939598"/>
<path d="M19.7416 12.5805C19.5484 12.5805 19.4828 12.6663 19.4709 12.7905H20.0124C20.0064 12.6533 19.936 12.5805 19.7416 12.5805ZM19.7393 13.153C19.6235 13.153 19.5484 13.1363 19.4888 13.0862C19.4184 13.0253 19.3945 12.9371 19.3945 12.8358C19.3945 12.7392 19.4268 12.6366 19.5067 12.5782C19.5735 12.5317 19.6558 12.5173 19.7416 12.5173C19.8192 12.5173 19.9086 12.5257 19.9825 12.5758C20.0696 12.6342 20.0863 12.7368 20.0863 12.8536H19.4685C19.4709 12.9776 19.5114 13.0875 19.7451 13.0875C19.8561 13.0875 19.9598 13.0695 20.0565 13.0528V13.116C19.9563 13.134 19.8454 13.153 19.7393 13.153Z" fill="#939598"/>
<path d="M20.8547 12.6223C20.7795 12.5949 20.6937 12.5817 20.6114 12.5817C20.4027 12.5817 20.3036 12.6522 20.3036 12.8358C20.3036 13.0098 20.3848 13.0862 20.5421 13.0862C20.6364 13.0862 20.7461 13.0635 20.8547 13.0396V12.6223ZM20.8678 13.1363L20.8618 13.1005C20.7652 13.1231 20.6316 13.153 20.5362 13.153C20.4588 13.153 20.3848 13.1423 20.3227 13.091C20.2512 13.0325 20.2285 12.9383 20.2285 12.8358C20.2285 12.7285 20.2643 12.627 20.3621 12.5722C20.4301 12.5328 20.5219 12.5173 20.6054 12.5173C20.6889 12.5173 20.77 12.5317 20.8547 12.5555V12.28H20.9251V13.1363H20.8678Z" fill="#939598"/>
<path d="M21.9571 12.5842C21.8629 12.5842 21.7531 12.6069 21.6446 12.6319V13.0469C21.721 13.0755 21.8056 13.0887 21.8879 13.0887C22.0966 13.0887 22.1956 13.0183 22.1956 12.8345C22.1956 12.6617 22.1145 12.5842 21.9571 12.5842ZM22.1372 13.0993C22.0692 13.1375 21.9774 13.153 21.8951 13.153C21.8056 13.153 21.7162 13.1375 21.6256 13.1077L21.622 13.1364H21.5742V12.28H21.6446V12.5674C21.7412 12.546 21.8712 12.5174 21.963 12.5174C22.0406 12.5174 22.1145 12.5292 22.1765 12.5793C22.2481 12.6379 22.2708 12.732 22.2708 12.8345C22.2708 12.942 22.2349 13.0433 22.1372 13.0993Z" fill="#939598"/>
<path d="M22.3658 13.3686V13.3031C22.4004 13.3065 22.4327 13.309 22.4553 13.309C22.5424 13.309 22.5948 13.2839 22.6437 13.1849L22.6664 13.1372L22.3516 12.5349H22.4327L22.7022 13.0549H22.707L22.9634 12.5349H23.0433L22.7046 13.2112C22.6426 13.3341 22.5758 13.3745 22.4529 13.3745C22.4254 13.3745 22.3957 13.3722 22.3658 13.3686Z" fill="#939598"/>
<path d="M24.0139 12.7935H23.7802V13.0047H24.015C24.176 13.0047 24.2369 12.9867 24.2369 12.8985C24.2369 12.8042 24.1535 12.7935 24.0139 12.7935ZM23.971 12.4512H23.7802V12.6658H23.9721C24.1308 12.6658 24.1939 12.6469 24.1939 12.5574C24.1939 12.4621 24.1141 12.4512 23.971 12.4512ZM24.3335 13.0798C24.2476 13.1347 24.1438 13.137 23.9542 13.137H23.5977V12.3201H23.9459C24.1093 12.3201 24.2095 12.3224 24.293 12.3726C24.3526 12.4084 24.3764 12.4632 24.3764 12.5347C24.3764 12.6205 24.3407 12.6779 24.2476 12.7161V12.7207C24.3526 12.7447 24.4206 12.7984 24.4206 12.914C24.4206 12.9927 24.392 13.044 24.3335 13.0798Z" fill="#939598"/>
<path d="M25.133 12.8835C25.0625 12.8775 24.9911 12.874 24.9159 12.874C24.7931 12.874 24.7501 12.899 24.7501 12.955C24.7501 13.0075 24.7859 13.0362 24.8801 13.0362C24.9588 13.0362 25.053 13.0183 25.133 13.0003V12.8835ZM25.1687 13.1363L25.1639 13.1005C25.0613 13.1256 24.9422 13.153 24.8372 13.153C24.7727 13.153 24.7036 13.1446 24.6546 13.1088C24.6094 13.0767 24.5879 13.0242 24.5879 12.9634C24.5879 12.8953 24.6177 12.8322 24.6892 12.8C24.7525 12.7702 24.8372 12.7679 24.9147 12.7679C24.9779 12.7679 25.0625 12.7713 25.133 12.7762V12.7654C25.133 12.6712 25.0709 12.6402 24.9016 12.6402C24.836 12.6402 24.756 12.6437 24.6797 12.6509V12.5292C24.7644 12.5222 24.8598 12.5173 24.9386 12.5173C25.0434 12.5173 25.1521 12.5257 25.2188 12.5734C25.2879 12.6223 25.3011 12.6903 25.3011 12.7797V13.1363L25.1687 13.1363Z" fill="#939598"/>
<path d="M26.0876 13.1363V12.8035C26.0876 12.6939 26.0317 12.6545 25.9314 12.6545C25.8575 12.6545 25.7645 12.6735 25.6857 12.6927V13.1363H25.5176V12.534H25.6547L25.6607 12.5722C25.7668 12.5448 25.8849 12.5173 25.9828 12.5173C26.0566 12.5173 26.1318 12.528 26.189 12.5794C26.2367 12.6223 26.2546 12.6819 26.2546 12.7678V13.1363H26.0876Z" fill="#939598"/>
<path d="M26.7298 13.153C26.6523 13.153 26.5675 13.1423 26.5056 13.0898C26.4316 13.0301 26.4102 12.936 26.4102 12.8345C26.4102 12.7391 26.4412 12.6353 26.533 12.577C26.6082 12.528 26.7011 12.5173 26.7978 12.5173C26.867 12.5173 26.935 12.5221 27.01 12.5291V12.658C26.9492 12.6521 26.8764 12.6473 26.8181 12.6473C26.6582 12.6473 26.5831 12.6975 26.5831 12.8358C26.5831 12.9658 26.6391 13.0218 26.7703 13.0218C26.8466 13.0218 26.9362 13.0075 27.0232 12.9908V13.1148C26.9289 13.134 26.8264 13.153 26.7298 13.153Z" fill="#939598"/>
<path d="M27.5184 12.6437C27.3586 12.6437 27.2882 12.6938 27.2882 12.831C27.2882 12.9682 27.3574 13.0266 27.5184 13.0266C27.677 13.0266 27.7461 12.9776 27.7461 12.8405C27.7461 12.7033 27.6782 12.6437 27.5184 12.6437ZM27.807 13.0898C27.7331 13.1398 27.6365 13.153 27.5184 13.153C27.3979 13.153 27.3013 13.1387 27.2286 13.0898C27.1451 13.035 27.1152 12.9443 27.1152 12.8358C27.1152 12.7272 27.1451 12.6353 27.2286 12.5805C27.3013 12.5316 27.3979 12.5173 27.5184 12.5173C27.6377 12.5173 27.7331 12.5316 27.807 12.5805C27.8905 12.6353 27.9191 12.7272 27.9191 12.8345C27.9191 12.9431 27.8893 13.035 27.807 13.0898Z" fill="#939598"/>
<path d="M28.8917 13.153C28.7904 13.153 28.6806 13.1364 28.5983 13.0684C28.5005 12.9872 28.4707 12.862 28.4707 12.7272C28.4707 12.6068 28.5088 12.4637 28.6365 12.3803C28.7354 12.3159 28.8583 12.3027 28.9823 12.3027C29.073 12.3027 29.166 12.3087 29.2674 12.317V12.4637C29.1803 12.4565 29.073 12.4506 28.9895 12.4506C28.7569 12.4506 28.6579 12.5389 28.6579 12.7272C28.6579 12.9194 28.7497 13.0052 28.9215 13.0052C29.0336 13.0052 29.1588 12.9825 29.2853 12.9562V13.1017C29.1588 13.1269 29.0264 13.153 28.8917 13.153Z" fill="#939598"/>
<path d="M29.7793 12.6247C29.6397 12.6247 29.586 12.6748 29.5753 12.7666H29.9808C29.976 12.6688 29.9188 12.6247 29.7793 12.6247ZM29.7542 13.153C29.6552 13.153 29.5658 13.1411 29.499 13.0862C29.4274 13.0266 29.4023 12.9371 29.4023 12.8345C29.4023 12.7427 29.4322 12.6402 29.5157 12.5805C29.5896 12.5281 29.6839 12.5173 29.7793 12.5173C29.8651 12.5173 29.9665 12.5269 30.0404 12.5782C30.1371 12.6462 30.1454 12.7511 30.1465 12.8751H29.5741C29.5777 12.967 29.6266 13.0266 29.7959 13.0266C29.9009 13.0266 30.0177 13.0111 30.1168 12.9956V13.1137C30.0011 13.1328 29.8747 13.153 29.7542 13.153Z" fill="#939598"/>
<path d="M30.8943 13.1363V12.8035C30.8943 12.6939 30.8383 12.6545 30.738 12.6545C30.6641 12.6545 30.5711 12.6735 30.4924 12.6927V13.1363H30.3242V12.534H30.4614L30.4673 12.5722C30.5734 12.5448 30.6916 12.5173 30.7894 12.5173C30.8633 12.5173 30.9385 12.528 30.9957 12.5794C31.0433 12.6223 31.0613 12.6819 31.0613 12.7678V13.1363H30.8943Z" fill="#939598"/>
<path d="M31.5411 13.1535C31.46 13.1535 31.386 13.1309 31.3455 13.0677C31.3157 13.0247 31.3013 12.9664 31.3013 12.8852V12.6597H31.1797V12.5346H31.3013L31.3193 12.3521H31.4683V12.5346H31.7056V12.6597H31.4683V12.853C31.4683 12.8995 31.4719 12.9389 31.485 12.9675C31.5029 13.0081 31.5422 13.0235 31.5947 13.0235C31.6341 13.0235 31.6818 13.0175 31.7152 13.0117V13.1321C31.6603 13.1429 31.5971 13.1535 31.5411 13.1535Z" fill="#939598"/>
<path d="M31.8691 13.1363V12.534H32.0063L32.0123 12.5722C32.1232 12.5412 32.2055 12.5173 32.3105 12.5173C32.3152 12.5173 32.3224 12.5173 32.3319 12.5185V12.6616C32.3128 12.6605 32.2901 12.6605 32.2734 12.6605C32.1911 12.6605 32.1292 12.67 32.0373 12.6915V13.1363L31.8691 13.1363Z" fill="#939598"/>
<path d="M32.9435 12.8835C32.8731 12.8775 32.8016 12.874 32.7265 12.874C32.6036 12.874 32.5606 12.899 32.5606 12.955C32.5606 13.0075 32.5965 13.0362 32.6906 13.0362C32.7694 13.0362 32.8636 13.0183 32.9435 13.0003V12.8835ZM32.9793 13.1363L32.9745 13.1005C32.8719 13.1256 32.7527 13.153 32.6477 13.153C32.5833 13.153 32.5141 13.1446 32.4652 13.1088C32.42 13.0767 32.3984 13.0242 32.3984 12.9634C32.3984 12.8953 32.4283 12.8322 32.4998 12.8C32.5631 12.7702 32.6477 12.7679 32.7253 12.7679C32.7885 12.7679 32.8731 12.7713 32.9435 12.7762V12.7654C32.9435 12.6712 32.8815 12.6402 32.7121 12.6402C32.6466 12.6402 32.5666 12.6437 32.4903 12.6509V12.5292C32.5749 12.5222 32.6704 12.5173 32.7492 12.5173C32.854 12.5173 32.9626 12.5257 33.0294 12.5734C33.0985 12.6223 33.1117 12.6903 33.1117 12.7797V13.1363L32.9793 13.1363Z" fill="#939598"/>
<path d="M33.3262 12.28H33.4943V13.1363H33.3262V12.28Z" fill="#939598"/>
</g>
</g>
<defs>
<clipPath id="clip0_9334_10394">
<rect width="33.6" height="16" fill="white"/>
</clipPath>
<clipPath id="clip1_9334_10394">
<rect width="33.6" height="11.9078" fill="white" transform="translate(0 2.04614)"/>
</clipPath>
</defs>
</svg>
