<svg width="34" height="16" viewBox="0 0 34 16" fill="none" xmlns="http://www.w3.org/2000/svg">
<g clip-path="url(#clip0_9334_10528)">
<path fill-rule="evenodd" clip-rule="evenodd" d="M3.80596 7.6288C3.90286 7.66827 3.99079 7.71852 4.0518 7.78311C4.09845 7.83156 4.13435 7.88181 4.16485 7.93743C4.25099 8.09534 4.26714 8.26043 4.26534 8.36989C4.26534 8.44884 4.25457 8.49909 4.25457 8.49909C4.25457 8.49909 4.24919 8.54215 4.24022 8.61034C4.21869 8.76646 4.17741 9.06074 4.13614 9.30658C4.09845 9.52908 4.05359 9.71211 4.05359 9.71211C4.05359 9.71211 3.94413 10.2056 3.53501 10.4227C3.12588 10.6398 2.54807 10.6165 2.54807 10.6165L1.06589 10.6093L0.764423 12.4396H0L0.818255 7.4978H1.73161H2.959C2.959 7.4978 3.01642 7.4978 3.10614 7.50139C3.20304 7.50498 3.33941 7.51575 3.47938 7.54087C3.59063 7.56061 3.70368 7.58932 3.80596 7.6288ZM3.30532 9.53088C3.39504 9.06074 3.46323 8.66418 3.46323 8.6552C3.46323 8.65431 3.46358 8.65168 3.46413 8.64761C3.46689 8.62718 3.47458 8.57017 3.46861 8.50447C3.46323 8.45064 3.44887 8.38963 3.41119 8.34297C3.38248 8.30709 3.29276 8.28376 3.17971 8.2694C3.04872 8.25146 2.88901 8.24608 2.76879 8.24428C2.66292 8.24249 2.58755 8.24428 2.58755 8.24428L1.46604 8.24069L1.19329 9.88258L2.43144 9.88617C2.43144 9.88617 2.71316 9.89694 2.97515 9.84131C3.13306 9.80722 3.27123 9.71032 3.30532 9.53088ZM9.92853 8.87233L7.12206 8.87592L7.00901 9.57215H8.80522L6.55502 11.7272L6.433 12.4396L9.33457 12.4378L9.44942 11.7488L7.47915 11.7524L9.82625 9.51114L9.92853 8.87233ZM13.7345 7.4978H14.4702L13.6466 12.4396L12.9091 12.4378L13.7345 7.4978ZM18.3659 8.87412L17.6607 8.87592L18.0196 12.4396L18.8737 12.436L19.9701 9.9418L20.2213 12.436H21.0898L22.6438 8.87412H21.9117L20.8278 11.3917L20.5712 8.87233L19.7009 8.87053L18.6153 11.3827L18.3659 8.87412ZM11.5094 8.82747C11.8127 8.82388 12.1698 8.83823 12.3761 8.90463C12.9898 9.1056 13.0741 9.61701 12.9557 10.2881L12.8534 10.8803L10.4579 10.8875C10.4579 10.8875 10.4112 10.9969 10.3915 11.4168C10.3897 11.4276 10.3897 11.4348 10.3897 11.4401C10.3563 11.7838 10.7355 11.7909 10.8524 11.7931C10.8613 11.7932 10.8687 11.7934 10.8742 11.7936L10.8983 11.7949C10.9946 11.7999 11.2113 11.8111 11.5866 11.7685C11.9993 11.7219 12.0406 11.2176 12.0406 11.2176L12.8032 11.2158L12.7565 11.4078L12.7554 11.4127C12.7492 11.4392 12.724 11.5473 12.6542 11.6967C12.5789 11.8582 12.473 11.9946 12.473 11.9946C12.473 11.9946 12.2362 12.3104 11.7875 12.4163C11.3389 12.5222 10.7432 12.4755 10.7432 12.4755C10.7432 12.4755 10.4597 12.4827 10.1259 12.3535C9.79215 12.2261 9.70064 11.9516 9.6486 11.6573C9.59656 11.3612 9.77241 10.4765 9.77241 10.4765C9.77241 10.4765 9.86034 9.67623 10.1564 9.31017C10.4525 8.9441 10.9729 8.86874 10.9729 8.86874C11.0823 8.84541 11.2169 8.83106 11.5094 8.82747ZM10.5745 10.202L12.2164 10.2038C12.2164 10.2038 12.2774 9.9095 12.22 9.7157C12.1949 9.63316 12.1016 9.57753 12.0029 9.55779C11.7068 9.49678 11.3425 9.5237 11.2062 9.53626C11.0698 9.54882 10.9244 9.56497 10.8096 9.6511C10.6965 9.73724 10.6391 9.9418 10.6391 9.9418L10.5745 10.202ZM16.8963 8.90642C16.6899 8.84003 16.3328 8.82567 16.0296 8.82926C15.7371 8.83285 15.6025 8.8472 15.493 8.87053C15.493 8.87053 14.9726 8.9459 14.6766 9.31196C14.3805 9.67802 14.2926 10.4783 14.2926 10.4783C14.2926 10.4783 14.1167 11.363 14.1687 11.6591C14.2208 11.9533 14.3123 12.2279 14.6461 12.3553C14.9798 12.4845 15.2633 12.4773 15.2633 12.4773C15.2633 12.4773 15.8591 12.524 16.3077 12.4181C16.7563 12.3122 16.9932 11.9964 16.9932 11.9964C16.9932 11.9964 17.099 11.86 17.1744 11.6985C17.2442 11.549 17.2694 11.441 17.2755 11.4145L17.2767 11.4096L17.3233 11.2176L16.5607 11.2194C16.5607 11.2194 16.5194 11.7237 16.1067 11.7703C15.7487 11.811 15.5351 11.8026 15.4326 11.7985C15.4174 11.798 15.4047 11.7974 15.3943 11.7972C15.3889 11.797 15.3819 11.7968 15.3735 11.7967C15.2575 11.7943 14.8764 11.7865 14.9098 11.4437C14.9098 11.4383 14.9098 11.4312 14.9116 11.4204C14.9314 11.0005 14.978 10.891 14.978 10.891L17.3736 10.8839L17.4759 10.2917C17.5943 9.6188 17.5099 9.1056 16.8963 8.90642ZM16.7294 10.2038L15.0875 10.202L15.1521 9.9418C15.1521 9.9418 15.2095 9.73724 15.3226 9.6511C15.4356 9.56497 15.5827 9.54882 15.7191 9.53626C15.8555 9.5237 16.2198 9.49678 16.5158 9.55779C16.6145 9.57753 16.7078 9.63316 16.733 9.7157C16.7904 9.90771 16.7294 10.2038 16.7294 10.2038ZM23.4907 8.87592L23.9627 11.4814L25.2959 8.87412L26.046 8.8813L24.1242 12.6047C24.1242 12.6047 23.7761 13.2794 23.5607 13.4499C23.3454 13.6204 23.2126 13.6975 23.0368 13.7155L22.9896 13.7204C22.8465 13.7354 22.7732 13.7431 22.6205 13.7155L22.441 13.6832L22.5523 13.0174C22.5523 13.0174 22.8501 13.0731 23.026 13.0031C23.2036 12.9331 23.3454 12.6316 23.3454 12.6316L23.4351 12.4809L22.7407 8.87412L23.4907 8.87592ZM5.3707 9.11996C5.60936 8.98896 5.88929 8.87233 6.18537 8.87233H6.61244L6.49042 9.56138L6.08488 9.56318C5.50349 9.56318 5.20562 10.0566 5.13384 10.455L4.78572 12.4199H3.99976L4.62781 8.87233H5.41197L5.3707 9.11996Z" fill="#D13239"/>
<path fill-rule="evenodd" clip-rule="evenodd" d="M20.5802 4.10002L21.4918 2.26792C21.4918 2.26792 23.489 2.22844 25.2116 2.49581C26.9343 2.76139 28.5098 3.17051 28.4757 3.18846L24.1081 5.47275C24.1081 5.47275 23.087 4.82676 21.8202 4.4302C21.1024 4.21845 20.5802 4.10002 20.5802 4.10002ZM14.8058 3.2387L14.996 4.30638C14.996 4.30638 15.8753 4.07311 16.9286 3.9475C18.2816 3.76267 19.7225 3.96006 19.7225 3.96006L20.2644 2.31099C20.2644 2.31099 18.6261 2.42045 17.3897 2.65013C16.1552 2.87982 14.8058 3.2387 14.8058 3.2387ZM10.7396 6.05594L9.64683 5.32023C9.64683 5.32023 10.6356 4.75857 11.9509 4.2346C13.2644 3.71063 13.966 3.49171 13.966 3.49171L14.1885 4.53427C14.1885 4.53427 12.9234 4.95776 12.1985 5.30049C11.4484 5.6199 10.7396 6.05594 10.7396 6.05594ZM8.03185 7.90419H5.67578C5.67578 7.90419 6.59452 7.20078 7.05748 6.89752C7.5348 6.56914 8.6599 5.87291 8.6599 5.87291L9.99136 6.49557C9.99136 6.49557 9.30948 6.92803 8.93445 7.20257C8.55941 7.47712 8.03185 7.90419 8.03185 7.90419ZM26.3206 9.22847L27.094 9.23027L27.1406 8.9306C27.1406 8.9306 27.2232 8.38868 27.408 8.28461C27.4672 8.25051 27.5623 8.22001 27.6718 8.20027C27.8745 8.16438 28.1311 8.16079 28.3411 8.16797L28.3585 8.16859C28.6668 8.17887 28.7903 8.18302 29.1109 8.22001C29.4375 8.25769 29.3549 8.57351 29.3549 8.57351L29.2903 9.04544C29.2903 9.04544 29.2616 9.25718 29.1863 9.38817C29.1199 9.50481 28.9368 9.58377 28.831 9.61786C28.5762 9.7004 27.7041 9.92291 27.7041 9.92291L27.0186 10.1203C27.0186 10.1203 26.5969 10.2423 26.3618 10.5025C26.125 10.7645 26.0317 11.0606 25.9994 11.2149C25.9671 11.3692 25.7858 12.4369 25.7858 12.4369L29.4859 12.4387L29.6097 11.6994L26.683 11.703L26.7351 11.4015C26.7351 11.4015 26.7692 11.0911 26.8948 10.9888C26.9009 10.9838 26.9065 10.9786 26.9125 10.973C26.9454 10.9423 26.99 10.9007 27.1873 10.8309C27.3272 10.7806 27.8046 10.6532 27.8046 10.6532L28.9081 10.3518C28.9081 10.3518 29.511 10.1975 29.7479 9.86728C29.9848 9.53891 30.0763 8.90906 30.0763 8.90906C30.0763 8.90906 30.1409 8.29717 30.0906 8.10517C30.0422 7.91316 29.861 7.68348 29.6402 7.58478C29.4195 7.48609 29.1898 7.42867 28.5241 7.43764C27.8584 7.44661 27.5282 7.47712 27.1909 7.60273C26.8535 7.72654 26.6579 7.95264 26.5341 8.27205C26.3995 8.5753 26.3206 9.22847 26.3206 9.22847ZM33.2865 10.603L33.8051 7.49506H32.8863L30.026 10.5671L29.8968 11.3459H32.3983L32.2152 12.4369L32.9832 12.4387L33.1645 11.3459L33.8733 11.3477L34.0007 10.603H33.2865ZM32.5221 10.6048L30.9053 10.603L32.8738 8.50532L32.5221 10.6048ZM25.8504 6.69834L24.8904 5.96981L30.3598 3.85957L30.4021 3.87883C31.0984 4.19492 31.4861 4.37091 32.1686 4.8142C32.4413 4.99185 32.8038 5.27537 32.8953 5.36509C33.1447 5.61451 33.3834 5.85496 33.5144 6.08106C33.7243 6.44353 33.7405 6.69834 33.7405 6.69834H25.8504Z" fill="#B3B2B1"/>
</g>
<defs>
<clipPath id="clip0_9334_10528">
<rect width="33.9997" height="16" fill="white"/>
</clipPath>
</defs>
</svg>
