<svg width="16" height="16" viewBox="0 0 16 16" fill="none" xmlns="http://www.w3.org/2000/svg">
<g clip-path="url(#clip0_9334_10354)">
<path d="M15.7114 5.63657C15.5164 4.16444 14.9953 2.83028 14.0762 1.85311H14.0758C13.0987 0.934257 11.7645 0.413154 10.2922 0.218197C8.88575 0.0317065 7.92853 0.0777998 7.92853 0.0777998C7.92853 0.0777998 6.97079 0.0317065 5.56444 0.218144C4.09205 0.413101 2.75793 0.934257 1.78055 1.85305C0.86165 2.83022 0.340282 4.16439 0.145272 5.63657C-0.0411655 7.04255 0.00508661 8.00014 0.00508661 8.00014C0.00508661 8.00014 -0.0411655 8.95735 0.145272 10.3638C0.340282 11.8359 0.86165 13.1697 1.78055 14.1468V14.1472C2.75793 15.0659 4.09205 15.587 5.56439 15.7822C6.97073 15.9686 7.92848 15.9223 7.92848 15.9223C7.92848 15.9223 8.8857 15.9686 10.2922 15.7822C11.7644 15.587 13.0986 15.066 14.0758 14.1472L14.0761 14.1468C14.9953 13.1697 15.5164 11.8359 15.7114 10.3638C15.8977 8.95735 15.8516 8.00014 15.8516 8.00014C15.8516 8.00014 15.8977 7.0425 15.7114 5.63657Z" fill="#1E4BC6"/>
<path d="M2.91992 5.67725H4.34352C4.56007 5.67725 4.75931 5.7162 4.94157 5.79393C5.12393 5.87167 5.28126 5.97699 5.41446 6.11003C5.54719 6.24296 5.6516 6.3995 5.72749 6.57985C5.80343 6.7601 5.84148 6.95272 5.84148 7.15758C5.84148 7.36264 5.80343 7.55622 5.72749 7.73859C5.65165 7.92068 5.54719 8.07823 5.41446 8.211C5.28126 8.34399 5.12282 8.44962 4.93871 8.5272C4.75471 8.60515 4.55436 8.64399 4.33791 8.64399H3.69441V9.83401H2.91992V5.67725ZM3.69441 6.39468V7.92651H4.28658C4.40057 7.92651 4.50498 7.90655 4.59971 7.86671C4.69454 7.82686 4.77625 7.77171 4.84473 7.70144C4.91321 7.63137 4.96628 7.54966 5.00412 7.45663C5.04223 7.36359 5.06128 7.26405 5.06128 7.15758C5.06128 7.05153 5.04223 6.95172 5.00412 6.85868C4.96628 6.76565 4.91321 6.68521 4.84473 6.61673C4.77625 6.54842 4.69459 6.49428 4.59971 6.45448C4.50498 6.41463 4.40057 6.39468 4.28658 6.39468H3.69441Z" fill="white"/>
<path d="M7.62848 9.8395C7.42723 9.8395 7.22883 9.80235 7.03345 9.72731C6.83759 9.65232 6.66216 9.54346 6.50647 9.40063C6.35078 9.25796 6.22547 9.08316 6.13053 8.87635C6.03564 8.66986 5.98828 8.43458 5.98828 8.17119C5.98828 7.904 6.03474 7.66729 6.12773 7.46043C6.22076 7.25372 6.34406 7.07882 6.49806 6.93615C6.65169 6.79358 6.82833 6.68467 7.02747 6.60968C7.22693 6.53475 7.43099 6.49707 7.63981 6.49707C7.8598 6.49707 8.06301 6.53703 8.24913 6.61662C8.43504 6.69626 8.58898 6.80469 8.71059 6.94234V6.50294H9.47936V9.83399H8.71059V9.36068C8.58898 9.50959 8.43345 9.62649 8.24331 9.7117C8.05359 9.79727 7.84863 9.8395 7.62848 9.8395ZM7.75374 9.13376C7.8979 9.13376 8.03078 9.10862 8.1525 9.05877C8.2739 9.00887 8.37825 8.93928 8.46547 8.85016C8.55284 8.76088 8.62206 8.65748 8.67339 8.53984C8.72483 8.42262 8.75049 8.29593 8.75049 8.16008C8.75049 8.02831 8.72483 7.90342 8.67339 7.78578C8.62206 7.66835 8.55289 7.56574 8.46547 7.47837C8.37825 7.39089 8.2739 7.32236 8.1525 7.27256C8.03078 7.2226 7.89785 7.19763 7.75374 7.19763C7.61319 7.19763 7.48137 7.2226 7.35785 7.27256C7.23439 7.32236 7.12728 7.38999 7.03615 7.47551C6.94502 7.56129 6.87384 7.6629 6.82251 7.78059C6.77123 7.89823 6.74572 8.02482 6.74572 8.16003C6.74572 8.29582 6.77123 8.42331 6.82251 8.54269C6.87384 8.66208 6.94502 8.76517 7.03615 8.85259C7.12723 8.94033 7.23439 9.00876 7.35785 9.05872C7.48137 9.10867 7.61319 9.13376 7.75374 9.13376Z" fill="white"/>
<path d="M11.0972 9.68993L9.73047 6.50293H10.5505L11.4786 8.78214L12.3559 6.50293H13.1646L11.1768 11.3657H10.397L11.0972 9.68993Z" fill="white"/>
</g>
<defs>
<clipPath id="clip0_9334_10354">
<rect width="15.8566" height="16" fill="white"/>
</clipPath>
</defs>
</svg>
