<svg width="25" height="16" viewBox="0 0 25 16" fill="none" xmlns="http://www.w3.org/2000/svg">
<g clip-path="url(#clip0_9334_10546)">
<path fill-rule="evenodd" clip-rule="evenodd" d="M0.00585938 11.6108L0.256891 11.5855C0.271978 11.6701 0.302652 11.7322 0.348815 11.772C0.395064 11.8117 0.457375 11.8315 0.535828 11.8315C0.61891 11.8315 0.681465 11.8139 0.723652 11.7787C0.765766 11.7433 0.786774 11.7021 0.786774 11.6549C0.786774 11.6246 0.777932 11.5989 0.760327 11.5775C0.742642 11.5562 0.711809 11.5378 0.667756 11.522C0.63757 11.5117 0.568929 11.4932 0.461753 11.4666C0.323745 11.4325 0.227034 11.3904 0.171376 11.3405C0.0931607 11.2704 0.0540533 11.1848 0.0540533 11.0838C0.0540533 11.0189 0.0724701 10.9581 0.109388 10.9016C0.146222 10.8451 0.199446 10.802 0.268819 10.7724C0.338265 10.7429 0.422079 10.728 0.520253 10.728C0.680575 10.728 0.801221 10.7633 0.882272 10.8338C0.963323 10.9043 1.00584 10.9984 1.00989 11.1161L0.75132 11.1263C0.740288 11.0605 0.716597 11.0133 0.680246 10.9844C0.64398 10.9556 0.589541 10.9411 0.516924 10.9411C0.441958 10.9411 0.38338 10.9565 0.340943 10.9874C0.313604 11.0071 0.299974 11.0336 0.299974 11.0667C0.299974 11.097 0.312793 11.1228 0.338351 11.1444C0.370805 11.1716 0.449746 11.2002 0.57518 11.2296C0.700534 11.2591 0.793269 11.2898 0.853391 11.3216C0.913428 11.3533 0.960487 11.3967 0.994479 11.4518C1.0284 11.507 1.04543 11.575 1.04543 11.656C1.04543 11.7296 1.02507 11.7983 0.984337 11.8625C0.943607 11.9266 0.886084 11.9743 0.811686 12.0054C0.737288 12.0366 0.644547 12.0522 0.533474 12.0522C0.371854 12.0522 0.24772 12.0146 0.16107 11.9395C0.0745005 11.8643 0.0227389 11.7548 0.00585938 11.6108Z" fill="#0B4A8E"/>
<path fill-rule="evenodd" clip-rule="evenodd" d="M1.31445 11.1031H1.56039V12.029H1.31445V11.1031ZM1.31445 10.7505H1.56039V10.9763H1.31445V10.7505Z" fill="#0B4A8E"/>
<path fill-rule="evenodd" clip-rule="evenodd" d="M2.7076 12.0292H2.46166V11.5557C2.46166 11.4555 2.45639 11.3908 2.44601 11.3613C2.43552 11.3319 2.41867 11.309 2.39519 11.2927C2.37176 11.2764 2.34352 11.2682 2.31057 11.2682C2.26831 11.2682 2.23042 11.2799 2.19684 11.3032C2.16327 11.3265 2.1403 11.3574 2.12787 11.3959C2.1154 11.4343 2.10921 11.5053 2.10921 11.609V12.0292H1.86328V11.1034H2.09146V11.2394C2.17217 11.1335 2.27392 11.0806 2.39644 11.0806C2.45043 11.0806 2.49989 11.0904 2.54459 11.1099C2.58928 11.1293 2.62309 11.1542 2.64606 11.1845C2.66903 11.2148 2.68502 11.2492 2.69404 11.2876C2.703 11.326 2.7076 11.3811 2.7076 11.4527V12.0292Z" fill="#0B4A8E"/>
<path fill-rule="evenodd" clip-rule="evenodd" d="M3.20416 11.5463C3.20416 11.6449 3.22299 11.7171 3.26082 11.7628C3.29854 11.8086 3.34511 11.8314 3.40052 11.8314C3.45985 11.8314 3.50999 11.808 3.55094 11.7611C3.59183 11.7141 3.61237 11.6446 3.61237 11.5524C3.61237 11.4563 3.59274 11.3849 3.55355 11.3382C3.51424 11.2916 3.46478 11.2682 3.40483 11.2682C3.34658 11.2682 3.29854 11.2912 3.26082 11.3369C3.22299 11.3828 3.20416 11.4525 3.20416 11.5463ZM2.98358 12.0902L3.26241 12.1206C3.26712 12.1551 3.2779 12.1788 3.2948 12.1918C3.31817 12.2103 3.35492 12.2195 3.40506 12.2195C3.46921 12.2195 3.51736 12.21 3.54947 12.1908C3.57096 12.178 3.58735 12.1574 3.59847 12.1288C3.60601 12.1084 3.60981 12.071 3.60981 12.0163L3.61055 11.8811C3.53807 11.9799 3.44601 12.0292 3.33439 12.0292C3.20983 12.0292 3.11137 11.9767 3.03866 11.8712C2.9816 11.7879 2.95312 11.6842 2.95312 11.5601C2.95312 11.4046 2.99045 11.2858 3.0652 11.2037C3.1399 11.1216 3.23292 11.0806 3.34397 11.0806C3.45855 11.0806 3.55304 11.131 3.62751 11.2316V11.1034H3.85575V11.9357C3.85575 12.0452 3.84673 12.127 3.82864 12.1811C3.81066 12.2353 3.78536 12.2777 3.75275 12.3086C3.72008 12.3394 3.67663 12.3636 3.62218 12.3811C3.56773 12.3985 3.49893 12.4073 3.41578 12.4073C3.25861 12.4073 3.14716 12.3802 3.08131 12.3261C3.01552 12.2719 2.98268 12.2032 2.98268 12.12C2.98268 12.1118 2.98302 12.1019 2.98358 12.0902Z" fill="#0B4A8E"/>
<path fill-rule="evenodd" clip-rule="evenodd" d="M4.15039 10.7505H4.39632V12.029H4.15039V10.7505Z" fill="#0B4A8E"/>
<path fill-rule="evenodd" clip-rule="evenodd" d="M5.25259 11.4889C5.25088 11.4169 5.23245 11.3622 5.19734 11.3246C5.16229 11.2871 5.11964 11.2682 5.06933 11.2682C5.0155 11.2682 4.97109 11.2882 4.93604 11.3277C4.90087 11.3672 4.88369 11.421 4.88425 11.4889H5.25259ZM5.23994 11.7376L5.48332 11.7782C5.45184 11.8674 5.40215 11.9354 5.3342 11.9821C5.26631 12.0288 5.18129 12.0522 5.07931 12.0522C4.91777 12.0522 4.79827 11.9993 4.72079 11.8937C4.65953 11.8091 4.62891 11.7024 4.62891 11.5733C4.62891 11.4194 4.66906 11.2987 4.74955 11.2114C4.82997 11.1242 4.93161 11.0806 5.05452 11.0806C5.19275 11.0806 5.3017 11.1263 5.38151 11.2178C5.46137 11.3095 5.49948 11.4497 5.49602 11.6386H4.87994C4.88165 11.7116 4.90161 11.7682 4.93973 11.8088C4.9779 11.8492 5.02543 11.8695 5.08237 11.8695C5.12105 11.8695 5.15367 11.8591 5.18004 11.8383C5.20642 11.8175 5.22649 11.7839 5.23994 11.7376Z" fill="#0B4A8E"/>
<path fill-rule="evenodd" clip-rule="evenodd" d="M6.30078 12.029V10.7505H7.24657V10.9661H6.55942V11.2502H7.19836V11.4659H6.55942V11.8134H7.27186V12.029H6.30078Z" fill="#0B4A8E"/>
<path fill-rule="evenodd" clip-rule="evenodd" d="M8.15129 12.0294V11.8907C8.11743 11.9402 8.07308 11.9795 8.018 12.0086C7.96287 12.0377 7.90479 12.0523 7.84365 12.0523C7.78126 12.0523 7.72539 12.0385 7.67582 12.0112C7.62636 11.9838 7.59051 11.9453 7.56834 11.8959C7.54622 11.8464 7.53516 11.778 7.53516 11.6906V11.1035H7.78109V11.5294C7.78109 11.6597 7.78551 11.7396 7.79464 11.7689C7.80361 11.7984 7.82 11.8216 7.84388 11.8389C7.8677 11.856 7.89793 11.8645 7.93457 11.8645C7.97643 11.8645 8.01403 11.8532 8.0471 11.8301C8.08028 11.8071 8.10291 11.7786 8.11516 11.7446C8.12736 11.7105 8.13354 11.6271 8.13354 11.4945V11.1035H8.37941V12.0294H8.15129Z" fill="#0B4A8E"/>
<path fill-rule="evenodd" clip-rule="evenodd" d="M8.91781 12.0292H8.67188V11.1034H8.9V11.2351C8.93902 11.1728 8.97407 11.1316 9.00527 11.1112C9.03641 11.0908 9.07169 11.0806 9.11128 11.0806C9.16709 11.0806 9.22097 11.0961 9.27275 11.127L9.19794 11.3414C9.15654 11.3147 9.11797 11.3013 9.08241 11.3013C9.04792 11.3013 9.01882 11.3108 8.99489 11.3296C8.97095 11.3486 8.95212 11.3828 8.9384 11.4322C8.92467 11.4816 8.91781 11.5853 8.91781 11.7429V12.0292Z" fill="#0B4A8E"/>
<path fill-rule="evenodd" clip-rule="evenodd" d="M9.62604 11.5663C9.62604 11.6586 9.64787 11.7291 9.6916 11.7782C9.73533 11.8272 9.78922 11.8517 9.85337 11.8517C9.91746 11.8517 9.97128 11.8272 10.0147 11.7782C10.0581 11.7291 10.0798 11.658 10.0798 11.5646C10.0798 11.4736 10.0581 11.4035 10.0147 11.3545C9.97128 11.3055 9.91746 11.281 9.85337 11.281C9.78922 11.281 9.73533 11.3055 9.6916 11.3545C9.64787 11.4035 9.62604 11.4742 9.62604 11.5663ZM9.375 11.5531C9.375 11.4715 9.39502 11.3925 9.43518 11.3159C9.47528 11.2396 9.53205 11.1812 9.60568 11.141C9.67918 11.1007 9.76137 11.0806 9.85206 11.0806C9.99221 11.0806 10.107 11.1262 10.1966 11.2175C10.2861 11.3088 10.3308 11.4243 10.3308 11.5637C10.3308 11.7043 10.2856 11.821 10.1952 11.9134C10.1048 12.0059 9.99097 12.0522 9.85376 12.0522C9.76891 12.0522 9.68792 12.0328 9.61095 11.9944C9.53387 11.9559 9.47528 11.8995 9.43518 11.825C9.39502 11.7506 9.375 11.6601 9.375 11.5531Z" fill="#0B4A8E"/>
<path fill-rule="evenodd" clip-rule="evenodd" d="M11.3894 10.9661V11.3315H11.5303C11.6317 11.3315 11.6995 11.3248 11.7338 11.3113C11.7679 11.2978 11.7948 11.2767 11.8142 11.248C11.8336 11.2193 11.8433 11.186 11.8433 11.1479C11.8433 11.1011 11.8297 11.0624 11.8024 11.032C11.7752 11.0015 11.7407 10.9825 11.699 10.9749C11.6682 10.9691 11.6066 10.9661 11.5138 10.9661H11.3894ZM11.1309 12.029V10.7505H11.5448C11.7017 10.7505 11.8039 10.757 11.8516 10.7697C11.9248 10.7888 11.986 10.8307 12.0355 10.895C12.0849 10.9592 12.1095 11.0422 12.1095 11.144C12.1095 11.2225 12.0953 11.2884 12.0668 11.3421C12.0385 11.3955 12.0023 11.4375 11.9584 11.468C11.9147 11.4987 11.8701 11.5188 11.8248 11.5287C11.7632 11.5409 11.6742 11.547 11.5576 11.547H11.3894V12.029H11.1309Z" fill="#0B4A8E"/>
<path fill-rule="evenodd" clip-rule="evenodd" d="M12.8802 11.5854C12.8488 11.596 12.7993 11.6084 12.7314 11.6231C12.6636 11.6376 12.6192 11.652 12.5984 11.6659C12.5665 11.6887 12.5507 11.7176 12.5507 11.7526C12.5507 11.7871 12.5633 11.8168 12.5888 11.842C12.6144 11.8671 12.6468 11.8797 12.6863 11.8797C12.7304 11.8797 12.7723 11.865 12.8124 11.8359C12.8419 11.8137 12.8614 11.7865 12.8707 11.7544C12.877 11.7334 12.8802 11.6934 12.8802 11.6344V11.5854ZM12.5507 11.385L12.33 11.3444C12.3551 11.2547 12.398 11.1884 12.4591 11.1453C12.5202 11.1022 12.6109 11.0806 12.7312 11.0806C12.8405 11.0806 12.922 11.0936 12.9754 11.1194C13.0289 11.1454 13.0666 11.1783 13.0883 11.2182C13.1102 11.258 13.1211 11.3313 13.1211 11.4379L13.1186 11.7244C13.1186 11.8059 13.1225 11.8662 13.1303 11.9048C13.1382 11.9435 13.1529 11.985 13.1744 12.0292H12.9309C12.9245 12.0132 12.9167 11.9895 12.9073 11.958C12.9033 11.9436 12.9003 11.9342 12.8987 11.9296C12.8568 11.9704 12.8122 12.0011 12.7645 12.0215C12.7169 12.0419 12.6662 12.0522 12.6122 12.0522C12.5169 12.0522 12.4418 12.0262 12.3869 11.9744C12.3321 11.9225 12.3047 11.8569 12.3047 11.7777C12.3047 11.7253 12.3172 11.6786 12.3421 11.6375C12.3671 11.5964 12.4022 11.5649 12.4472 11.5431C12.4923 11.5213 12.5573 11.5021 12.6422 11.4858C12.7567 11.4643 12.836 11.4442 12.8802 11.4256V11.4008C12.8802 11.353 12.8685 11.3191 12.8452 11.2987C12.8217 11.2784 12.7777 11.2682 12.7128 11.2682C12.6689 11.2682 12.6348 11.2769 12.6102 11.2941C12.5856 11.3114 12.5658 11.3417 12.5507 11.385Z" fill="#0B4A8E"/>
<path fill-rule="evenodd" clip-rule="evenodd" d="M13.2988 11.1035H13.5599L13.7818 11.7608L13.9986 11.1035H14.2522L13.8665 12.1574C13.8449 12.2116 13.8243 12.2529 13.8049 12.2815C13.7854 12.31 13.7629 12.3332 13.7376 12.3509C13.7122 12.3687 13.6812 12.3826 13.6442 12.3925C13.6072 12.4025 13.5655 12.4074 13.5189 12.4074C13.4718 12.4074 13.4253 12.4025 13.38 12.3926L13.3571 12.2006C13.3956 12.2083 13.4305 12.212 13.4614 12.212C13.5188 12.212 13.561 12.1951 13.5885 12.1613C13.6161 12.1273 13.6371 12.0842 13.6517 12.032L13.2988 11.1035Z" fill="#0B4A8E"/>
<path fill-rule="evenodd" clip-rule="evenodd" d="M14.4434 11.1034H14.669V11.2299C14.75 11.1303 14.8465 11.0806 14.9585 11.0806C15.0179 11.0806 15.0695 11.0928 15.1132 11.1172C15.1569 11.1417 15.1928 11.1787 15.2207 11.2281C15.2614 11.1787 15.3055 11.1417 15.3526 11.1172C15.3998 11.0928 15.4499 11.0806 15.5035 11.0806C15.5717 11.0806 15.6293 11.0943 15.6764 11.1221C15.7236 11.1496 15.7588 11.1903 15.7821 11.244C15.7989 11.2835 15.8074 11.3475 15.8074 11.4361V12.0292H15.5615V11.4989C15.5615 11.4069 15.553 11.3475 15.5362 11.3208C15.5135 11.2857 15.4787 11.2682 15.4317 11.2682C15.3974 11.2682 15.3651 11.2787 15.3349 11.2997C15.3047 11.3208 15.283 11.3515 15.2697 11.392C15.2563 11.4324 15.2496 11.4964 15.2496 11.5837V12.0292H15.0037V11.5209C15.0037 11.4304 14.9994 11.3723 14.9906 11.346C14.9819 11.3198 14.9685 11.3003 14.9501 11.2875C14.9318 11.2747 14.907 11.2682 14.8756 11.2682C14.8379 11.2682 14.8039 11.2785 14.7737 11.2988C14.7435 11.3192 14.722 11.3487 14.7088 11.3871C14.6958 11.4256 14.6892 11.4893 14.6892 11.5784V12.0292H14.4434V11.1034Z" fill="#0B4A8E"/>
<path fill-rule="evenodd" clip-rule="evenodd" d="M16.655 11.4889C16.6532 11.4169 16.6349 11.3622 16.5997 11.3246C16.5647 11.2871 16.5219 11.2682 16.4716 11.2682C16.4179 11.2682 16.3734 11.2882 16.3384 11.3277C16.3033 11.3672 16.2861 11.421 16.2867 11.4889H16.655ZM16.6423 11.7376L16.8857 11.7782C16.8542 11.8674 16.8046 11.9354 16.7366 11.9821C16.6687 12.0288 16.5837 12.0522 16.4816 12.0522C16.3202 12.0522 16.2007 11.9993 16.1231 11.8937C16.0618 11.8091 16.0312 11.7024 16.0312 11.5733C16.0312 11.4194 16.0716 11.2987 16.1519 11.2114C16.2324 11.1242 16.334 11.0806 16.4569 11.0806C16.5951 11.0806 16.704 11.1263 16.7839 11.2178C16.8637 11.3095 16.9019 11.4497 16.8984 11.6386H16.2823C16.284 11.7116 16.304 11.7682 16.3421 11.8088C16.3802 11.8492 16.4277 11.8695 16.4848 11.8695C16.5235 11.8695 16.556 11.8591 16.5824 11.8383C16.6089 11.8175 16.6289 11.7839 16.6423 11.7376Z" fill="#0B4A8E"/>
<path fill-rule="evenodd" clip-rule="evenodd" d="M17.9927 12.0292H17.7468V11.5557C17.7468 11.4555 17.7415 11.3908 17.7312 11.3613C17.7207 11.3319 17.7038 11.309 17.6803 11.2927C17.6569 11.2764 17.6286 11.2682 17.5957 11.2682C17.5535 11.2682 17.5155 11.2799 17.4821 11.3032C17.4484 11.3265 17.4255 11.3574 17.413 11.3959C17.4006 11.4343 17.3943 11.5053 17.3943 11.609V12.0292H17.1484V11.1034H17.3766V11.2394C17.4574 11.1335 17.559 11.0806 17.6815 11.0806C17.7356 11.0806 17.785 11.0904 17.8297 11.1099C17.8744 11.1293 17.9083 11.1542 17.9313 11.1845C17.9542 11.2148 17.9701 11.2492 17.9791 11.2876C17.9882 11.326 17.9927 11.3811 17.9927 11.4527V12.0292Z" fill="#0B4A8E"/>
<path fill-rule="evenodd" clip-rule="evenodd" d="M18.7182 11.1031V11.2985H18.5509V11.6731C18.5509 11.7489 18.5524 11.7931 18.5556 11.8057C18.5586 11.8182 18.5658 11.8285 18.5769 11.8367C18.5881 11.8449 18.6016 11.849 18.6175 11.849C18.6399 11.849 18.6721 11.8411 18.7144 11.8255L18.7359 12.0152C18.6792 12.0397 18.615 12.0519 18.5434 12.0519C18.4993 12.0519 18.4598 12.0444 18.4245 12.0296C18.3893 12.0148 18.3634 11.9955 18.3468 11.9719C18.3304 11.9484 18.319 11.9164 18.3127 11.8763C18.3074 11.8477 18.3049 11.79 18.3049 11.7032V11.2985H18.1934V11.1031H18.3049V10.918L18.5509 10.7734V11.1031H18.7182Z" fill="#0B4A8E"/>
<path fill-rule="evenodd" clip-rule="evenodd" d="M18.8574 11.7681L19.1034 11.73C19.1138 11.7773 19.1349 11.8131 19.1669 11.8378C19.1988 11.8624 19.2434 11.8745 19.3009 11.8745C19.3643 11.8745 19.4119 11.8628 19.4438 11.8395C19.4653 11.823 19.4761 11.8012 19.4761 11.7736C19.4761 11.7549 19.4702 11.7393 19.4585 11.7271C19.4461 11.7154 19.4187 11.7046 19.376 11.6946C19.1773 11.6506 19.0513 11.6107 18.9983 11.5745C18.9246 11.5244 18.8878 11.4547 18.8878 11.3656C18.8878 11.2852 18.9196 11.2175 18.9832 11.1628C19.047 11.108 19.1458 11.0806 19.2795 11.0806C19.4069 11.0806 19.5015 11.1011 19.5635 11.1421C19.6255 11.1832 19.6681 11.2438 19.6915 11.3241L19.4608 11.3672C19.4508 11.3312 19.4318 11.3035 19.4039 11.2844C19.3759 11.2651 19.3361 11.2556 19.2844 11.2556C19.2192 11.2556 19.1724 11.2646 19.1442 11.2828C19.1253 11.2957 19.116 11.3123 19.116 11.3328C19.116 11.3504 19.1241 11.3654 19.1405 11.3777C19.1626 11.394 19.2393 11.4171 19.3703 11.447C19.5014 11.4769 19.5929 11.5134 19.6449 11.5567C19.6962 11.6005 19.722 11.6616 19.722 11.74C19.722 11.8253 19.6864 11.8987 19.6156 11.96C19.5446 12.0215 19.4398 12.0522 19.3009 12.0522C19.1749 12.0522 19.0751 12.0266 19.0016 11.9757C18.9281 11.9247 18.8801 11.8556 18.8574 11.7681Z" fill="#0B4A8E"/>
<path fill-rule="evenodd" clip-rule="evenodd" d="M21.2189 11.5242L21.0402 11.0499L20.8676 11.5242H21.2189ZM21.6931 12.029H21.4146L21.3042 11.7398H20.7891L20.6838 12.029H20.4102L20.9051 10.7505H21.1771L21.6931 12.029Z" fill="#0B4A8E"/>
<path fill-rule="evenodd" clip-rule="evenodd" d="M22.1151 12.0292H21.8691V11.1034H22.0973V11.2351C22.1363 11.1728 22.1713 11.1316 22.2025 11.1112C22.2336 11.0908 22.2689 11.0806 22.3085 11.0806C22.3644 11.0806 22.4182 11.0961 22.47 11.127L22.3952 11.3414C22.3537 11.3147 22.3152 11.3013 22.2797 11.3013C22.2451 11.3013 22.216 11.3108 22.192 11.3296C22.1681 11.3486 22.1493 11.3828 22.1357 11.4322C22.1219 11.4816 22.1151 11.5853 22.1151 11.7429V12.0292Z" fill="#0B4A8E"/>
<path fill-rule="evenodd" clip-rule="evenodd" d="M23.1804 11.4889C23.1786 11.4169 23.1602 11.3622 23.1252 11.3246C23.09 11.2871 23.0474 11.2682 22.9971 11.2682C22.9433 11.2682 22.8989 11.2882 22.8638 11.3277C22.8287 11.3672 22.8114 11.421 22.812 11.4889H23.1804ZM23.1678 11.7376L23.4112 11.7782C23.3797 11.8674 23.3299 11.9354 23.2621 11.9821C23.1942 12.0288 23.1091 12.0522 23.0071 12.0522C22.8456 12.0522 22.726 11.9993 22.6485 11.8937C22.5873 11.8091 22.5566 11.7024 22.5566 11.5733C22.5566 11.4194 22.5969 11.2987 22.6774 11.2114C22.7577 11.1242 22.8595 11.0806 22.9824 11.0806C23.1205 11.0806 23.2294 11.1263 23.3094 11.2178C23.3891 11.3095 23.4273 11.4497 23.4238 11.6386H22.8077C22.8095 11.7116 22.8295 11.7682 22.8675 11.8088C22.9057 11.8492 22.9532 11.8695 23.0101 11.8695C23.0489 11.8695 23.0815 11.8591 23.1079 11.8383C23.1343 11.8175 23.1542 11.7839 23.1678 11.7376Z" fill="#0B4A8E"/>
<path fill-rule="evenodd" clip-rule="evenodd" d="M24.1848 11.5854C24.1535 11.596 24.1039 11.6084 24.0361 11.6231C23.9682 11.6376 23.9239 11.652 23.9031 11.6659C23.8711 11.6887 23.8553 11.7176 23.8553 11.7526C23.8553 11.7871 23.868 11.8168 23.8935 11.842C23.919 11.8671 23.9514 11.8797 23.991 11.8797C24.035 11.8797 24.077 11.865 24.1171 11.8359C24.1466 11.8137 24.1661 11.7865 24.1753 11.7544C24.1816 11.7334 24.1848 11.6934 24.1848 11.6344V11.5854ZM23.8553 11.385L23.6347 11.3444C23.6597 11.2547 23.7027 11.1884 23.7637 11.1453C23.8248 11.1022 23.9155 11.0806 24.0358 11.0806C24.1451 11.0806 24.2266 11.0936 24.28 11.1194C24.3335 11.1454 24.3712 11.1783 24.393 11.2182C24.4148 11.258 24.4258 11.3313 24.4258 11.4379L24.4232 11.7244C24.4232 11.8059 24.4271 11.8662 24.4349 11.9048C24.4428 11.9435 24.4575 11.985 24.4789 12.0292H24.2356C24.2291 12.0132 24.2214 11.9895 24.212 11.958C24.208 11.9436 24.205 11.9342 24.2034 11.9296C24.1615 11.9704 24.1169 12.0011 24.0693 12.0215C24.0216 12.0419 23.9708 12.0522 23.9168 12.0522C23.8216 12.0522 23.7464 12.0262 23.6916 11.9744C23.6368 11.9225 23.6094 11.8569 23.6094 11.7777C23.6094 11.7253 23.6218 11.6786 23.6468 11.6375C23.6718 11.5964 23.7068 11.5649 23.7519 11.5431C23.7969 11.5213 23.8619 11.5021 23.9469 11.4858C24.0613 11.4643 24.1407 11.4442 24.1848 11.4256V11.4008C24.1848 11.353 24.1732 11.3191 24.1498 11.2987C24.1265 11.2784 24.0823 11.2682 24.0174 11.2682C23.9736 11.2682 23.9394 11.2769 23.9149 11.2941C23.8904 11.3114 23.8704 11.3417 23.8553 11.385Z" fill="#0B4A8E"/>
<path fill-rule="evenodd" clip-rule="evenodd" d="M5.43711 5.72717H3.76266C3.76266 5.45225 3.73038 5.26774 3.66612 5.17382C3.56652 5.03486 3.29144 4.96526 2.84132 4.96526C2.40418 4.96526 2.11435 5.00531 1.97295 5.08539C1.83161 5.16576 1.76088 5.34057 1.76088 5.60964C1.76088 5.85325 1.8235 6.01365 1.94907 6.09051C2.03908 6.14507 2.15791 6.17717 2.30617 6.1867L2.64382 6.21058C3.36755 6.25862 3.81954 6.29248 3.99985 6.31171C4.57214 6.36945 4.98704 6.52174 5.24449 6.76852C5.44709 6.96108 5.5679 7.21269 5.60647 7.52345C5.62899 7.70932 5.64022 7.91969 5.64022 8.15337C5.64022 8.69203 5.58883 9.08656 5.48594 9.33658C5.29951 9.79532 4.8807 10.085 4.22905 10.2067C3.95601 10.2581 3.53833 10.2839 2.97659 10.2839C2.0388 10.2839 1.38529 10.228 1.01629 10.1158C0.563393 9.97829 0.26482 9.69969 0.120323 9.28014C0.0398334 9.04663 0 8.65771 0 8.11327H1.67444C1.67444 8.17396 1.67461 8.22041 1.67461 8.2524C1.67461 8.54291 1.7581 8.7298 1.92468 8.81301C2.04011 8.87041 2.17952 8.90052 2.34338 8.9041H2.95895C3.27311 8.9041 3.47362 8.88799 3.56006 8.85572C3.71399 8.79514 3.81501 8.69764 3.86327 8.56271C3.88891 8.47967 3.90167 8.37219 3.90167 8.24071C3.90167 7.94612 3.79413 7.76689 3.57957 7.70262C3.49931 7.67721 3.12593 7.64182 2.45948 7.5969C1.92434 7.55867 1.55261 7.52192 1.34439 7.48624C0.796167 7.38364 0.430819 7.1727 0.248513 6.85235C0.0882714 6.58016 0.00811071 6.16838 0.00811071 5.61753C0.00811071 5.19804 0.0514382 4.86164 0.138008 4.60861C0.224657 4.35548 0.364293 4.16337 0.556984 4.0319C0.83925 3.83021 1.20046 3.71178 1.64013 3.67638C2.00596 3.64445 2.41178 3.62817 2.85822 3.62817C3.56096 3.62817 4.06179 3.66856 4.36041 3.7487C5.08908 3.94455 5.45333 4.49325 5.45333 5.39485C5.45333 5.46881 5.44794 5.57936 5.43711 5.72717Z" fill="#0B4A8E"/>
<path fill-rule="evenodd" clip-rule="evenodd" d="M14.6007 7.00394H15.7228C16.0786 6.99112 16.2949 6.96372 16.3728 6.9209C16.4792 6.86237 16.5506 6.74524 16.5861 6.56947C16.6088 6.45252 16.6202 6.27862 16.6202 6.0476C16.6202 5.76463 16.5977 5.55489 16.5523 5.41785C16.4876 5.22592 16.3325 5.10902 16.0869 5.06659C16.0384 5.06018 15.9221 5.05678 15.738 5.05678H14.6007V7.00394ZM12.8008 10.2836V3.59253H16.1542C16.6141 3.59253 16.9651 3.63013 17.2062 3.70517C17.7578 3.87811 18.1278 4.23209 18.3174 4.76712C18.4152 5.04793 18.4642 5.47066 18.4642 6.03518C18.4642 6.71388 18.4099 7.20166 18.3025 7.49858C18.0874 8.08585 17.6447 8.42412 16.9761 8.51175C16.8975 8.52491 16.563 8.5367 15.9726 8.54612L15.6738 8.5561H14.6007V10.2836H12.8008Z" fill="#0B4A8E"/>
<path fill-rule="evenodd" clip-rule="evenodd" d="M21.9475 7.82369L21.1041 4.92321L20.2857 7.82369H21.9475ZM22.3049 9.1272H19.8984L19.5751 10.2836H17.7129L19.7223 3.59253H22.4373L24.4714 10.2836H22.6483L22.3049 9.1272Z" fill="#0B4A8E"/>
<path fill-rule="evenodd" clip-rule="evenodd" d="M10.315 4.53415C11.0574 4.53415 11.7199 4.87628 12.1554 5.41221L12.5434 4.57992C11.9366 4.0061 11.1107 3.65234 10.1998 3.65234C8.78162 3.65234 7.56841 4.50931 7.07048 5.72241H6.3139L5.86719 6.68061H6.84048C6.83316 6.76949 6.82846 6.85843 6.82846 6.94918C6.82846 7.05904 6.83413 7.16755 6.84502 7.2748H6.35588L5.90922 8.23329H7.09367C7.60579 9.41571 8.80386 10.2458 10.1998 10.2458C10.9034 10.2458 11.5561 10.0349 12.0967 9.67468V8.49998C11.6614 8.99582 11.0247 9.30913 10.315 9.30913C9.48528 9.30913 8.75548 8.88108 8.33048 8.23329H10.8109L11.2575 7.2748H7.96556C7.9486 7.15943 7.93952 7.04157 7.93952 6.9215C7.93952 6.84033 7.94372 6.75996 7.95155 6.68061H11.5343L11.981 5.72241H8.2614C8.67272 5.01212 9.4382 4.53415 10.315 4.53415Z" fill="#F6BC25"/>
</g>
<defs>
<clipPath id="clip0_9334_10546">
<rect width="24.4789" height="16" fill="white"/>
</clipPath>
</defs>
</svg>
