<svg width="29" height="16" viewBox="0 0 29 16" fill="none" xmlns="http://www.w3.org/2000/svg">
<g clip-path="url(#clip0_9388_114164)">
<g clip-path="url(#clip1_9388_114164)">
<mask id="mask0_9388_114164" style="mask-type:luminance" maskUnits="userSpaceOnUse" x="-3" y="-1" width="35" height="18">
<path d="M-2.41016 -0.405636H31.2126V16.4058H-2.41016V-0.405636Z" fill="white"/>
</mask>
<g mask="url(#mask0_9388_114164)">
<path d="M0.233616 11.6528H0.449206L0.248871 12.4896C0.219139 12.6137 0.224743 12.7072 0.265838 12.7695C0.306776 12.8319 0.382973 12.8632 0.494348 12.8632C0.605023 12.8632 0.695773 12.8319 0.766677 12.7695C0.837659 12.7072 0.888015 12.6137 0.917746 12.4896L1.118 11.6528H1.3364L1.13116 12.5103C1.08656 12.6966 1.0071 12.8361 0.893307 12.9285C0.779441 13.0212 0.630162 13.0674 0.44547 13.0674C0.260623 13.0674 0.133837 13.0212 0.0648013 12.929C-0.00431221 12.8368 -0.016376 12.6972 0.0283766 12.5103L0.233616 11.6528Z" fill="#696A6A"/>
<path d="M1.30664 13.0305L1.64956 11.598L2.30116 12.4404C2.31859 12.4641 2.33618 12.4896 2.35354 12.5166C2.3709 12.5436 2.38864 12.574 2.40685 12.6079L2.6356 11.6526H2.83741L2.49472 13.084L1.82943 12.2266C1.81161 12.2035 1.79503 12.179 1.77954 12.1533C1.7639 12.1275 1.74981 12.1005 1.73689 12.0723L1.50752 13.0305H1.30664Z" fill="#696A6A"/>
<path d="M2.82031 13.0303L3.15016 11.6524H3.3684L3.03863 13.0303H2.82031Z" fill="#696A6A"/>
<path d="M3.35156 13.0303L3.68141 11.6524H4.43092L4.38539 11.8424H3.85419L3.77193 12.186H4.30312L4.25611 12.3826H3.72484L3.56988 13.0303H3.35156Z" fill="#696A6A"/>
<path d="M4.3418 13.0303L4.67164 11.6524H4.88988L4.56011 13.0303H4.3418Z" fill="#696A6A"/>
<path d="M4.875 13.0303L5.20485 11.6524H5.95435L5.90882 11.8424H5.37763L5.2949 12.1878H5.82609L5.77908 12.3846H5.24789L5.14126 12.8298H5.67245L5.62451 13.0303H4.875Z" fill="#696A6A"/>
<path d="M6.14173 12.8278H6.32525C6.42612 12.8278 6.50348 12.8209 6.55726 12.8071C6.61104 12.7934 6.66039 12.7701 6.70561 12.7375C6.76702 12.693 6.81831 12.6376 6.85956 12.5714C6.90073 12.5052 6.93194 12.4281 6.95295 12.3402C6.97389 12.2524 6.97965 12.1755 6.97015 12.1094C6.96058 12.0431 6.93583 11.9877 6.89575 11.9431C6.86563 11.9106 6.82586 11.8873 6.7762 11.8734C6.72647 11.8597 6.64552 11.8528 6.53298 11.8528H6.45406H6.37514L6.14173 12.8278ZM5.875 13.0303L6.20485 11.6523H6.49928C6.69074 11.6523 6.82305 11.6621 6.89637 11.6819C6.96953 11.7017 7.03001 11.7349 7.07756 11.7812C7.14068 11.8421 7.18084 11.9203 7.19812 12.0155C7.21532 12.1109 7.20925 12.2198 7.17998 12.3422C7.15072 12.4645 7.10472 12.5729 7.04199 12.6673C6.97942 12.7618 6.90182 12.8397 6.80951 12.9012C6.7397 12.9477 6.66482 12.9808 6.58528 13.0006C6.50551 13.0203 6.38658 13.0303 6.22812 13.0303H6.16936H5.875Z" fill="#696A6A"/>
<path d="M8.24228 12.2284H8.29831C8.41934 12.2284 8.50332 12.2148 8.55017 12.1878C8.59711 12.1609 8.62863 12.1132 8.64497 12.0448C8.66256 11.9714 8.65345 11.9196 8.6175 11.8895C8.58154 11.8594 8.50589 11.8442 8.39031 11.8442H8.33427L8.24228 12.2284ZM8.1846 12.4118L8.03657 13.0303H7.83203L8.16195 11.6524H8.49219C8.59002 11.6524 8.66077 11.6578 8.70436 11.6688C8.74779 11.6797 8.78367 11.6978 8.812 11.723C8.84647 11.7549 8.86912 11.7981 8.88002 11.8523C8.89084 11.9066 8.8885 11.9664 8.87294 12.0316C8.85722 12.0969 8.83091 12.1571 8.79386 12.2124C8.75681 12.2675 8.71338 12.3109 8.66373 12.3422C8.62341 12.3673 8.57897 12.3852 8.53025 12.3958C8.48145 12.4065 8.40821 12.4118 8.31038 12.4118H8.26734H8.1846Z" fill="#696A6A"/>
<path d="M9.14243 12.4891H9.51672L9.45422 12.1747C9.45127 12.1547 9.44846 12.1316 9.44605 12.1056C9.44379 12.0795 9.44224 12.0505 9.44123 12.0185C9.42675 12.0486 9.41219 12.0767 9.39764 12.1028C9.38316 12.1288 9.36908 12.1527 9.35522 12.1747L9.14243 12.4891ZM9.61658 13.0303L9.5491 12.6754H9.01697L8.77609 13.0303H8.54688L9.54007 11.5978L9.8468 13.0303H9.61658Z" fill="#696A6A"/>
<path d="M10.1596 13.0303L10.3105 12.3996L10.0371 11.6524H10.2665L10.4361 12.1201C10.44 12.1321 10.4447 12.1478 10.4501 12.1672C10.4555 12.1867 10.4608 12.2076 10.4658 12.2303C10.4795 12.2083 10.4936 12.1874 10.5077 12.1681C10.5218 12.1486 10.536 12.1308 10.5504 12.1144L10.9499 11.6524H11.1683L10.527 12.3996L10.3761 13.0303H10.1596Z" fill="#696A6A"/>
<path d="M12.2431 12.3498C12.2432 12.3392 12.2463 12.3097 12.2524 12.2614C12.257 12.2212 12.2607 12.1879 12.2633 12.1615C12.2503 12.193 12.235 12.2244 12.2174 12.2557C12.1998 12.2871 12.1795 12.3191 12.1564 12.3518L11.6293 13.0859L11.4573 12.3367C11.4499 12.3059 11.4443 12.2761 11.4406 12.2473C11.4369 12.2184 11.4343 12.1899 11.433 12.1615C11.4256 12.1905 11.4161 12.2207 11.4045 12.2525C11.3929 12.2841 11.379 12.3173 11.3628 12.3518L11.0563 13.0304H10.8555L11.5166 11.594L11.7048 12.4638C11.7076 12.4775 11.7115 12.5005 11.7164 12.5325C11.7212 12.5645 11.7269 12.604 11.7335 12.651C11.7557 12.6115 11.7878 12.5614 11.83 12.5005C11.8412 12.4842 11.8498 12.4716 11.8555 12.4628L12.4507 11.594L12.4316 13.0304H12.2288L12.2431 12.3498Z" fill="#696A6A"/>
<path d="M12.6055 13.0303L12.9354 11.6524H13.6849L13.6394 11.8424H13.1081L13.0254 12.1878H13.5566L13.5096 12.3846H12.9784L12.8718 12.8298H13.403L13.3549 13.0303H12.6055Z" fill="#696A6A"/>
<path d="M13.6055 13.0305L13.9484 11.598L14.6 12.4404C14.6174 12.4641 14.635 12.4896 14.6524 12.5166C14.6697 12.5436 14.6875 12.574 14.7057 12.6079L14.9344 11.6526H15.1363L14.7936 13.084L14.1283 12.2266C14.1104 12.2035 14.0939 12.179 14.0784 12.1533C14.0627 12.1275 14.0486 12.1005 14.0357 12.0723L13.8063 13.0305H13.6055Z" fill="#696A6A"/>
<path d="M15.8331 11.8424L15.5487 13.0303H15.3304L15.6147 11.8424H15.2578L15.3033 11.6524H16.2336L16.1881 11.8424H15.8331Z" fill="#696A6A"/>
<path d="M16.0586 12.7549L16.2528 12.6722C16.2547 12.7336 16.2737 12.7805 16.31 12.8128C16.3462 12.8452 16.3986 12.8613 16.4673 12.8613C16.532 12.8613 16.588 12.8428 16.6351 12.8057C16.6821 12.7687 16.7132 12.7192 16.7281 12.6571C16.7474 12.576 16.6991 12.5039 16.5835 12.4406C16.5673 12.4312 16.5549 12.4243 16.5463 12.4198C16.416 12.3458 16.3333 12.2788 16.2984 12.2189C16.2636 12.1589 16.2565 12.0857 16.2772 11.9992C16.304 11.8868 16.363 11.7959 16.454 11.7262C16.545 11.6565 16.6507 11.6217 16.7713 11.6217C16.8703 11.6217 16.9486 11.6413 17.0058 11.6805C17.063 11.7198 17.0957 11.7761 17.1038 11.8495L16.9117 11.9399C16.895 11.8966 16.8731 11.8649 16.8458 11.8447C16.8185 11.8247 16.7839 11.8146 16.7425 11.8146C16.6838 11.8146 16.6333 11.8304 16.5912 11.8616C16.5494 11.8931 16.5219 11.9351 16.5092 11.9879C16.4894 12.0707 16.5468 12.1478 16.6814 12.2193C16.6917 12.2249 16.6998 12.2295 16.7056 12.2326C16.8234 12.2952 16.9 12.3566 16.9351 12.4166C16.9703 12.4766 16.9772 12.5514 16.9556 12.641C16.9244 12.7716 16.8596 12.8753 16.7611 12.9521C16.6625 13.0289 16.545 13.0674 16.4087 13.0674C16.2942 13.0674 16.207 13.0405 16.1469 12.9864C16.0867 12.9325 16.0572 12.8554 16.0586 12.7549Z" fill="#696A6A"/>
<path d="M17.6719 13.0303L18.0017 11.6524H18.22L17.8902 13.0303H17.6719Z" fill="#696A6A"/>
<path d="M18.2051 13.0305L18.548 11.598L19.1996 12.4404C19.217 12.4641 19.2346 12.4896 19.252 12.5166C19.2693 12.5436 19.2871 12.574 19.3053 12.6079L19.534 11.6526H19.7358L19.3932 13.084L18.7279 12.2266C18.71 12.2035 18.6934 12.179 18.6779 12.1533C18.6623 12.1275 18.6482 12.1005 18.6352 12.0723L18.406 13.0305H18.2051Z" fill="#696A6A"/>
<path d="M20.4327 11.8424L20.1483 13.0303H19.93L20.2143 11.8424H19.8574L19.903 11.6524H20.8332L20.7877 11.8424H20.4327Z" fill="#696A6A"/>
<path d="M20.6699 13.0303L20.9998 11.6524H21.7493L21.7038 11.8424H21.1726L21.0899 12.1878H21.6211L21.574 12.3846H21.0428L20.9363 12.8298H21.4675L21.4194 13.0303H20.6699Z" fill="#696A6A"/>
<path d="M22.0775 12.2396H22.1171C22.2326 12.2396 22.3126 12.2259 22.3572 12.1983C22.4017 12.1706 22.4325 12.1218 22.4492 12.0514C22.4674 11.9755 22.4599 11.922 22.4265 11.891C22.3934 11.8598 22.3218 11.8443 22.2117 11.8443H22.1722L22.0775 12.2396ZM22.0221 12.4137L21.8745 13.0303H21.6699L21.9998 11.6524H22.3044C22.3937 11.6524 22.4615 11.6583 22.5078 11.6703C22.5542 11.6822 22.5916 11.7019 22.6198 11.7296C22.6535 11.7627 22.6753 11.8058 22.6854 11.8585C22.6953 11.9111 22.6927 11.9689 22.6777 12.0316C22.6514 12.142 22.6047 12.2285 22.5377 12.291C22.4708 12.3533 22.385 12.3909 22.2805 12.4033L22.5929 13.0303H22.346L22.0469 12.4137H22.0221Z" fill="#696A6A"/>
<path d="M22.7227 13.0303L23.0525 11.6524H23.802L23.7566 11.8424H23.2253L23.143 12.186H23.6743L23.6272 12.3826H23.096L22.941 13.0303H22.7227Z" fill="#696A6A"/>
<path d="M24.0545 12.4891H24.4289L24.3664 12.1747C24.3634 12.1547 24.3607 12.1316 24.3582 12.1056C24.356 12.0795 24.3544 12.0505 24.3534 12.0185C24.3389 12.0486 24.3243 12.0767 24.3098 12.1028C24.2954 12.1288 24.2812 12.1527 24.2673 12.1747L24.0545 12.4891ZM24.5288 13.0303L24.4613 12.6754H23.9292L23.6883 13.0303H23.459L24.4522 11.5978L24.759 13.0303H24.5288Z" fill="#696A6A"/>
<path d="M26.1807 11.9874C26.1319 11.9334 26.0763 11.893 26.0139 11.866C25.9516 11.8391 25.8825 11.8255 25.8066 11.8255C25.6599 11.8255 25.5289 11.8738 25.4137 11.9704C25.2985 12.0671 25.2225 12.1922 25.1857 12.346C25.1501 12.4948 25.1656 12.6173 25.2321 12.7139C25.2986 12.8106 25.4 12.859 25.5363 12.859C25.6159 12.859 25.695 12.8445 25.7738 12.8157C25.8526 12.7868 25.932 12.7432 26.012 12.6847L25.9513 12.938C25.8823 12.9813 25.8106 13.0137 25.7364 13.0349C25.6622 13.0562 25.5847 13.0669 25.504 13.0669C25.4013 13.0669 25.3104 13.0497 25.2315 13.0151C25.1526 12.9807 25.0881 12.9299 25.0382 12.8627C24.9886 12.7968 24.9567 12.7192 24.9431 12.6297C24.9292 12.5404 24.9345 12.4451 24.9586 12.344C24.9828 12.2431 25.0232 12.1482 25.0796 12.0594C25.136 11.9706 25.2056 11.8926 25.2883 11.8255C25.3712 11.7577 25.46 11.7065 25.5545 11.6715C25.649 11.6368 25.7465 11.6193 25.8469 11.6193C25.9258 11.6193 25.9982 11.6312 26.0641 11.6547C26.13 11.6782 26.1909 11.7137 26.2468 11.7616L26.1807 11.9874Z" fill="#696A6A"/>
<path d="M26.2012 13.0303L26.531 11.6524H27.2805L27.235 11.8424H26.7039L26.6211 12.1878H27.1523L27.1053 12.3846H26.5741L26.4675 12.8298H26.9987L26.9507 13.0303H26.2012Z" fill="#696A6A"/>
<path d="M22.2196 10.4517H20.7188L22.806 2.91338H24.3069L22.2196 10.4517Z" fill="#66686C"/>
<path d="M21.4392 3.15201C21.3351 3.00857 21.1747 2.93619 20.9566 2.93619H12.7038L12.295 4.41264H13.7967V4.41178H19.8028L19.3659 5.98956H13.3596L13.3602 5.98629H11.8591L10.6133 10.4839H12.1151L12.9512 7.46515H19.7026C19.9135 7.46515 20.112 7.39324 20.2986 7.2494C20.4848 7.10542 20.6074 6.92789 20.6662 6.71588L21.5022 3.69652C21.5632 3.47742 21.5421 3.29561 21.4392 3.15201Z" fill="#66686C"/>
<path d="M9.739 9.98136C9.65611 10.2798 9.38432 10.4863 9.07448 10.4863H1.33104C1.12004 10.4863 0.963215 10.4144 0.860089 10.2707C0.757042 10.1269 0.734938 9.94899 0.793856 9.73705L2.68327 2.93567H4.18548L2.49788 9.01035H8.50686L10.1945 2.93567H11.6964L9.739 9.98136Z" fill="#66686C"/>
<path d="M26.899 2.92757L28.7991 6.70648L24.8047 10.4844L26.899 2.92757Z" fill="#27803B"/>
<path d="M25.566 2.92757L27.4648 6.70648L23.4688 10.4844L25.566 2.92757Z" fill="#E9661C"/>
</g>
</g>
</g>
<defs>
<clipPath id="clip0_9388_114164">
<rect width="28.8" height="16" fill="white"/>
</clipPath>
<clipPath id="clip1_9388_114164">
<rect width="28.8" height="10.1746" fill="white" transform="translate(0 2.9126)"/>
</clipPath>
</defs>
</svg>
