<svg width="19" height="16" viewBox="0 0 19 16" fill="none" xmlns="http://www.w3.org/2000/svg">
<g clip-path="url(#clip0_9332_10094)">
<path d="M6.59255 10.1187C6.29804 10.254 5.93556 10.1413 5.79963 9.87079L5.75432 9.78064L4.10052 6.17433C4.07787 6.12925 4.07787 6.08417 4.07787 6.0391C4.07787 5.88132 4.2138 5.74608 4.37238 5.74608C4.44034 5.74608 4.50831 5.76862 4.55362 5.8137L6.50193 7.1886C6.75114 7.34638 7.04565 7.36892 7.29485 7.27876L16.4474 3.19913C14.8389 1.28328 12.1203 -0.00146484 9.06193 -0.00146484C4.05521 -0.00146484 0 3.37945 0 7.54924C0 9.82572 1.22336 11.8768 3.12637 13.2742C3.28495 13.3869 3.37557 13.5673 3.37557 13.7701C3.37557 13.8377 3.35291 13.9053 3.35291 13.9504C3.19433 14.5139 2.96778 15.438 2.94513 15.4831C2.92247 15.5507 2.89982 15.6183 2.89982 15.7085C2.89982 15.8663 3.03575 16.0015 3.19433 16.0015C3.26229 16.0015 3.3076 15.979 3.37557 15.9564L5.36919 14.8069C5.50512 14.7168 5.68636 14.6717 5.84494 14.6717C5.93556 14.6717 6.02618 14.6942 6.09415 14.7168C7.0683 14.9647 8.06512 15.0999 9.06193 15.0999C14.0686 15.0999 18.1239 11.719 18.1239 7.54924C18.1239 6.30957 17.7614 5.09244 17.1044 4.05563L6.66052 10.0736L6.59255 10.1187Z" fill="#09BB07"/>
</g>
<defs>
<clipPath id="clip0_9332_10094">
<rect width="18.1239" height="16" fill="white"/>
</clipPath>
</defs>
</svg>
